<svg width="189" height="60" viewBox="0 0 189 60" fill="none" xmlns="http://www.w3.org/2000/svg">
<rect width="189" height="60" rx="30" fill="#EEEBF4"/>
<path d="M39.316 30.7869C39.3027 28.5225 40.3287 26.8158 42.4006 25.5574C41.2418 23.8973 39.4887 22.9842 37.1777 22.8082C34.9896 22.6355 32.5957 24.0832 31.7191 24.0832C30.7928 24.0832 28.6744 22.868 27.0076 22.868C23.5678 22.9211 19.9121 25.6105 19.9121 31.0824C19.9121 32.6994 20.2076 34.3695 20.7986 36.0895C21.5889 38.3539 24.4377 43.9021 27.4094 43.8125C28.9633 43.776 30.0623 42.7102 32.0844 42.7102C34.0467 42.7102 35.0627 43.8125 36.7959 43.8125C39.7941 43.7693 42.3707 38.7258 43.1211 36.4547C39.1002 34.5588 39.316 30.9031 39.316 30.7869V30.7869ZM35.8264 20.66C37.5098 18.6611 37.357 16.8416 37.3072 16.1875C35.8197 16.2738 34.0998 17.2002 33.1203 18.3391C32.0412 19.5609 31.407 21.0717 31.5432 22.775C33.1502 22.8979 34.6178 22.0711 35.8264 20.66V20.66Z" fill="#6738DA"/>
<path d="M58.788 38H62.052L63.756 33.776H71.004L72.708 38H75.996L69.156 21.2H65.604L58.788 38ZM64.908 30.896L67.38 24.776L69.852 30.896H64.908ZM77.5136 43.4H80.5136V36.824C81.4256 37.856 82.6496 38.384 84.1856 38.384C87.2816 38.384 89.5856 35.6 89.5856 32.168C89.5856 28.688 87.2816 25.976 84.1856 25.976C82.6496 25.976 81.4256 26.504 80.5136 27.536V26.336H77.5136V43.4ZM83.5376 35.504C81.7376 35.504 80.5136 34.088 80.5136 32.168C80.5136 30.248 81.7376 28.856 83.5376 28.856C85.3616 28.856 86.5856 30.248 86.5856 32.168C86.5856 34.088 85.3376 35.504 83.5376 35.504ZM91.5293 43.4H94.5293V36.824C95.4413 37.856 96.6653 38.384 98.2013 38.384C101.297 38.384 103.601 35.6 103.601 32.168C103.601 28.688 101.297 25.976 98.2013 25.976C96.6653 25.976 95.4413 26.504 94.5293 27.536V26.336H91.5293V43.4ZM97.5533 35.504C95.7533 35.504 94.5293 34.088 94.5293 32.168C94.5293 30.248 95.7533 28.856 97.5533 28.856C99.3773 28.856 100.601 30.248 100.601 32.168C100.601 34.088 99.3533 35.504 97.5533 35.504ZM110.333 32.48C110.669 34.304 111.485 35.744 112.757 36.8C114.029 37.832 115.637 38.36 117.533 38.36C121.445 38.36 124.085 36.104 124.085 32.864C124.085 29.768 121.853 28.112 117.533 27.656C115.157 27.44 114.293 26.792 114.293 25.568C114.293 24.488 115.493 23.72 117.293 23.72C118.949 23.72 120.269 24.92 120.725 26.744L123.581 25.592C123.245 24.152 122.501 23 121.349 22.136C120.221 21.272 118.853 20.84 117.293 20.84C113.837 20.84 111.269 22.808 111.269 25.52C111.269 28.544 113.237 30.248 117.149 30.632C119.837 30.92 121.061 31.688 121.061 32.936C121.061 34.472 119.741 35.48 117.533 35.48C115.253 35.48 113.645 34.064 113.141 31.472L110.333 32.48ZM125.001 28.928H126.921V33.848C126.921 36.632 128.673 38.36 131.649 38.36C134.193 38.36 136.089 36.512 135.945 33.68L133.089 33.392C133.209 34.832 132.585 35.648 131.529 35.648C130.545 35.648 129.921 35.048 129.921 33.968V28.928H135.465V26.336H129.921V22.976H126.921V26.336H125.001V28.928ZM143.058 25.976C139.458 25.976 136.962 28.688 136.962 32.192C136.962 35.648 139.458 38.36 143.058 38.36C146.634 38.36 149.13 35.648 149.13 32.192C149.13 28.688 146.634 25.976 143.058 25.976ZM143.058 35.48C141.258 35.48 139.962 34.088 139.962 32.192C139.962 30.272 141.258 28.856 143.058 28.856C143.946 28.856 144.666 29.168 145.242 29.816C145.842 30.464 146.13 31.256 146.13 32.192C146.13 33.128 145.842 33.92 145.242 34.544C144.666 35.168 143.946 35.48 143.058 35.48ZM151.084 38H154.084V31.664C154.084 29.72 154.876 28.712 156.028 28.712C157.06 28.712 157.564 29.384 157.564 30.728C157.564 30.944 157.564 31.112 157.54 31.232L160.516 30.752C160.54 27.464 159.268 25.952 157.06 25.952C155.788 25.952 154.804 26.432 154.084 27.368V26.336H151.084V38ZM167.426 25.976C163.97 25.976 161.618 28.664 161.618 32.192C161.618 35.72 164.018 38.36 167.546 38.36C168.938 38.36 170.138 37.976 171.17 37.184C172.202 36.392 172.802 35.36 173.018 34.088L170.282 33.584C170.066 34.856 168.962 35.72 167.594 35.72C165.962 35.72 164.762 34.712 164.45 32.984H172.73V31.64C172.73 28.328 170.642 25.976 167.426 25.976ZM164.546 30.68C164.954 29.336 166.01 28.52 167.426 28.52C168.938 28.52 170.018 29.456 170.09 30.68H164.546Z" fill="#6738DA"/>
</svg>
