<svg width="225" height="70" viewBox="0 0 225 70" fill="none" xmlns="http://www.w3.org/2000/svg">
<path d="M56.4941 36.1572C56.4746 32.8271 57.9834 30.3174 61.0303 28.4668C59.3262 26.0254 56.748 24.6826 53.3496 24.4238C50.1318 24.1699 46.6113 26.2988 45.3223 26.2988C43.96 26.2988 40.8447 24.5117 38.3936 24.5117C33.335 24.5898 27.959 28.5449 27.959 36.5918C27.959 38.9697 28.3936 41.4258 29.2627 43.9551C30.4248 47.2852 34.6143 55.4443 38.9844 55.3125C41.2695 55.2588 42.8857 53.6914 45.8594 53.6914C48.7451 53.6914 50.2393 55.3125 52.7881 55.3125C57.1973 55.249 60.9863 47.832 62.0898 44.4922C56.1768 41.7041 56.4941 36.3281 56.4941 36.1572V36.1572ZM51.3623 21.2646C53.8379 18.3252 53.6133 15.6494 53.54 14.6875C51.3525 14.8145 48.8232 16.1768 47.3828 17.8516C45.7959 19.6484 44.8633 21.8701 45.0635 24.375C47.4268 24.5557 49.585 23.3398 51.3623 21.2646V21.2646Z" fill="white"/>
<path d="M83.2958 23.096C82.8398 23.096 82.4398 23.084 82.0958 23.06C81.7598 23.036 81.4238 23.008 81.0878 22.976V14.624C81.4638 14.584 81.8318 14.556 82.1918 14.54C82.5518 14.516 82.9638 14.504 83.4278 14.504C84.1478 14.504 84.7678 14.616 85.2878 14.84C85.8158 15.064 86.2478 15.372 86.5838 15.764C86.9278 16.156 87.1798 16.612 87.3398 17.132C87.5078 17.644 87.5918 18.196 87.5918 18.788C87.5918 19.372 87.5078 19.924 87.3398 20.444C87.1718 20.964 86.9118 21.424 86.5598 21.824C86.2158 22.216 85.7718 22.528 85.2278 22.76C84.6918 22.984 84.0478 23.096 83.2958 23.096ZM83.3318 22.1C84.0518 22.1 84.6398 21.96 85.0958 21.68C85.5518 21.4 85.8878 21.012 86.1038 20.516C86.3198 20.012 86.4278 19.436 86.4278 18.788C86.4278 18.212 86.3198 17.672 86.1038 17.168C85.8878 16.664 85.5558 16.26 85.1078 15.956C84.6598 15.644 84.0878 15.488 83.3918 15.488C83.1598 15.488 82.9478 15.496 82.7558 15.512C82.5638 15.52 82.3878 15.532 82.2278 15.548V22.04C82.3958 22.064 82.5718 22.08 82.7558 22.088C82.9398 22.096 83.1318 22.1 83.3318 22.1ZM91.7755 23.144C91.1835 23.144 90.6515 23.008 90.1795 22.736C89.7075 22.456 89.3355 22.072 89.0635 21.584C88.7995 21.088 88.6675 20.52 88.6675 19.88C88.6675 19.208 88.8035 18.628 89.0755 18.14C89.3475 17.652 89.7195 17.276 90.1915 17.012C90.6635 16.748 91.1915 16.616 91.7755 16.616C92.3595 16.616 92.8835 16.748 93.3475 17.012C93.8195 17.276 94.1915 17.652 94.4635 18.14C94.7435 18.62 94.8835 19.192 94.8835 19.856C94.8835 20.52 94.7475 21.1 94.4755 21.596C94.2035 22.084 93.8315 22.464 93.3595 22.736C92.8955 23.008 92.3675 23.144 91.7755 23.144ZM91.7755 22.184C92.4075 22.184 92.8995 21.972 93.2515 21.548C93.6035 21.116 93.7795 20.56 93.7795 19.88C93.7795 19.464 93.6915 19.084 93.5155 18.74C93.3395 18.388 93.0995 18.108 92.7955 17.9C92.4995 17.684 92.1595 17.576 91.7755 17.576C91.1435 17.576 90.6515 17.784 90.2995 18.2C89.9475 18.616 89.7715 19.168 89.7715 19.856C89.7715 20.272 89.8595 20.66 90.0355 21.02C90.2115 21.372 90.4475 21.656 90.7435 21.872C91.0475 22.08 91.3915 22.184 91.7755 22.184ZM97.5102 23L95.5422 17.048L96.5382 16.7L98.1462 21.776L99.6102 17.204H100.774L102.202 21.776L103.798 16.7L104.758 17.048L102.778 23H101.59L100.15 18.356L98.6982 23H97.5102ZM106.023 23V16.76H107.067V17.804C107.291 17.468 107.575 17.188 107.919 16.964C108.271 16.732 108.687 16.616 109.167 16.616C109.871 16.616 110.395 16.828 110.739 17.252C111.091 17.676 111.267 18.236 111.267 18.932V23H110.187V19.052C110.187 18.604 110.079 18.244 109.863 17.972C109.655 17.7 109.363 17.564 108.987 17.564C108.619 17.564 108.271 17.696 107.943 17.96C107.615 18.216 107.335 18.52 107.103 18.872V23H106.023ZM115.02 23.144C114.652 23.144 114.32 23.076 114.024 22.94C113.728 22.796 113.492 22.568 113.316 22.256C113.148 21.944 113.064 21.54 113.064 21.044V14.12H114.144V20.936C114.144 21.368 114.232 21.688 114.408 21.896C114.592 22.104 114.844 22.208 115.164 22.208C115.316 22.208 115.464 22.192 115.608 22.16C115.76 22.12 115.888 22.076 115.992 22.028L116.256 22.904C116.112 22.968 115.932 23.024 115.716 23.072C115.508 23.12 115.276 23.144 115.02 23.144ZM119.725 23.144C119.133 23.144 118.601 23.008 118.129 22.736C117.657 22.456 117.285 22.072 117.013 21.584C116.749 21.088 116.617 20.52 116.617 19.88C116.617 19.208 116.753 18.628 117.025 18.14C117.297 17.652 117.669 17.276 118.141 17.012C118.613 16.748 119.141 16.616 119.725 16.616C120.309 16.616 120.833 16.748 121.297 17.012C121.769 17.276 122.141 17.652 122.413 18.14C122.693 18.62 122.833 19.192 122.833 19.856C122.833 20.52 122.697 21.1 122.425 21.596C122.153 22.084 121.781 22.464 121.309 22.736C120.845 23.008 120.317 23.144 119.725 23.144ZM119.725 22.184C120.357 22.184 120.849 21.972 121.201 21.548C121.553 21.116 121.729 20.56 121.729 19.88C121.729 19.464 121.641 19.084 121.465 18.74C121.289 18.388 121.049 18.108 120.745 17.9C120.449 17.684 120.109 17.576 119.725 17.576C119.093 17.576 118.601 17.784 118.249 18.2C117.897 18.616 117.721 19.168 117.721 19.856C117.721 20.272 117.809 20.66 117.985 21.02C118.161 21.372 118.397 21.656 118.693 21.872C118.997 22.08 119.341 22.184 119.725 22.184ZM126.657 23.144C126.137 23.144 125.665 23.012 125.241 22.748C124.817 22.484 124.477 22.112 124.221 21.632C123.973 21.144 123.849 20.572 123.849 19.916C123.849 19.292 123.973 18.732 124.221 18.236C124.477 17.74 124.825 17.348 125.265 17.06C125.713 16.764 126.225 16.616 126.801 16.616C127.161 16.616 127.485 16.68 127.773 16.808C128.069 16.928 128.325 17.08 128.541 17.264V16.76H129.525V21.488C129.525 21.792 129.597 21.992 129.741 22.088C129.893 22.176 130.057 22.22 130.233 22.22L130.005 23.06C129.237 23.06 128.773 22.748 128.613 22.124C128.429 22.38 128.177 22.616 127.857 22.832C127.545 23.04 127.145 23.144 126.657 23.144ZM126.897 22.184C127.201 22.184 127.489 22.112 127.761 21.968C128.033 21.816 128.261 21.628 128.445 21.404V18.056C128.229 17.904 127.989 17.784 127.725 17.696C127.469 17.6 127.197 17.552 126.909 17.552C126.525 17.552 126.185 17.652 125.889 17.852C125.601 18.044 125.373 18.316 125.205 18.668C125.037 19.012 124.953 19.416 124.953 19.88C124.953 20.328 125.037 20.728 125.205 21.08C125.373 21.424 125.605 21.696 125.901 21.896C126.197 22.088 126.529 22.184 126.897 22.184ZM133.922 23.144C133.41 23.144 132.942 23.012 132.518 22.748C132.094 22.484 131.758 22.112 131.51 21.632C131.262 21.144 131.138 20.572 131.138 19.916C131.138 19.284 131.262 18.72 131.51 18.224C131.766 17.728 132.102 17.336 132.518 17.048C132.942 16.76 133.406 16.616 133.91 16.616C134.326 16.616 134.682 16.7 134.978 16.868C135.282 17.036 135.518 17.208 135.686 17.384V14.12H136.766V21.488C136.766 21.792 136.838 21.992 136.982 22.088C137.134 22.176 137.298 22.22 137.474 22.22L137.246 23.06C136.486 23.06 136.022 22.756 135.854 22.148C135.678 22.396 135.43 22.624 135.11 22.832C134.798 23.04 134.402 23.144 133.922 23.144ZM134.162 22.184C134.458 22.184 134.738 22.116 135.002 21.98C135.274 21.836 135.502 21.652 135.686 21.428V18.332C135.534 18.14 135.322 17.964 135.05 17.804C134.778 17.636 134.478 17.552 134.15 17.552C133.766 17.552 133.43 17.656 133.142 17.864C132.854 18.072 132.63 18.352 132.47 18.704C132.318 19.048 132.242 19.44 132.242 19.88C132.242 20.32 132.326 20.716 132.494 21.068C132.662 21.412 132.89 21.684 133.178 21.884C133.474 22.084 133.802 22.184 134.162 22.184ZM145.143 23.144C144.551 23.144 144.019 23.008 143.547 22.736C143.075 22.456 142.703 22.072 142.431 21.584C142.167 21.088 142.035 20.52 142.035 19.88C142.035 19.208 142.171 18.628 142.443 18.14C142.715 17.652 143.087 17.276 143.559 17.012C144.031 16.748 144.559 16.616 145.143 16.616C145.727 16.616 146.251 16.748 146.715 17.012C147.187 17.276 147.559 17.652 147.831 18.14C148.111 18.62 148.251 19.192 148.251 19.856C148.251 20.52 148.115 21.1 147.843 21.596C147.571 22.084 147.199 22.464 146.727 22.736C146.263 23.008 145.735 23.144 145.143 23.144ZM145.143 22.184C145.775 22.184 146.267 21.972 146.619 21.548C146.971 21.116 147.147 20.56 147.147 19.88C147.147 19.464 147.059 19.084 146.883 18.74C146.707 18.388 146.467 18.108 146.163 17.9C145.867 17.684 145.527 17.576 145.143 17.576C144.511 17.576 144.019 17.784 143.667 18.2C143.315 18.616 143.139 19.168 143.139 19.856C143.139 20.272 143.227 20.66 143.403 21.02C143.579 21.372 143.815 21.656 144.111 21.872C144.415 22.08 144.759 22.184 145.143 22.184ZM149.687 23V16.76H150.731V17.804C150.955 17.468 151.239 17.188 151.583 16.964C151.935 16.732 152.351 16.616 152.831 16.616C153.535 16.616 154.059 16.828 154.403 17.252C154.755 17.676 154.931 18.236 154.931 18.932V23H153.851V19.052C153.851 18.604 153.743 18.244 153.527 17.972C153.319 17.7 153.027 17.564 152.651 17.564C152.283 17.564 151.935 17.696 151.607 17.96C151.279 18.216 150.999 18.52 150.767 18.872V23H149.687ZM162.57 23.144C161.97 23.144 161.494 22.948 161.142 22.556C160.798 22.156 160.626 21.588 160.626 20.852V17.924H159.546V16.988H160.65L160.878 15.02H161.706V16.988H163.434V17.924H161.706V20.936C161.706 21.4 161.802 21.724 161.994 21.908C162.194 22.092 162.43 22.184 162.702 22.184C162.902 22.184 163.09 22.152 163.266 22.088C163.45 22.024 163.618 21.948 163.77 21.86L164.07 22.724C163.91 22.82 163.694 22.912 163.422 23C163.15 23.096 162.866 23.144 162.57 23.144ZM165.155 23V14.12H166.235V17.756C166.459 17.428 166.743 17.156 167.087 16.94C167.431 16.724 167.835 16.616 168.299 16.616C169.003 16.616 169.527 16.828 169.871 17.252C170.223 17.676 170.399 18.236 170.399 18.932V23H169.319V19.052C169.319 18.604 169.215 18.244 169.007 17.972C168.799 17.7 168.507 17.564 168.131 17.564C167.763 17.564 167.411 17.696 167.075 17.96C166.747 18.216 166.467 18.52 166.235 18.872V23H165.155ZM174.753 23.144C173.857 23.144 173.145 22.86 172.617 22.292C172.097 21.716 171.837 20.912 171.837 19.88C171.837 19.256 171.953 18.7 172.185 18.212C172.425 17.716 172.757 17.328 173.181 17.048C173.605 16.76 174.097 16.616 174.657 16.616C175.257 16.616 175.753 16.748 176.145 17.012C176.545 17.268 176.845 17.616 177.045 18.056C177.245 18.496 177.345 18.98 177.345 19.508C177.345 19.788 177.333 20.06 177.309 20.324H172.941C173.013 20.908 173.217 21.364 173.553 21.692C173.889 22.02 174.333 22.184 174.885 22.184C175.245 22.184 175.569 22.148 175.857 22.076C176.145 21.996 176.421 21.896 176.685 21.776L176.937 22.7C176.649 22.828 176.325 22.932 175.965 23.012C175.605 23.1 175.201 23.144 174.753 23.144ZM172.929 19.448H176.349C176.349 18.84 176.197 18.372 175.893 18.044C175.589 17.716 175.169 17.552 174.633 17.552C174.169 17.552 173.785 17.716 173.481 18.044C173.177 18.364 172.993 18.832 172.929 19.448ZM184.77 23.144C184.25 23.144 183.778 23.012 183.354 22.748C182.93 22.484 182.59 22.112 182.334 21.632C182.086 21.144 181.962 20.572 181.962 19.916C181.962 19.292 182.086 18.732 182.334 18.236C182.59 17.74 182.938 17.348 183.378 17.06C183.826 16.764 184.338 16.616 184.914 16.616C185.274 16.616 185.598 16.68 185.886 16.808C186.182 16.928 186.438 17.08 186.654 17.264V16.76H187.638V21.488C187.638 21.792 187.71 21.992 187.854 22.088C188.006 22.176 188.17 22.22 188.346 22.22L188.118 23.06C187.35 23.06 186.886 22.748 186.726 22.124C186.542 22.38 186.29 22.616 185.97 22.832C185.658 23.04 185.258 23.144 184.77 23.144ZM185.01 22.184C185.314 22.184 185.602 22.112 185.874 21.968C186.146 21.816 186.374 21.628 186.558 21.404V18.056C186.342 17.904 186.102 17.784 185.838 17.696C185.582 17.6 185.31 17.552 185.022 17.552C184.638 17.552 184.298 17.652 184.002 17.852C183.714 18.044 183.486 18.316 183.318 18.668C183.15 19.012 183.066 19.416 183.066 19.88C183.066 20.328 183.15 20.728 183.318 21.08C183.486 21.424 183.718 21.696 184.014 21.896C184.31 22.088 184.642 22.184 185.01 22.184ZM189.84 25.64V18.356C189.84 18.084 189.772 17.892 189.636 17.78C189.508 17.66 189.34 17.6 189.132 17.6L189.36 16.76C190.096 16.76 190.556 17.052 190.74 17.636C190.82 17.516 190.948 17.376 191.124 17.216C191.308 17.056 191.532 16.916 191.796 16.796C192.068 16.676 192.376 16.616 192.72 16.616C193.2 16.616 193.648 16.744 194.064 17C194.488 17.248 194.828 17.612 195.084 18.092C195.34 18.564 195.468 19.14 195.468 19.82C195.468 20.484 195.34 21.068 195.084 21.572C194.828 22.068 194.492 22.456 194.076 22.736C193.668 23.008 193.224 23.144 192.744 23.144C192.376 23.144 192.032 23.072 191.712 22.928C191.392 22.776 191.128 22.604 190.92 22.412V25.64H189.84ZM192.528 22.184C193.072 22.184 193.512 21.972 193.848 21.548C194.192 21.116 194.364 20.552 194.364 19.856C194.364 19.376 194.276 18.964 194.1 18.62C193.932 18.276 193.704 18.012 193.416 17.828C193.136 17.644 192.824 17.552 192.48 17.552C192.136 17.552 191.824 17.64 191.544 17.816C191.272 17.984 191.064 18.168 190.92 18.368V21.44C191.128 21.656 191.368 21.836 191.64 21.98C191.912 22.116 192.208 22.184 192.528 22.184ZM196.965 25.64V18.356C196.965 18.084 196.897 17.892 196.761 17.78C196.633 17.66 196.465 17.6 196.257 17.6L196.485 16.76C197.221 16.76 197.681 17.052 197.865 17.636C197.945 17.516 198.073 17.376 198.249 17.216C198.433 17.056 198.657 16.916 198.921 16.796C199.193 16.676 199.501 16.616 199.845 16.616C200.325 16.616 200.773 16.744 201.189 17C201.613 17.248 201.953 17.612 202.209 18.092C202.465 18.564 202.593 19.14 202.593 19.82C202.593 20.484 202.465 21.068 202.209 21.572C201.953 22.068 201.617 22.456 201.201 22.736C200.793 23.008 200.349 23.144 199.869 23.144C199.501 23.144 199.157 23.072 198.837 22.928C198.517 22.776 198.253 22.604 198.045 22.412V25.64H196.965ZM199.653 22.184C200.197 22.184 200.637 21.972 200.973 21.548C201.317 21.116 201.489 20.552 201.489 19.856C201.489 19.376 201.401 18.964 201.225 18.62C201.057 18.276 200.829 18.012 200.541 17.828C200.261 17.644 199.949 17.552 199.605 17.552C199.261 17.552 198.949 17.64 198.669 17.816C198.397 17.984 198.189 18.168 198.045 18.368V21.44C198.253 21.656 198.493 21.836 198.765 21.98C199.037 22.116 199.333 22.184 199.653 22.184ZM93.7118 51.24L91.8398 46.44H84.0638L82.1918 51.192L80.2478 50.4L86.8238 34.2H89.3198L95.7998 50.4L93.7118 51.24ZM84.7838 44.52H91.0958L87.9518 36.456L84.7838 44.52ZM98.4151 56.28V41.712C98.4151 41.168 98.2791 40.784 98.0071 40.56C97.7511 40.32 97.4151 40.2 96.9991 40.2L97.4551 38.52C98.9271 38.52 99.8471 39.104 100.215 40.272C100.375 40.032 100.631 39.752 100.983 39.432C101.351 39.112 101.799 38.832 102.327 38.592C102.871 38.352 103.487 38.232 104.175 38.232C105.135 38.232 106.031 38.488 106.863 39C107.711 39.496 108.391 40.224 108.903 41.184C109.415 42.128 109.671 43.28 109.671 44.64C109.671 45.968 109.415 47.136 108.903 48.144C108.391 49.136 107.719 49.912 106.887 50.472C106.071 51.016 105.183 51.288 104.223 51.288C103.487 51.288 102.799 51.144 102.159 50.856C101.519 50.552 100.991 50.208 100.575 49.824V56.28H98.4151ZM103.791 49.368C104.879 49.368 105.759 48.944 106.431 48.096C107.119 47.232 107.463 46.104 107.463 44.712C107.463 43.752 107.287 42.928 106.935 42.24C106.599 41.552 106.143 41.024 105.567 40.656C105.007 40.288 104.383 40.104 103.695 40.104C103.007 40.104 102.383 40.28 101.823 40.632C101.279 40.968 100.863 41.336 100.575 41.736V47.88C100.991 48.312 101.471 48.672 102.015 48.96C102.559 49.232 103.151 49.368 103.791 49.368ZM112.665 56.28V41.712C112.665 41.168 112.529 40.784 112.257 40.56C112.001 40.32 111.665 40.2 111.249 40.2L111.705 38.52C113.177 38.52 114.097 39.104 114.465 40.272C114.625 40.032 114.881 39.752 115.233 39.432C115.601 39.112 116.049 38.832 116.577 38.592C117.121 38.352 117.737 38.232 118.425 38.232C119.385 38.232 120.281 38.488 121.113 39C121.961 39.496 122.641 40.224 123.153 41.184C123.665 42.128 123.921 43.28 123.921 44.64C123.921 45.968 123.665 47.136 123.153 48.144C122.641 49.136 121.969 49.912 121.137 50.472C120.321 51.016 119.433 51.288 118.473 51.288C117.737 51.288 117.049 51.144 116.409 50.856C115.769 50.552 115.241 50.208 114.825 49.824V56.28H112.665ZM118.041 49.368C119.129 49.368 120.009 48.944 120.681 48.096C121.369 47.232 121.713 46.104 121.713 44.712C121.713 43.752 121.537 42.928 121.185 42.24C120.849 41.552 120.393 41.024 119.817 40.656C119.257 40.288 118.633 40.104 117.945 40.104C117.257 40.104 116.633 40.28 116.073 40.632C115.529 40.968 115.113 41.336 114.825 41.736V47.88C115.241 48.312 115.721 48.672 116.265 48.96C116.809 49.232 117.401 49.368 118.041 49.368ZM138.539 51.288C137.371 51.288 136.307 51.136 135.347 50.832C134.387 50.512 133.579 50.096 132.923 49.584L134.075 47.664C134.651 48.144 135.299 48.536 136.019 48.84C136.739 49.144 137.579 49.296 138.539 49.296C139.691 49.296 140.603 49.056 141.275 48.576C141.947 48.096 142.283 47.448 142.283 46.632C142.283 46.168 142.187 45.76 141.995 45.408C141.803 45.04 141.427 44.688 140.867 44.352C140.323 44 139.515 43.624 138.443 43.224C137.291 42.776 136.371 42.328 135.683 41.88C134.995 41.416 134.499 40.896 134.195 40.32C133.907 39.728 133.763 39.032 133.763 38.232C133.763 37.432 133.979 36.712 134.411 36.072C134.859 35.416 135.507 34.896 136.355 34.512C137.219 34.112 138.259 33.912 139.475 33.912C140.467 33.912 141.355 34.016 142.139 34.224C142.939 34.416 143.715 34.696 144.467 35.064L143.627 37.008C143.083 36.688 142.443 36.424 141.707 36.216C140.987 35.992 140.227 35.88 139.427 35.88C138.371 35.88 137.539 36.088 136.931 36.504C136.323 36.92 136.019 37.456 136.019 38.112C136.019 38.528 136.107 38.896 136.283 39.216C136.459 39.536 136.803 39.848 137.315 40.152C137.843 40.456 138.627 40.8 139.667 41.184C140.915 41.648 141.899 42.136 142.619 42.648C143.355 43.16 143.875 43.72 144.179 44.328C144.483 44.92 144.635 45.6 144.635 46.368C144.635 47.408 144.371 48.296 143.843 49.032C143.331 49.768 142.611 50.328 141.683 50.712C140.771 51.096 139.723 51.288 138.539 51.288ZM152.132 51.288C150.932 51.288 149.98 50.896 149.276 50.112C148.588 49.312 148.244 48.176 148.244 46.704V40.848H146.084V38.976H148.292L148.748 35.04H150.404V38.976H153.86V40.848H150.404V46.872C150.404 47.8 150.596 48.448 150.98 48.816C151.38 49.184 151.852 49.368 152.396 49.368C152.796 49.368 153.172 49.304 153.524 49.176C153.892 49.048 154.228 48.896 154.532 48.72L155.132 50.448C154.812 50.64 154.38 50.824 153.836 51C153.292 51.192 152.724 51.288 152.132 51.288ZM162.09 51.288C160.906 51.288 159.842 51.016 158.898 50.472C157.954 49.912 157.21 49.144 156.666 48.168C156.138 47.176 155.874 46.04 155.874 44.76C155.874 43.416 156.146 42.256 156.69 41.28C157.234 40.304 157.978 39.552 158.922 39.024C159.866 38.496 160.922 38.232 162.09 38.232C163.258 38.232 164.306 38.496 165.234 39.024C166.178 39.552 166.922 40.304 167.466 41.28C168.026 42.24 168.306 43.384 168.306 44.712C168.306 46.04 168.034 47.2 167.49 48.192C166.946 49.168 166.202 49.928 165.258 50.472C164.33 51.016 163.274 51.288 162.09 51.288ZM162.09 49.368C163.354 49.368 164.338 48.944 165.042 48.096C165.746 47.232 166.098 46.12 166.098 44.76C166.098 43.928 165.922 43.168 165.57 42.48C165.218 41.776 164.738 41.216 164.13 40.8C163.538 40.368 162.858 40.152 162.09 40.152C160.826 40.152 159.842 40.568 159.138 41.4C158.434 42.232 158.082 43.336 158.082 44.712C158.082 45.544 158.258 46.32 158.61 47.04C158.962 47.744 159.434 48.312 160.026 48.744C160.634 49.16 161.322 49.368 162.09 49.368ZM171.178 51V38.52H173.266V41.232C173.474 40.704 173.754 40.216 174.106 39.768C174.458 39.304 174.898 38.936 175.426 38.664C175.954 38.376 176.57 38.232 177.274 38.232C177.514 38.232 177.754 38.248 177.994 38.28C178.234 38.296 178.434 38.328 178.594 38.376L177.946 40.608C177.642 40.48 177.282 40.416 176.866 40.416C176.274 40.416 175.706 40.584 175.162 40.92C174.634 41.256 174.194 41.776 173.842 42.48C173.506 43.184 173.338 44.08 173.338 45.168V51H171.178ZM185.029 51.288C183.237 51.288 181.813 50.72 180.757 49.584C179.717 48.432 179.197 46.824 179.197 44.76C179.197 43.512 179.429 42.4 179.893 41.424C180.373 40.432 181.037 39.656 181.885 39.096C182.733 38.52 183.717 38.232 184.837 38.232C186.037 38.232 187.029 38.496 187.813 39.024C188.613 39.536 189.213 40.232 189.613 41.112C190.013 41.992 190.213 42.96 190.213 44.016C190.213 44.576 190.189 45.12 190.141 45.648H181.405C181.549 46.816 181.957 47.728 182.629 48.384C183.301 49.04 184.189 49.368 185.293 49.368C186.013 49.368 186.661 49.296 187.237 49.152C187.813 48.992 188.365 48.792 188.893 48.552L189.397 50.4C188.821 50.656 188.173 50.864 187.453 51.024C186.733 51.2 185.925 51.288 185.029 51.288ZM181.381 43.896H188.221C188.221 42.68 187.917 41.744 187.309 41.088C186.701 40.432 185.861 40.104 184.789 40.104C183.861 40.104 183.093 40.432 182.485 41.088C181.877 41.728 181.509 42.664 181.381 43.896Z" fill="white"/>
<rect x="1" y="1" width="222.007" height="68" rx="34" stroke="white" stroke-width="2"/>
</svg>
