<svg width="222" height="212" viewBox="0 0 222 212" fill="none" xmlns="http://www.w3.org/2000/svg">
<g clip-path="url(#clip0_207_2198)">
<path d="M210.229 53.7727C204.127 45.9283 195.687 41.6064 186.478 41.6064C185.031 41.6083 183.587 41.7116 182.156 41.9156C171.083 43.5147 164.197 49.4583 159.814 54.8588C157.438 51.8417 154.436 48.3043 150.492 44.2086C146.977 35.2027 139.615 21.7618 125.05 12.5296C112.846 4.78331 103.049 1.01953 95.0835 1.01953C84.3051 1.01953 77.9015 7.72494 76.0912 14.7019C51.9548 17.2437 34.7124 30.0586 30.0284 41.629C29.2446 43.5482 28.8079 45.5913 28.7386 47.6631C25.1991 49.5723 21.8697 51.8475 18.805 54.4515C-1.68834 71.8674 -0.866193 85.0519 1.45694 91.3576C2.31966 93.7382 3.67727 95.9089 5.44025 97.7265C7.20323 99.5441 9.33152 100.967 11.6847 101.902C10.8557 105.041 10.221 108.227 9.78402 111.444C7.83048 125.352 9.78403 135.769 15.5391 142.368C18.523 145.916 22.7416 148.199 27.3432 148.757V148.87C28.535 156.284 29.7493 161.572 31.1598 165.502C35.527 177.668 43.7786 179.493 48.3193 179.493C52.3018 179.493 59.7011 178.022 64.5359 168.217C65.4815 166.501 66.5823 164.875 67.8245 163.359C99.7524 202.234 155.319 211.104 168.692 211.104C193.741 211.104 203.946 189.004 215.004 145.483C225.45 104.527 223.7 71.1056 210.229 53.7727Z" fill="#1D1D1B"/>
<path d="M184.284 56.8499C168.384 59.1127 168.165 76.0534 161.181 76.0534C154.197 76.0534 153.246 68.5108 138.621 53.6594C138.229 53.2596 137.867 52.9051 137.422 52.4978C113.217 29.8322 62.3575 37.6615 60.7283 96.5769C60.2079 115.388 64.7033 130.775 72.1478 143.341C97.5061 186.146 157.07 196.026 168.693 196.026C180.317 196.026 188.493 188.567 200.372 141.772C214.206 87.571 203.45 54.0818 184.284 56.8499ZM184.473 143.862C174.75 168.345 168.633 180.217 154.642 175.541C140.65 170.864 81.4781 149.443 80.5428 100.507C79.7282 57.9511 120.157 56.8348 147.189 86.0625C155.29 94.827 161.023 98.5908 167.23 92.0966C172.819 86.2661 179.645 73.2023 186.17 81.1296C192.694 89.0569 196.443 113.782 184.495 143.862H184.473Z" fill="#EF112C" stroke="#1D1D1B" stroke-width="3.77131" stroke-linecap="round" stroke-linejoin="round"/>
<path d="M137.444 52.4997C113.239 29.8341 62.3795 37.6634 60.7503 96.5788C60.2299 115.39 64.7253 130.777 72.1699 143.343C63.5637 142.023 53.1624 157.222 51.0505 161.566C48.3955 166.952 45.4388 166.092 42.2784 146.481C39.1181 126.87 49.6476 118.068 44.7373 118.415C39.8271 118.762 33.5139 126.84 31.7565 131.75C29.9991 136.66 21.951 133.5 24.7418 113.512C27.5326 93.5241 35.6183 89.3077 41.9315 83.696C48.2447 78.0843 30.0066 84.3975 21.5664 87.5579C13.1262 90.7182 11.3989 80.5432 28.581 65.9482C45.7631 51.3532 64.0314 58.0888 60.4939 53.6688C56.9564 49.2489 41.9164 52.4771 44.0208 47.2727C46.1252 42.0683 58.0501 31.4332 78.7169 29.5928C99.3836 27.7524 104.362 33.8921 102.567 29.5928C100.771 25.2935 89.9403 22.3141 90.6417 18.6258C91.3432 14.9375 99.0593 13.8966 116.95 25.2558C129.697 33.3339 135.256 45.915 137.444 52.4997Z" fill="#4DB242" stroke="#1D1D1B" stroke-width="3.77131" stroke-linecap="round" stroke-linejoin="round"/>
<path d="M186.194 81.1677C179.669 73.2404 172.843 86.3042 167.254 92.1347C161.047 98.6062 155.314 94.8425 147.213 86.1006C120.181 56.8729 79.7522 57.9892 80.5668 100.545C81.5021 149.481 140.689 170.917 154.666 175.579C168.642 180.24 174.774 168.368 184.497 143.9C196.444 113.782 192.718 89.0799 186.194 81.1677ZM162.955 150.175C162.955 150.175 118.174 137.828 110.911 103.833C107.894 89.6305 112.925 85.6103 120.95 87.6242C129.526 89.7738 142.069 101.752 150.676 109.679C160.707 118.911 162.208 116.279 167.805 110.599C174.246 104.06 178.365 99.5868 179.119 105.048C181.465 121.31 162.955 150.175 162.955 150.175Z" fill="#FFC200" stroke="#1D1D1B" stroke-width="3.77131" stroke-linecap="round" stroke-linejoin="round"/>
<path d="M162.952 150.175C162.952 150.175 118.172 137.828 110.908 103.833C107.891 89.6303 112.922 85.6101 120.948 87.624C129.524 89.7737 142.067 101.751 150.673 109.679C160.705 118.911 162.206 116.278 167.802 110.599C174.244 104.059 178.362 99.5866 179.116 105.047C181.462 121.309 162.952 150.175 162.952 150.175Z" fill="#5CC9FF" stroke="#1D1D1B" stroke-width="3.77131" stroke-linecap="round" stroke-linejoin="round"/>
</g>
<defs>
<clipPath id="clip0_207_2198">
<rect width="221.467" height="210.107" fill="white" transform="translate(0.296875 0.998047)"/>
</clipPath>
</defs>
</svg>
