<svg width="309" height="326" viewBox="0 0 309 326" fill="none" xmlns="http://www.w3.org/2000/svg">
<g clip-path="url(#clip0_207_2165)">
<path d="M195.918 267.034C199.204 256.517 197.056 244.704 189.567 231.935C187.392 228.231 186.315 225.21 186.604 223.639C186.893 222.068 188.863 219.169 190.985 216.217C191.903 214.912 192.855 213.559 193.849 212.084C194.434 211.254 196.609 208.881 198.368 206.987C205.965 198.714 218.742 184.948 224.593 167.204C229.81 151.409 231.111 127.233 207.73 101.656C212.021 95.7051 215.094 88.9645 216.771 81.8218C218.448 74.6792 218.697 67.2755 217.503 60.0364C217.163 57.963 216.634 55.9248 215.924 53.9473C212.56 44.4816 205.883 38.3361 200.887 34.8199C196.253 31.5584 187.24 26.4751 178.855 29.0733C176.797 29.6949 174.89 30.7353 173.254 32.1292C171.618 33.5231 170.288 35.2403 169.348 37.1729C167.622 40.7432 167.241 44.8158 168.275 48.6442C167.358 49.3035 166.399 49.9858 165.569 50.5727C163.333 52.1488 160.801 53.9428 158.113 55.9724C152.691 59.9417 148.778 65.6345 147.015 72.1182C116.361 71.3855 89.3597 88.6974 77.6982 104.624C55.4979 134.906 46.7122 165.038 51.4748 194.112C56.0731 222.121 73.7446 248.196 101.141 267.487C106.446 271.242 111.992 274.645 117.743 277.671L117.187 280.882C116.486 284.903 116.837 289.037 118.206 292.882C119.574 296.728 121.913 300.154 124.996 302.828C125.664 303.405 126.363 303.95 127.069 304.447C130.805 307.112 135.225 308.653 139.808 308.888C145.294 309.114 150.685 307.407 155.042 304.066C159.4 300.725 162.446 295.961 163.651 290.604C168.163 290.536 172.616 289.564 176.746 287.745C189.02 282.054 193.939 273.351 195.918 267.034Z" fill="black"/>
<path d="M159.327 123.429C157.274 124.828 154.855 125.592 152.37 125.624C149.886 125.657 147.448 124.956 145.359 123.61C143.271 122.265 141.626 120.333 140.629 118.058C139.632 115.782 139.328 113.263 139.754 110.816C140.181 108.368 141.319 106.101 143.027 104.297C144.735 102.493 146.937 101.232 149.357 100.672C151.777 100.112 154.309 100.277 156.636 101.148C158.963 102.019 160.981 103.556 162.439 105.567L159.327 123.429Z" fill="#3980FF" stroke="black" stroke-width="3.62788" stroke-linecap="round" stroke-linejoin="round"/>
<path d="M199.589 146.291C198.65 147.627 197.457 148.764 196.078 149.639C194.699 150.514 193.162 151.108 191.553 151.388C189.944 151.668 188.296 151.629 186.703 151.272C185.11 150.915 183.602 150.247 182.267 149.307C181.812 148.985 181.378 148.632 180.969 148.252L185.717 127.273C188.196 126.498 190.855 126.519 193.321 127.333C195.787 128.147 197.937 129.713 199.467 131.812C200.998 133.91 201.832 136.435 201.854 139.032C201.876 141.629 201.084 144.167 199.589 146.291Z" fill="#BE22FF" stroke="black" stroke-width="3.62788" stroke-linecap="round" stroke-linejoin="round"/>
<path d="M136.435 254.921C127.451 249.796 122.74 241.059 125.822 234.701C128.116 229.954 134.14 227.788 141.024 228.596L136.435 254.921Z" stroke="black" stroke-width="3.62788" stroke-linecap="round" stroke-linejoin="round"/>
<path d="M177.023 239.291C166.605 221.569 174.472 214.942 181.724 204.057C188.977 193.173 238.2 156.454 196.91 111.405C194.854 109.166 192.775 107.111 190.672 105.24L185.683 127.318C187.7 126.69 189.843 126.585 191.911 127.015C193.979 127.445 195.903 128.394 197.502 129.774C199.101 131.154 200.322 132.919 201.05 134.902C201.778 136.884 201.988 139.02 201.661 141.107C201.335 143.193 200.482 145.162 199.183 146.828C197.884 148.493 196.182 149.8 194.238 150.625C192.293 151.451 190.171 151.767 188.071 151.544C185.97 151.321 183.962 150.567 182.234 149.352C181.778 149.029 181.345 148.677 180.936 148.297L160.328 239.501C163.504 243.813 164.558 248.619 162.656 252.506C161.992 253.788 161.077 254.923 159.965 255.843C158.852 256.763 157.565 257.449 156.182 257.86C151.284 259.524 144.645 258.959 138.277 255.906C137.617 255.583 137.021 255.27 136.425 254.931C127.442 249.806 122.731 241.069 125.813 234.711C128.107 229.964 134.13 227.798 141.014 228.606L159.329 123.427C157.276 124.826 154.856 125.59 152.372 125.622C149.888 125.655 147.45 124.954 145.361 123.609C143.273 122.263 141.628 120.331 140.631 118.056C139.634 115.78 139.33 113.261 139.756 110.814C140.183 108.366 141.321 106.099 143.029 104.295C144.737 102.491 146.938 101.23 149.359 100.67C151.779 100.11 154.311 100.275 156.638 101.146C158.965 102.017 160.983 103.554 162.441 105.565L165.165 89.8964C132.549 78.9906 100.788 97.708 89.4077 113.247C30.9474 193.107 88.9521 250.311 133.931 269.279C139.831 271.835 145.976 273.782 152.272 275.089C160.055 276.637 166.519 276.492 170.631 274.595C183.307 268.699 187.3 256.773 177.023 239.291ZM95.5581 124.452C96.9498 122.474 98.8966 120.954 101.152 120.083C103.408 119.212 105.872 119.03 108.231 119.559C110.59 120.088 112.74 121.305 114.408 123.055C116.076 124.806 117.187 127.012 117.601 129.395C118.015 131.777 117.714 134.228 116.735 136.439C115.755 138.65 114.143 140.521 112.1 141.816C110.058 143.11 107.677 143.769 105.26 143.711C102.842 143.652 100.497 142.878 98.5194 141.486C95.8677 139.62 94.0661 136.777 93.5107 133.582C92.9554 130.388 93.6918 127.103 95.5581 124.452ZM84.1825 180.187C82.2041 178.798 80.6822 176.853 79.8091 174.599C78.9361 172.345 78.7513 169.883 79.2781 167.524C79.8049 165.165 81.0196 163.015 82.7685 161.346C84.5174 159.677 86.722 158.565 89.1033 158.15C91.4846 157.734 93.9355 158.034 96.1462 159.012C98.3568 159.99 100.228 161.602 101.522 163.643C102.817 165.685 103.477 168.064 103.418 170.481C103.36 172.897 102.586 175.242 101.195 177.219C99.3315 179.867 96.4929 181.667 93.303 182.223C90.1131 182.78 86.8327 182.047 84.1825 180.187ZM92.0664 220.445C90.271 219.184 88.8901 217.418 88.0985 215.371C87.3069 213.324 87.1401 211.089 87.6192 208.947C88.0983 206.805 89.2018 204.854 90.79 203.34C92.3783 201.825 94.38 200.816 96.542 200.439C98.704 200.063 100.929 200.336 102.936 201.224C104.942 202.112 106.641 203.576 107.816 205.429C108.991 207.283 109.589 209.443 109.536 211.637C109.484 213.831 108.781 215.96 107.518 217.754C106.68 218.946 105.616 219.961 104.386 220.741C103.156 221.521 101.785 222.051 100.35 222.301C98.9149 222.551 97.4448 222.516 96.0234 222.198C94.6021 221.879 93.2575 221.284 92.0664 220.445Z" fill="#FCBA4F" stroke="black" stroke-width="3.62788" stroke-linecap="round" stroke-linejoin="round"/>
<path d="M107.494 217.739C106.231 219.536 104.464 220.917 102.415 221.709C100.367 222.5 98.1294 222.666 95.9867 222.184C93.844 221.703 91.8924 220.597 90.3789 219.006C88.8654 217.414 87.8583 215.41 87.485 213.246C87.1117 211.082 87.3891 208.855 88.282 206.849C89.1749 204.843 90.6432 203.147 92.5008 201.975C94.3585 200.804 96.522 200.211 98.7172 200.27C100.912 200.329 103.041 201.039 104.832 202.308C107.228 204.004 108.854 206.581 109.353 209.474C109.852 212.366 109.184 215.339 107.494 217.739Z" fill="#FF5C5C" stroke="black" stroke-width="3.62788" stroke-linecap="round" stroke-linejoin="round"/>
<path d="M88.5427 182.121C95.1274 183.598 101.662 179.457 103.139 172.872C104.615 166.287 100.474 159.752 93.8895 158.276C87.3048 156.799 80.7699 160.94 79.2934 167.525C77.817 174.11 81.958 180.645 88.5427 182.121Z" fill="#5CC9FF" stroke="black" stroke-width="3.62788" stroke-linecap="round" stroke-linejoin="round"/>
<path d="M115.547 138.521C114.157 140.5 112.21 142.022 109.954 142.894C107.698 143.766 105.234 143.95 102.874 143.421C100.514 142.893 98.3632 141.676 96.6946 139.925C95.026 138.174 93.9143 135.968 93.5 133.585C93.0858 131.202 93.3876 128.749 94.3674 126.538C95.3472 124.327 96.9608 122.456 99.0043 121.162C101.048 119.868 103.429 119.209 105.847 119.268C108.265 119.328 110.611 120.104 112.588 121.497C115.236 123.363 117.036 126.205 117.591 129.397C118.146 132.589 117.411 135.871 115.547 138.521Z" fill="#1BAA63" stroke="black" stroke-width="3.62788" stroke-linecap="round" stroke-linejoin="round"/>
<path d="M156.18 257.86L160.334 239.489C163.51 243.801 164.564 248.607 162.662 252.494C161.999 253.779 161.083 254.917 159.969 255.839C158.855 256.761 157.566 257.448 156.18 257.86V257.86Z" stroke="black" stroke-width="3.62788" stroke-linecap="round" stroke-linejoin="round"/>
<path d="M156.18 257.861C151.283 259.525 144.644 258.96 138.275 255.907C137.615 255.584 137.019 255.271 136.424 254.932L141.007 228.603L159.327 123.428L162.44 105.566L165.163 89.8974L165.205 89.8381L165.685 86.8488C165.685 86.8488 183.592 77.4659 193.245 93.8685L192.379 97.6955L190.673 105.225L185.684 127.303L180.959 148.262L160.326 239.502L156.18 257.861Z" fill="#EF112C" stroke="black" stroke-width="3.62788" stroke-linecap="round" stroke-linejoin="round"/>
<path d="M140.48 294.386C138.241 294.238 136.118 293.335 134.458 291.824C133.272 290.794 132.374 289.474 131.852 287.993C131.33 286.512 131.201 284.921 131.479 283.375L133.929 269.279C139.829 271.835 145.974 273.782 152.269 275.089L149.519 287.279C149.076 289.331 147.931 291.164 146.281 292.462C144.631 293.759 142.579 294.44 140.48 294.386Z" fill="#EF112C" stroke="black" stroke-width="3.62788" stroke-linecap="round" stroke-linejoin="round"/>
<path d="M192.394 97.6891L193.26 93.8621C183.599 77.4714 165.686 86.8501 165.686 86.8501L165.176 89.8186C163.772 88.434 162.651 86.7893 161.876 84.9763C160.729 80.1764 163.696 70.9694 175.833 72.4578C187.97 73.9463 197.987 74.741 202.262 58.922C202.675 60.0636 202.981 61.2413 203.176 62.4398C205.326 75.6473 201.116 87.919 192.394 97.6891Z" fill="white" stroke="black" stroke-width="3.62788" stroke-linecap="round" stroke-linejoin="round"/>
<path d="M175.828 72.4435C163.67 70.9847 160.724 80.1621 161.871 84.962C159.572 79.5552 160.264 72.5714 166.855 67.5927C175.717 60.902 183.22 56.6711 184.237 53.2082C185.255 49.7454 180.281 43.8402 183.172 42.947C185.79 42.1275 198.359 47.9307 202.273 58.8839C197.992 74.7249 188.003 73.941 175.828 72.4435Z" fill="#3980FF" stroke="black" stroke-width="3.62788" stroke-linecap="round" stroke-linejoin="round"/>
<path d="M145.101 273.301C142.564 275.179 136.492 279.406 131.989 280.46L133.93 269.28C137.575 270.831 141.305 272.173 145.101 273.301Z" fill="black"/>
</g>
<defs>
<clipPath id="clip0_207_2165">
<rect width="191.654" height="262.92" fill="white" transform="translate(151.324) rotate(35.1382)"/>
</clipPath>
</defs>
</svg>
