<svg width="189" height="60" viewBox="0 0 189 60" fill="none" xmlns="http://www.w3.org/2000/svg">
<rect width="189" height="60" rx="30" fill="#EEEBF4"/>
<path d="M32.8528 29.4557L37.0419 25.2667L23.5113 17.662C22.6146 17.1775 21.7745 17.1095 21.0378 17.6393L32.8528 29.4557ZM37.7559 34.3602L42.1107 31.9108C42.9607 31.4348 43.4268 30.7605 43.4268 30.0125C43.4268 29.2659 42.9607 28.5902 42.1121 28.1142L38.1696 25.8999L33.7311 30.3369L37.7559 34.3602V34.3602ZM20.3096 18.6692C20.219 18.9483 20.168 19.26 20.168 19.6014V40.4335C20.168 40.9732 20.287 41.4379 20.5023 41.8077L31.9731 30.3355L20.3096 18.6692ZM32.8528 31.2138L21.4458 42.6222C21.664 42.7058 21.8991 42.7497 22.1471 42.7497C22.5891 42.7497 23.0495 42.6194 23.5184 42.3587L36.6296 34.9963L32.8528 31.2138V31.2138Z" fill="#6738DA"/>
<path d="M59.892 38H62.892V31.544H67.332C70.668 31.544 72.66 29.408 72.66 26.36C72.66 23.336 70.644 21.2 67.332 21.2H59.892V38ZM62.892 28.664V24.08H67.14C68.748 24.08 69.66 24.92 69.66 26.36C69.66 27.824 68.772 28.664 67.14 28.664H62.892ZM74.4902 38H77.4902V21.2H74.4902V38ZM84.0791 30.848C81.1031 31.352 79.6151 32.576 79.6151 34.88C79.6151 36.608 80.9831 38.36 83.5751 38.36C84.9911 38.36 86.0711 37.64 86.5751 36.752V38H89.3591V30.176C89.3591 27.608 87.6071 25.976 84.4391 25.976C81.7271 25.976 79.4951 27.584 79.6391 30.488L82.3991 30.704C82.3031 29.336 83.0951 28.472 84.5111 28.472C85.7831 28.472 86.5511 29.168 86.5511 30.056V30.416L84.0791 30.848ZM84.1511 35.696C83.1191 35.696 82.4471 35.24 82.4471 34.496C82.4471 33.656 83.2151 33.272 84.4871 33.056L86.5511 32.696V33.128C86.5511 34.664 85.5671 35.696 84.1511 35.696ZM91.1379 38.84C90.9939 41.84 93.2739 43.76 96.4899 43.76C100.018 43.76 102.418 41.192 102.418 37.736V26.336H99.4179V32.096C99.4179 33.992 98.4579 35.12 96.9459 35.12C95.5299 35.12 94.8339 34.304 94.8339 32.648V26.336H91.8339L91.8819 33.224C91.8819 36.032 93.3939 37.808 95.9619 37.808C97.4259 37.808 98.5779 37.304 99.4179 36.296V37.856C99.4179 39.872 98.2419 41.12 96.4899 41.12C94.9539 41.12 93.8979 40.16 93.9699 38.456L91.1379 38.84ZM109.7 32.48C110.036 34.304 110.852 35.744 112.124 36.8C113.396 37.832 115.004 38.36 116.9 38.36C120.812 38.36 123.452 36.104 123.452 32.864C123.452 29.768 121.22 28.112 116.9 27.656C114.524 27.44 113.66 26.792 113.66 25.568C113.66 24.488 114.86 23.72 116.66 23.72C118.316 23.72 119.636 24.92 120.092 26.744L122.948 25.592C122.612 24.152 121.868 23 120.716 22.136C119.588 21.272 118.22 20.84 116.66 20.84C113.204 20.84 110.636 22.808 110.636 25.52C110.636 28.544 112.604 30.248 116.516 30.632C119.204 30.92 120.428 31.688 120.428 32.936C120.428 34.472 119.108 35.48 116.9 35.48C114.62 35.48 113.012 34.064 112.508 31.472L109.7 32.48ZM124.368 28.928H126.288V33.848C126.288 36.632 128.04 38.36 131.016 38.36C133.56 38.36 135.456 36.512 135.312 33.68L132.456 33.392C132.576 34.832 131.952 35.648 130.896 35.648C129.912 35.648 129.288 35.048 129.288 33.968V28.928H134.832V26.336H129.288V22.976H126.288V26.336H124.368V28.928ZM142.425 25.976C138.825 25.976 136.329 28.688 136.329 32.192C136.329 35.648 138.825 38.36 142.425 38.36C146.001 38.36 148.497 35.648 148.497 32.192C148.497 28.688 146.001 25.976 142.425 25.976ZM142.425 35.48C140.625 35.48 139.329 34.088 139.329 32.192C139.329 30.272 140.625 28.856 142.425 28.856C143.313 28.856 144.033 29.168 144.609 29.816C145.209 30.464 145.497 31.256 145.497 32.192C145.497 33.128 145.209 33.92 144.609 34.544C144.033 35.168 143.313 35.48 142.425 35.48ZM150.451 38H153.451V31.664C153.451 29.72 154.243 28.712 155.395 28.712C156.427 28.712 156.931 29.384 156.931 30.728C156.931 30.944 156.931 31.112 156.907 31.232L159.883 30.752C159.907 27.464 158.635 25.952 156.427 25.952C155.155 25.952 154.171 26.432 153.451 27.368V26.336H150.451V38ZM166.793 25.976C163.337 25.976 160.985 28.664 160.985 32.192C160.985 35.72 163.385 38.36 166.913 38.36C168.305 38.36 169.505 37.976 170.537 37.184C171.569 36.392 172.169 35.36 172.385 34.088L169.649 33.584C169.433 34.856 168.329 35.72 166.961 35.72C165.329 35.72 164.129 34.712 163.817 32.984H172.097V31.64C172.097 28.328 170.009 25.976 166.793 25.976ZM163.913 30.68C164.321 29.336 165.377 28.52 166.793 28.52C168.305 28.52 169.385 29.456 169.457 30.68H163.913Z" fill="#6738DA"/>
</svg>
