<svg width="213" height="70" viewBox="0 0 213 70" fill="none" xmlns="http://www.w3.org/2000/svg">
<path d="M46.996 34.2002L53.1564 28.0398L33.2585 16.8565C31.9397 16.144 30.7043 16.044 29.621 16.8231L46.996 34.2002ZM54.2064 41.4127L60.6105 37.8106C61.8605 37.1106 62.546 36.119 62.546 35.019C62.546 33.921 61.8605 32.9273 60.6126 32.2273L54.8147 28.971L48.2876 35.496L54.2064 41.4127ZM28.5501 18.3377C28.4168 18.7481 28.3418 19.2065 28.3418 19.7085V50.3439C28.3418 51.1377 28.5168 51.821 28.8335 52.3648L45.7022 35.494L28.5501 18.3377ZM46.996 36.7856L30.221 53.5627C30.5418 53.6856 30.8876 53.7502 31.2522 53.7502C31.9022 53.7502 32.5793 53.5585 33.2689 53.1752L52.5501 42.3481L46.996 36.7856Z" fill="#F5F5F5"/>
<path d="M88.5836 22.5H87.4196L87.3116 21.42C87.1036 21.772 86.7756 22.072 86.3276 22.32C85.8796 22.56 85.3396 22.68 84.7076 22.68C83.5476 22.68 82.5596 22.28 81.7436 21.48C80.9276 20.672 80.5196 19.592 80.5196 18.24C80.5196 17.344 80.7236 16.552 81.1316 15.864C81.5476 15.176 82.0756 14.664 82.7156 14.328C83.3556 13.984 84.0516 13.812 84.8036 13.812C85.7876 13.812 86.6116 14.056 87.2756 14.544C87.9476 15.032 88.4036 15.652 88.6436 16.404L87.2876 16.92C87.1356 16.408 86.8436 15.984 86.4116 15.648C85.9796 15.312 85.4436 15.144 84.8036 15.144C84.0436 15.144 83.3836 15.412 82.8236 15.948C82.2636 16.484 81.9836 17.248 81.9836 18.24C81.9836 19.224 82.2556 19.992 82.7996 20.544C83.3436 21.088 84.0076 21.36 84.7916 21.36C85.5596 21.36 86.1436 21.16 86.5436 20.76C86.9516 20.352 87.1796 19.916 87.2276 19.452H84.4196V18.192H88.5836V22.5ZM91.1806 18.936H94.0486C94.0326 18.568 93.9006 18.26 93.6526 18.012C93.4126 17.764 93.0646 17.64 92.6086 17.64C92.1926 17.64 91.8566 17.772 91.6006 18.036C91.3446 18.292 91.2046 18.592 91.1806 18.936ZM94.2046 20.46L95.3806 20.832C95.2126 21.368 94.8966 21.812 94.4326 22.164C93.9766 22.508 93.4126 22.68 92.7406 22.68C91.9086 22.68 91.2006 22.396 90.6166 21.828C90.0406 21.26 89.7526 20.5 89.7526 19.548C89.7526 18.652 90.0326 17.916 90.5926 17.34C91.1606 16.764 91.8286 16.476 92.5966 16.476C93.4926 16.476 94.1926 16.752 94.6966 17.304C95.2006 17.848 95.4526 18.584 95.4526 19.512C95.4526 19.76 95.4406 19.908 95.4166 19.956H91.1446C91.1606 20.396 91.3206 20.76 91.6246 21.048C91.9366 21.336 92.3086 21.48 92.7406 21.48C93.4926 21.48 93.9806 21.14 94.2046 20.46ZM98.5468 14.868V16.656H99.7588V17.892H98.5468V20.604C98.5468 20.86 98.6068 21.048 98.7268 21.168C98.8468 21.28 99.0348 21.336 99.2908 21.336C99.4508 21.336 99.6108 21.32 99.7708 21.288V22.44C99.5628 22.528 99.2788 22.572 98.9188 22.572C98.3748 22.572 97.9468 22.42 97.6348 22.116C97.3228 21.804 97.1668 21.376 97.1668 20.832V17.892H96.0868V16.656H96.3868C96.6828 16.656 96.9068 16.572 97.0588 16.404C97.2108 16.236 97.2868 16.016 97.2868 15.744V14.868H98.5468ZM105.522 22.5H104.142V16.656H105.522V22.5ZM104.19 15.24C104.014 15.064 103.926 14.852 103.926 14.604C103.926 14.356 104.014 14.144 104.19 13.968C104.366 13.784 104.578 13.692 104.826 13.692C105.082 13.692 105.298 13.78 105.474 13.956C105.65 14.132 105.738 14.348 105.738 14.604C105.738 14.852 105.65 15.064 105.474 15.24C105.298 15.416 105.082 15.504 104.826 15.504C104.578 15.504 104.366 15.416 104.19 15.24ZM109.082 14.868V16.656H110.294V17.892H109.082V20.604C109.082 20.86 109.142 21.048 109.262 21.168C109.382 21.28 109.57 21.336 109.826 21.336C109.986 21.336 110.146 21.32 110.306 21.288V22.44C110.098 22.528 109.814 22.572 109.454 22.572C108.91 22.572 108.482 22.42 108.17 22.116C107.858 21.804 107.702 21.376 107.702 20.832V17.892H106.622V16.656H106.922C107.218 16.656 107.442 16.572 107.594 16.404C107.746 16.236 107.822 16.016 107.822 15.744V14.868H109.082ZM116.081 20.94C116.401 21.268 116.789 21.432 117.245 21.432C117.701 21.432 118.085 21.268 118.397 20.94C118.717 20.612 118.877 20.156 118.877 19.572C118.877 18.996 118.717 18.548 118.397 18.228C118.085 17.9 117.701 17.736 117.245 17.736C116.789 17.736 116.401 17.9 116.081 18.228C115.769 18.548 115.613 18.996 115.613 19.572C115.613 20.148 115.769 20.604 116.081 20.94ZM117.245 16.476C118.125 16.476 118.849 16.768 119.417 17.352C119.993 17.936 120.281 18.676 120.281 19.572C120.281 20.468 119.993 21.212 119.417 21.804C118.849 22.388 118.125 22.68 117.245 22.68C116.373 22.68 115.649 22.388 115.073 21.804C114.505 21.212 114.221 20.468 114.221 19.572C114.221 18.676 114.505 17.936 115.073 17.352C115.649 16.768 116.373 16.476 117.245 16.476ZM123.019 19.128V22.5H121.627V16.656H122.983V17.436C123.167 17.116 123.411 16.88 123.715 16.728C124.027 16.568 124.359 16.488 124.711 16.488C125.399 16.488 125.923 16.704 126.283 17.136C126.643 17.568 126.823 18.124 126.823 18.804V22.5H125.431V19.044C125.431 18.652 125.335 18.34 125.143 18.108C124.951 17.868 124.647 17.748 124.231 17.748C123.847 17.748 123.547 17.88 123.331 18.144C123.123 18.4 123.019 18.728 123.019 19.128ZM133.258 14.868V16.656H134.47V17.892H133.258V20.604C133.258 20.86 133.318 21.048 133.438 21.168C133.558 21.28 133.746 21.336 134.002 21.336C134.162 21.336 134.322 21.32 134.482 21.288V22.44C134.274 22.528 133.99 22.572 133.63 22.572C133.086 22.572 132.658 22.42 132.346 22.116C132.034 21.804 131.878 21.376 131.878 20.832V17.892H130.798V16.656H131.098C131.394 16.656 131.618 16.572 131.77 16.404C131.922 16.236 131.998 16.016 131.998 15.744V14.868H133.258ZM137.128 19.068V22.5H135.736V13.812H137.128V17.22C137.504 16.732 138.06 16.488 138.796 16.488C139.484 16.488 140.012 16.704 140.38 17.136C140.748 17.568 140.932 18.124 140.932 18.804V22.5H139.54V19.044C139.54 18.652 139.444 18.34 139.252 18.108C139.06 17.868 138.756 17.748 138.34 17.748C137.972 17.748 137.68 17.872 137.464 18.12C137.256 18.368 137.144 18.684 137.128 19.068ZM143.599 18.936H146.467C146.451 18.568 146.319 18.26 146.071 18.012C145.831 17.764 145.483 17.64 145.027 17.64C144.611 17.64 144.275 17.772 144.019 18.036C143.763 18.292 143.623 18.592 143.599 18.936ZM146.623 20.46L147.799 20.832C147.631 21.368 147.315 21.812 146.851 22.164C146.395 22.508 145.831 22.68 145.159 22.68C144.327 22.68 143.619 22.396 143.035 21.828C142.459 21.26 142.171 20.5 142.171 19.548C142.171 18.652 142.451 17.916 143.011 17.34C143.579 16.764 144.247 16.476 145.015 16.476C145.911 16.476 146.611 16.752 147.115 17.304C147.619 17.848 147.871 18.584 147.871 19.512C147.871 19.76 147.859 19.908 147.835 19.956H143.563C143.579 20.396 143.739 20.76 144.043 21.048C144.355 21.336 144.727 21.48 145.159 21.48C145.911 21.48 146.399 21.14 146.623 20.46ZM84.9356 43.308H87.9356C88.8476 43.308 89.5596 43.076 90.0716 42.612C90.5996 42.132 90.8636 41.492 90.8636 40.692C90.8636 39.876 90.5996 39.228 90.0716 38.748C89.5596 38.268 88.8476 38.028 87.9356 38.028H84.9356V43.308ZM88.3676 45.852H84.9356V52.5H82.0556V35.484H88.3676C89.9836 35.484 91.2876 35.972 92.2796 36.948C93.2876 37.924 93.7916 39.164 93.7916 40.668C93.7916 42.188 93.2876 43.436 92.2796 44.412C91.2876 45.372 89.9836 45.852 88.3676 45.852ZM98.8496 52.5H96.0656V35.124H98.8496V52.5ZM101.674 49.332C101.674 48.34 101.994 47.548 102.634 46.956C103.29 46.348 104.146 45.964 105.202 45.804L108.202 45.348C108.778 45.268 109.066 44.988 109.066 44.508C109.066 43.98 108.882 43.556 108.514 43.236C108.146 42.9 107.594 42.732 106.858 42.732C106.154 42.732 105.594 42.932 105.178 43.332C104.762 43.716 104.522 44.22 104.458 44.844L101.914 44.268C102.026 43.212 102.53 42.316 103.426 41.58C104.322 40.828 105.458 40.452 106.834 40.452C108.53 40.452 109.778 40.86 110.578 41.676C111.394 42.492 111.802 43.54 111.802 44.82V50.628C111.802 51.396 111.85 52.02 111.946 52.5H109.354C109.274 52.26 109.234 51.764 109.234 51.012C108.466 52.244 107.266 52.86 105.634 52.86C104.45 52.86 103.49 52.516 102.754 51.828C102.034 51.124 101.674 50.292 101.674 49.332ZM106.162 50.676C107.026 50.676 107.722 50.444 108.25 49.98C108.794 49.5 109.066 48.724 109.066 47.652V47.124L106.018 47.58C104.978 47.756 104.458 48.284 104.458 49.164C104.458 49.58 104.61 49.94 104.914 50.244C105.218 50.532 105.634 50.676 106.162 50.676ZM118.438 57.228H115.462L118.27 51.108L113.278 40.812H116.422L119.782 48.204L122.926 40.812H125.878L118.438 57.228ZM145.294 39.468L142.702 40.284C142.59 39.628 142.262 39.028 141.718 38.484C141.174 37.94 140.39 37.668 139.366 37.668C138.518 37.668 137.814 37.908 137.254 38.388C136.71 38.868 136.438 39.444 136.438 40.116C136.438 41.284 137.102 42.012 138.43 42.3L140.878 42.804C142.35 43.092 143.486 43.676 144.286 44.556C145.086 45.436 145.486 46.484 145.486 47.7C145.486 49.108 144.942 50.324 143.854 51.348C142.782 52.356 141.318 52.86 139.462 52.86C137.462 52.86 135.902 52.34 134.782 51.3C133.662 50.244 133.03 49.02 132.886 47.628L135.574 46.86C135.67 47.82 136.054 48.628 136.726 49.284C137.398 49.94 138.31 50.268 139.462 50.268C140.454 50.268 141.214 50.052 141.742 49.62C142.286 49.172 142.558 48.604 142.558 47.916C142.558 47.356 142.358 46.876 141.958 46.476C141.558 46.06 140.998 45.772 140.278 45.612L137.878 45.108C136.55 44.836 135.494 44.284 134.71 43.452C133.942 42.62 133.558 41.58 133.558 40.332C133.558 38.908 134.126 37.684 135.262 36.66C136.398 35.636 137.758 35.124 139.342 35.124C141.15 35.124 142.534 35.564 143.494 36.444C144.454 37.308 145.054 38.316 145.294 39.468ZM151.719 37.236V40.812H154.143V43.284H151.719V48.708C151.719 49.22 151.839 49.596 152.079 49.836C152.319 50.06 152.695 50.172 153.207 50.172C153.527 50.172 153.847 50.14 154.167 50.076V52.38C153.751 52.556 153.183 52.644 152.463 52.644C151.375 52.644 150.519 52.34 149.895 51.732C149.271 51.108 148.959 50.252 148.959 49.164V43.284H146.799V40.812H147.399C147.991 40.812 148.439 40.644 148.743 40.308C149.047 39.972 149.199 39.532 149.199 38.988V37.236H151.719ZM159.694 49.38C160.334 50.036 161.11 50.364 162.022 50.364C162.934 50.364 163.702 50.036 164.326 49.38C164.966 48.724 165.286 47.812 165.286 46.644C165.286 45.492 164.966 44.596 164.326 43.956C163.702 43.3 162.934 42.972 162.022 42.972C161.11 42.972 160.334 43.3 159.694 43.956C159.07 44.596 158.758 45.492 158.758 46.644C158.758 47.796 159.07 48.708 159.694 49.38ZM162.022 40.452C163.782 40.452 165.23 41.036 166.366 42.204C167.518 43.372 168.094 44.852 168.094 46.644C168.094 48.436 167.518 49.924 166.366 51.108C165.23 52.276 163.782 52.86 162.022 52.86C160.278 52.86 158.83 52.276 157.678 51.108C156.542 49.924 155.974 48.436 155.974 46.644C155.974 44.852 156.542 43.372 157.678 42.204C158.83 41.036 160.278 40.452 162.022 40.452ZM177.624 40.74V43.572C177.304 43.524 177 43.5 176.712 43.5C174.616 43.5 173.568 44.644 173.568 46.932V52.5H170.784V40.812H173.496V42.684C173.768 42.06 174.208 41.572 174.816 41.22C175.424 40.852 176.112 40.668 176.88 40.668C177.136 40.668 177.384 40.692 177.624 40.74ZM181.775 45.372H187.511C187.479 44.636 187.215 44.02 186.719 43.524C186.239 43.028 185.543 42.78 184.631 42.78C183.799 42.78 183.127 43.044 182.615 43.572C182.103 44.084 181.823 44.684 181.775 45.372ZM187.823 48.42L190.175 49.164C189.839 50.236 189.207 51.124 188.279 51.828C187.367 52.516 186.239 52.86 184.895 52.86C183.231 52.86 181.815 52.292 180.647 51.156C179.495 50.02 178.919 48.5 178.919 46.596C178.919 44.804 179.479 43.332 180.599 42.18C181.735 41.028 183.071 40.452 184.607 40.452C186.399 40.452 187.799 41.004 188.807 42.108C189.815 43.196 190.319 44.668 190.319 46.524C190.319 47.02 190.295 47.316 190.247 47.412H181.703C181.735 48.292 182.055 49.02 182.663 49.596C183.287 50.172 184.031 50.46 184.895 50.46C186.399 50.46 187.375 49.78 187.823 48.42Z" fill="white"/>
<rect x="1.00781" y="1" width="210.007" height="68" rx="34" stroke="white" stroke-width="2"/>
</svg>
