<svg width="253" height="266" viewBox="0 0 253 266" fill="none" xmlns="http://www.w3.org/2000/svg">
<path d="M120.698 4.739C123.506 0.672996 129.514 0.672991 132.321 4.73899L152.972 34.6471C155.184 37.8504 159.266 39.1768 162.938 37.8853L197.224 25.8274C201.886 24.1881 206.746 27.7194 206.627 32.6591L205.755 68.9934C205.661 72.885 208.184 76.3577 211.914 77.4713L246.74 87.8692C251.475 89.2828 253.331 94.9966 250.332 98.9231L228.269 127.805C225.906 130.899 225.906 135.191 228.269 138.285L250.332 167.167C253.331 171.093 251.475 176.807 246.74 178.221L211.914 188.618C208.184 189.732 205.661 193.205 205.755 197.096L206.627 233.431C206.746 238.37 201.886 241.902 197.224 240.262L162.938 228.204C159.266 226.913 155.184 228.239 152.972 231.443L132.321 261.351C129.514 265.417 123.506 265.417 120.698 261.351L100.048 231.443C97.8358 228.239 93.7535 226.913 90.0812 228.204L55.7949 240.262C51.1337 241.902 46.2732 238.37 46.3919 233.431L47.2647 197.096C47.3581 193.205 44.8351 189.732 41.1051 188.618L6.2794 178.221C1.54485 176.807 -0.311694 171.093 2.68775 167.167L24.7506 138.285C27.1137 135.191 27.1137 130.899 24.7506 127.805L2.68775 98.9231C-0.311692 94.9966 1.54484 89.2828 6.2794 87.8692L41.1051 77.4713C44.8351 76.3577 47.3581 72.885 47.2647 68.9934L46.3919 32.6591C46.2732 27.7194 51.1337 24.1881 55.7949 25.8274L90.0812 37.8854C93.7535 39.1768 97.8358 37.8504 100.048 34.6471L120.698 4.739Z" fill="#BDE72F" stroke="black" stroke-width="1.56936"/>
</svg>
