<svg width="253" height="265" viewBox="0 0 253 265" fill="none" xmlns="http://www.w3.org/2000/svg">
<path d="M120.942 4.53099C123.75 0.464988 129.758 0.464983 132.565 4.53098L153.216 34.439C155.428 37.6424 159.51 38.9688 163.182 37.6773L197.469 25.6194C202.13 23.9801 206.99 27.5114 206.872 32.4511L205.999 68.7854C205.905 72.677 208.428 76.1497 212.158 77.2633L246.984 87.6612C251.719 89.0748 253.575 94.7886 250.576 98.7151L228.513 127.597C226.15 130.691 226.15 134.983 228.513 138.077L250.576 166.959C253.575 170.885 251.719 176.599 246.984 178.013L212.158 188.41C208.428 189.524 205.905 192.997 205.999 196.888L206.872 233.223C206.99 238.162 202.13 241.694 197.469 240.054L163.182 227.996C159.51 226.705 155.428 228.031 153.216 231.235L132.565 261.143C129.758 265.209 123.75 265.209 120.942 261.143L100.292 231.235C98.0799 228.031 93.9976 226.705 90.3253 227.996L56.0391 240.054C51.3779 241.694 46.5174 238.162 46.636 233.223L47.5088 196.888C47.6023 192.997 45.0793 189.524 41.3492 188.41L6.52354 178.013C1.78899 176.599 -0.0675535 170.885 2.93189 166.959L24.9947 138.077C27.3578 134.983 27.3578 130.691 24.9947 127.597L2.9319 98.7151C-0.0675516 94.7886 1.78898 89.0748 6.52354 87.6612L41.3492 77.2633C45.0793 76.1497 47.6023 72.677 47.5088 68.7854L46.636 32.4511C46.5174 27.5114 51.3778 23.9801 56.0391 25.6194L90.3253 37.6773C93.9976 38.9688 98.0799 37.6424 100.292 34.439L120.942 4.53099Z" fill="#3D87F3" stroke="black" stroke-width="1.56936"/>
</svg>
