<svg width="254" height="266" viewBox="0 0 254 266" fill="none" xmlns="http://www.w3.org/2000/svg">
<path d="M132.603 4.17655L153.611 34.6024C155.743 37.6895 159.677 38.9678 163.216 37.7232L198.096 25.4565C202.588 23.8767 207.272 27.2799 207.158 32.0404L206.27 69.0037C206.18 72.7541 208.612 76.1008 212.206 77.1741L247.635 87.752C252.198 89.1143 253.987 94.6208 251.096 98.4049L228.651 127.787C226.374 130.768 226.374 134.905 228.651 137.886L251.096 167.268C253.987 171.052 252.198 176.559 247.635 177.921L212.206 188.499C208.612 189.572 206.18 192.919 206.27 196.669L207.158 233.633C207.272 238.393 202.588 241.796 198.096 240.217L163.216 227.95C159.677 226.705 155.743 227.984 153.611 231.071L132.603 261.497C129.898 265.415 124.108 265.415 121.402 261.497L100.394 231.071C98.2622 227.984 94.328 226.705 90.7889 227.95L55.9091 240.217C51.417 241.796 46.7328 238.393 46.8471 233.633L47.735 196.669C47.8251 192.919 45.3936 189.572 41.7989 188.499L6.37032 177.921C1.80751 176.559 0.0183172 171.052 2.90896 167.268L25.3538 137.886C27.6311 134.905 27.6311 130.768 25.3538 127.787L2.90896 98.4049C0.0183191 94.6208 1.80751 89.1143 6.37031 87.752L41.7989 77.1741C45.3936 76.1008 47.8251 72.7541 47.735 69.0037L46.8471 32.0404C46.7328 27.2799 51.417 23.8767 55.9091 25.4565L90.7889 37.7232C94.328 38.9678 98.2622 37.6895 100.394 34.6024L121.402 4.17655C124.108 0.258046 129.898 0.258042 132.603 4.17655Z" fill="#F9C6EF" stroke="black" stroke-width="1.51243"/>
</svg>
