<svg width="290" height="306" viewBox="0 0 290 306" fill="none" xmlns="http://www.w3.org/2000/svg">
<g clip-path="url(#clip0_61_553)">
<path d="M184.004 250.797C187.089 240.919 185.073 229.825 178.038 217.833C175.996 214.353 174.984 211.516 175.256 210.041C175.528 208.566 177.377 205.843 179.37 203.07C180.233 201.844 181.127 200.574 182.06 199.189C182.609 198.409 184.653 196.18 186.305 194.401C193.44 186.632 205.439 173.702 210.935 157.037C215.835 142.203 217.057 119.497 195.098 95.4754C199.128 89.886 202.013 83.5552 203.589 76.8469C205.164 70.1386 205.397 63.1851 204.276 56.3862C203.957 54.4388 203.46 52.5246 202.793 50.6673V50.6673C199.633 41.7771 193.363 36.0054 188.67 32.703C184.318 29.6398 175.853 24.8656 167.978 27.3058C166.045 27.8896 164.255 28.8667 162.718 30.1759C161.181 31.485 159.932 33.0978 159.049 34.9129C157.428 38.2661 157.07 42.0911 158.041 45.6867C157.18 46.3058 156.279 46.9467 155.5 47.4979C153.4 48.9781 151.022 50.6631 148.497 52.5693C143.405 56.2972 139.73 61.6438 138.075 67.7333C109.285 67.0452 83.9248 83.3044 72.9724 98.2622C52.122 126.703 43.8705 155.003 48.3435 182.309C52.6622 208.615 69.2591 233.104 94.99 251.222C99.9718 254.749 105.18 257.945 110.582 260.788L110.06 263.803C109.402 267.58 109.732 271.462 111.017 275.074C112.302 278.685 114.499 281.903 117.394 284.415C118.021 284.956 118.678 285.468 119.341 285.935C122.85 288.438 127.001 289.885 131.305 290.106C136.458 290.318 141.521 288.715 145.613 285.577C149.706 282.439 152.567 277.965 153.699 272.934C157.937 272.87 162.119 271.957 165.997 270.248C177.525 264.904 182.145 256.73 184.004 250.797Z" fill="#1D1D1B"/>
<path d="M149.639 115.924C147.711 117.239 145.439 117.956 143.106 117.986C140.773 118.017 138.482 117.359 136.521 116.095C134.56 114.831 133.014 113.017 132.078 110.88C131.142 108.743 130.856 106.377 131.257 104.078C131.657 101.779 132.727 99.6499 134.331 97.9554C135.935 96.2609 138.002 95.0767 140.276 94.5507C142.549 94.0248 144.927 94.1804 147.112 94.9982C149.297 95.816 151.193 97.2597 152.563 99.1488L149.639 115.924Z" fill="#3980FF" stroke="#1D1D1B" stroke-width="3.40728" stroke-linecap="round" stroke-linejoin="round"/>
<path d="M187.453 137.396C186.571 138.65 185.45 139.719 184.155 140.54C182.86 141.362 181.416 141.92 179.906 142.183C178.395 142.446 176.847 142.409 175.35 142.073C173.854 141.738 172.438 141.111 171.184 140.229C170.756 139.926 170.349 139.594 169.965 139.237L174.424 119.535C176.752 118.807 179.25 118.826 181.566 119.591C183.882 120.355 185.901 121.826 187.338 123.797C188.776 125.767 189.56 128.139 189.58 130.578C189.601 133.017 188.857 135.401 187.453 137.396V137.396Z" fill="#BE22FF" stroke="#1D1D1B" stroke-width="3.40728" stroke-linecap="round" stroke-linejoin="round"/>
<path d="M128.139 239.42C119.702 234.607 115.278 226.401 118.172 220.43C120.326 215.971 125.984 213.936 132.449 214.695L128.139 239.42Z" stroke="#1D1D1B" stroke-width="3.40728" stroke-linecap="round" stroke-linejoin="round"/>
<path d="M166.26 224.741C156.475 208.096 163.864 201.872 170.675 191.65C177.486 181.427 223.716 146.94 184.937 104.631C183.006 102.528 181.054 100.598 179.079 98.8413L174.393 119.576C176.287 118.986 178.3 118.888 180.242 119.292C182.185 119.696 183.992 120.587 185.494 121.883C186.995 123.179 188.142 124.837 188.826 126.699C189.509 128.561 189.707 130.567 189.4 132.527C189.093 134.486 188.292 136.336 187.072 137.9C185.852 139.464 184.254 140.692 182.428 141.467C180.602 142.242 178.608 142.539 176.636 142.329C174.663 142.12 172.776 141.411 171.153 140.271C170.726 139.967 170.318 139.636 169.934 139.279L150.579 224.938C153.563 228.988 154.553 233.501 152.766 237.152C152.143 238.356 151.283 239.422 150.238 240.286C149.194 241.15 147.985 241.795 146.686 242.181C142.086 243.743 135.851 243.213 129.87 240.345C129.249 240.042 128.69 239.748 128.131 239.43C119.693 234.616 115.269 226.411 118.163 220.44C120.318 215.981 125.975 213.946 132.44 214.705L149.641 115.922C147.713 117.236 145.441 117.954 143.108 117.984C140.775 118.014 138.484 117.356 136.523 116.093C134.562 114.829 133.016 113.015 132.08 110.878C131.144 108.74 130.858 106.375 131.259 104.076C131.659 101.777 132.728 99.6477 134.332 97.9532C135.937 96.2587 138.004 95.0745 140.278 94.5486C142.551 94.0226 144.929 94.1783 147.114 94.996C149.299 95.8138 151.195 97.2575 152.565 99.1466L155.122 84.4303C124.49 74.1877 94.6599 91.767 83.9719 106.361C29.0664 181.365 83.544 235.09 125.788 252.905C131.329 255.306 137.101 257.134 143.013 258.362C150.324 259.816 156.394 259.68 160.256 257.898C172.162 252.361 175.912 241.159 166.26 224.741ZM89.7483 116.885C91.0554 115.027 92.8838 113.599 95.0024 112.781C97.121 111.963 99.4346 111.792 101.651 112.289C103.867 112.786 105.886 113.929 107.452 115.573C109.018 117.217 110.062 119.289 110.451 121.527C110.84 123.764 110.557 126.067 109.637 128.143C108.718 130.22 107.203 131.977 105.284 133.192C103.366 134.408 101.13 135.028 98.8601 134.973C96.5897 134.918 94.3867 134.19 92.5295 132.883C90.0391 131.131 88.347 128.46 87.8254 125.46C87.3038 122.46 87.9955 119.375 89.7483 116.885V116.885ZM79.0645 169.231C77.2064 167.926 75.7769 166.1 74.957 163.983C74.1371 161.866 73.9635 159.553 74.4582 157.337C74.953 155.122 76.0938 153.103 77.7364 151.535C79.379 149.968 81.4495 148.923 83.686 148.533C85.9225 148.143 88.2244 148.425 90.3006 149.343C92.3768 150.262 94.134 151.776 95.3497 153.693C96.5655 155.61 97.1852 157.845 97.1306 160.115C97.0759 162.384 96.3493 164.587 95.0427 166.443C93.2923 168.93 90.6263 170.621 87.6304 171.143C84.6344 171.666 81.5535 170.978 79.0645 169.231V169.231ZM86.4689 207.041C84.7827 205.856 83.4858 204.197 82.7423 202.275C81.9988 200.353 81.8422 198.253 82.2922 196.242C82.7421 194.23 83.7785 192.398 85.2702 190.975C86.7619 189.553 88.6419 188.605 90.6724 188.252C92.7029 187.898 94.7926 188.154 96.6774 188.989C98.5621 189.823 100.157 191.197 101.261 192.938C102.364 194.679 102.926 196.708 102.877 198.768C102.827 200.829 102.167 202.828 100.981 204.514C100.194 205.633 99.1949 206.586 98.0398 207.319C96.8846 208.052 95.5964 208.55 94.2487 208.784C92.901 209.019 91.5203 208.986 90.1854 208.687C88.8505 208.388 87.5876 207.829 86.4689 207.041Z" fill="#FCBA4F" stroke="#1D1D1B" stroke-width="3.40728" stroke-linecap="round" stroke-linejoin="round"/>
<path d="M100.958 204.499C99.7725 206.187 98.1124 207.484 96.1884 208.227C94.2645 208.971 92.1632 209.126 90.1508 208.674C88.1384 208.222 86.3054 207.183 84.884 205.689C83.4626 204.194 82.5167 202.311 82.1661 200.279C81.8155 198.246 82.076 196.156 82.9146 194.271C83.7532 192.387 85.1322 190.794 86.8769 189.694C88.6216 188.594 90.6535 188.037 92.7153 188.092C94.7771 188.148 96.7759 188.814 98.4587 190.007C100.709 191.599 102.236 194.02 102.705 196.736C103.173 199.453 102.545 202.245 100.958 204.499Z" fill="#FF5C5C" stroke="#1D1D1B" stroke-width="3.40728" stroke-linecap="round" stroke-linejoin="round"/>
<path d="M83.1585 171.048C89.3428 172.434 95.4803 168.545 96.867 162.361C98.2537 156.177 94.3644 150.039 88.1801 148.652C81.9958 147.266 75.8583 151.155 74.4716 157.339C73.0849 163.524 76.9741 169.661 83.1585 171.048Z" fill="#5CC9FF" stroke="#1D1D1B" stroke-width="3.40728" stroke-linecap="round" stroke-linejoin="round"/>
<path d="M108.523 130.098C107.217 131.957 105.388 133.386 103.27 134.205C101.151 135.024 98.8366 135.196 96.6199 134.7C94.4032 134.204 92.3835 133.061 90.8164 131.416C89.2492 129.772 88.2051 127.7 87.816 125.462C87.427 123.223 87.7105 120.92 88.6307 118.843C89.5509 116.767 91.0664 115.009 92.9856 113.794C94.9048 112.579 97.1413 111.96 99.4122 112.016C101.683 112.072 103.886 112.8 105.743 114.109C108.231 115.862 109.921 118.53 110.442 121.528C110.963 124.526 110.273 127.609 108.523 130.098V130.098Z" fill="#1BAA63" stroke="#1D1D1B" stroke-width="3.40728" stroke-linecap="round" stroke-linejoin="round"/>
<path d="M146.684 242.18L150.586 224.927C153.569 228.976 154.559 233.49 152.773 237.141C152.15 238.348 151.289 239.416 150.243 240.282C149.197 241.148 147.986 241.794 146.684 242.18V242.18Z" stroke="#1D1D1B" stroke-width="3.40728" stroke-linecap="round" stroke-linejoin="round"/>
<path d="M146.684 242.182C142.084 243.744 135.849 243.214 129.868 240.346C129.248 240.043 128.688 239.749 128.129 239.43L132.433 214.702L149.639 115.923L152.563 99.1475L155.12 84.4312L155.16 84.3755L155.611 81.568C155.611 81.568 172.429 72.7556 181.495 88.1608L180.682 91.7551L179.079 98.8271L174.394 119.562L169.956 139.247L150.578 224.939L146.684 242.182Z" fill="#EF112C" stroke="#1D1D1B" stroke-width="3.40728" stroke-linecap="round" stroke-linejoin="round"/>
<path d="M131.94 276.486C129.836 276.346 127.842 275.498 126.283 274.08C125.17 273.112 124.326 271.873 123.836 270.481C123.345 269.09 123.225 267.596 123.485 266.144L125.786 252.905C131.327 255.306 137.099 257.134 143.012 258.362L140.429 269.811C140.013 271.738 138.937 273.46 137.387 274.678C135.837 275.897 133.91 276.536 131.94 276.486Z" fill="#EF112C" stroke="#1D1D1B" stroke-width="3.40728" stroke-linecap="round" stroke-linejoin="round"/>
<path d="M180.697 91.749L181.511 88.1547C172.437 72.7606 155.613 81.5691 155.613 81.5691L155.134 84.357C153.816 83.0567 152.763 81.512 152.035 79.8092V79.8092C150.958 75.3012 153.744 66.654 165.143 68.052C176.542 69.4499 185.95 70.1963 189.965 55.3392C190.353 56.4114 190.64 57.5175 190.823 58.6431C192.842 71.0474 188.889 82.5729 180.697 91.749Z" fill="white" stroke="#1D1D1B" stroke-width="3.40728" stroke-linecap="round" stroke-linejoin="round"/>
<path d="M165.138 68.0393C153.719 66.6692 150.952 75.2885 152.029 79.7966C149.87 74.7186 150.52 68.1594 156.711 63.4835C165.033 57.1996 172.08 53.2259 173.036 49.9736C173.991 46.7213 169.32 41.1752 172.035 40.3364C174.494 39.5667 186.299 45.0171 189.975 55.3042C185.954 70.182 176.572 69.4457 165.138 68.0393Z" fill="#3980FF" stroke="#1D1D1B" stroke-width="3.40728" stroke-linecap="round" stroke-linejoin="round"/>
<path d="M136.278 256.682C133.895 258.446 128.193 262.416 123.963 263.406L125.786 252.906C129.209 254.362 132.712 255.623 136.278 256.682V256.682Z" fill="#1D1D1B"/>
</g>
<defs>
<clipPath id="clip0_61_553">
<rect width="180" height="246.933" fill="white" transform="translate(142.123) rotate(35.1382)"/>
</clipPath>
</defs>
</svg>
