<svg width="161" height="195" viewBox="0 0 161 195" fill="none" xmlns="http://www.w3.org/2000/svg">
<path d="M11.9563 80.5494C11.9574 80.5502 11.9585 80.551 11.9596 80.5518L11.9563 80.5494L10.6151 82.3953L11.9563 80.5494ZM7.10394 87.2281L46.4323 115.802L6.8953 158.311C3.31494 162.16 7.40709 168.201 12.3098 166.303L79.0623 140.472L113.649 188.062C116.687 192.243 123.294 189.561 122.559 184.446L112.88 117.078L153.965 87.2281C157.847 84.4077 155.852 78.2677 151.053 78.2677H101.086L85.3674 8.19904C84.2102 3.04041 76.8585 3.0403 75.7012 8.19903L59.9829 78.2677H10.0153C5.21708 78.2677 3.22201 84.4077 7.10394 87.2281ZM149.112 80.5494L149.107 80.5534C149.109 80.552 149.11 80.5507 149.112 80.5494Z" fill="#EF112C" stroke="black" stroke-width="8.25533"/>
<path d="M80.3751 39.7946C80.5784 38.9519 81.777 38.9519 81.9802 39.7946L93.7466 88.586C93.836 88.9567 94.1678 89.218 94.5491 89.218H132.526C133.325 89.218 133.658 90.2413 133.011 90.7114L102.164 113.123C101.916 113.303 101.789 113.605 101.832 113.908L109.037 164.058C109.159 164.91 108.058 165.357 107.552 164.66L81.5511 128.884C81.3309 128.581 80.9345 128.464 80.5853 128.6L30.6346 147.929C29.8175 148.245 29.1355 147.239 29.7322 146.597L59.9594 114.098C60.2968 113.735 60.2409 113.159 59.8401 112.868L29.3446 90.7114C28.6976 90.2413 29.0301 89.218 29.8298 89.218H67.8062C68.1875 89.218 68.5193 88.9567 68.6087 88.586L80.3751 39.7946Z" fill="#FFC200"/>
<path d="M73.0449 106.67C79.3199 111.921 82.6689 111.712 88.9682 106.67" stroke="black" stroke-width="4.10923" stroke-linecap="round" stroke-linejoin="round"/>
</svg>
