<svg width="375" height="393" viewBox="0 0 375 393" fill="none" xmlns="http://www.w3.org/2000/svg">
<path d="M397.085 252.912C395.88 255.749 383.205 258.433 378.672 259.172C374.139 259.912 369.791 258.248 364.977 258.063C360.164 257.878 340.826 255.934 346.01 252.051C351.193 248.162 360.349 248.047 360.349 248.047L397.085 252.912Z" fill="#2B3451"/>
<path d="M125.98 97.1646C130.756 100.843 121.53 96.3167 114.969 98.8414C111.59 100.142 107.982 102.195 103.933 103.585C100.133 104.892 96.2058 105.893 92.4315 106.939C88.147 108.124 84.3216 109.266 80.9043 109.667C78.0799 109.999 74.5222 114.22 70.0784 114.57C66.5909 114.844 62.5997 113.671 58.6915 113.78C54.949 113.882 51.2511 109.661 47.5851 109.47C43.6003 109.259 39.0289 114.628 35.6817 113.901C31.3271 112.951 29 108.048 26.845 105.867C24.4031 103.4 24.2756 101.175 26.3669 96.5972C27.7886 93.4795 30.5812 93.3329 34.2472 91.6943C37.1927 90.3809 39.8068 88.7169 43.715 88.1558C47.0686 87.6713 50.4095 84.5727 54.1711 84.5217C57.6777 84.4707 61.4649 83.1956 65.1054 83.4251C68.714 83.6482 72.0931 87.0911 75.6125 87.4991C79.3231 87.9263 83.3398 85.5864 86.7061 86.1156C90.6399 86.734 94.3569 87.1995 97.4364 87.7924C103.85 89.0293 102.084 92.0386 107.357 93.148C112.164 94.1553 112.47 92.2809 117.348 92.9057C122.021 93.4986 122.085 94.1681 125.98 97.1646Z" fill="#2B3451"/>
<path d="M29.6358 100.648C28.01 101.101 26.1802 101.439 23.9997 102.076C22.1444 102.618 19.7216 101.783 17.7643 102.42C15.8006 103.058 14.5064 105.576 12.7148 106.278C10.5917 107.107 7.94579 106.418 6.49214 107.272C3.84624 108.828 2.71135 111.518 4.43916 112.876C5.66329 113.839 8.4431 113.814 11.1655 113.049C12.9953 112.532 14.8634 111.104 16.9546 110.154C18.8673 109.287 20.6206 107.948 22.4823 106.941C24.4906 105.857 27.2131 106.157 28.858 105.175C32.0713 103.256 33.1169 103.925 33.5568 100.763C33.831 98.7544 31.6696 100.782 29.6358 100.648Z" fill="#2B3451"/>
<path d="M59.694 82.5654C59.694 82.5654 36.1296 84.4717 28.7402 89.2344C21.3508 93.9906 41.6509 92.7856 41.6509 92.7856L45.6612 98.2942C45.6612 98.2942 55.7602 92.3266 56.0153 92.3011C56.2703 92.2756 61.3517 87.5831 61.7789 87.0921C62.2188 86.5948 59.694 82.5654 59.694 82.5654Z" fill="#45557C"/>
<path d="M38.3586 100.049C40.826 102.37 35.8466 102.899 33.5259 106.125C32.3464 107.763 31.3454 109.918 29.7833 111.774C28.3552 113.476 27.1948 115.605 25.569 117.155C23.854 118.787 21.3037 119.259 19.5058 120.355C17.3636 121.662 15.5338 123.167 13.4744 123.135C9.92956 123.084 8.2655 121.114 9.27285 119.169C9.94229 117.869 13.1493 117.658 14.9791 115.962C16.3435 114.7 17.7525 113.297 19.4229 111.984C21.0041 110.741 22.4896 109.345 24.1026 108.184C25.8687 106.915 27.5072 105.659 28.9991 104.652C31.9575 102.656 31.4219 102.854 33.9658 101.216C36.0889 99.8576 36.8986 98.6781 38.3586 100.049Z" fill="#2B3451"/>
<path d="M67.5593 104.026C65.5445 104.664 63.9889 106.768 62.1081 107.361C60.0487 108.011 57.524 106.895 55.7069 107.514C53.5775 108.234 52.2513 110.504 50.5618 111.212C48.2601 112.181 45.7545 111.849 44.5431 112.876C42.6751 114.463 41.9482 116.937 43.6187 118.945C44.7982 120.367 47.6927 119.997 50.4087 119.028C52.2067 118.384 54.2851 117.39 56.3317 116.172C58.1615 115.088 60.1699 114.01 61.9423 112.754C63.8422 111.416 66.0291 110.517 67.5784 109.305C70.5813 106.953 72.7873 107.514 72.5386 104.256C72.3729 102.063 69.7334 103.809 67.5593 104.026Z" fill="#2B3451"/>
<path d="M79.7664 103.575C81.9023 105.851 77.6625 106.438 75.3863 109.428C74.277 110.881 72.8425 112.456 71.3569 114.197C70.0627 115.708 68.7557 117.378 67.251 118.908C65.7973 120.388 64.637 122.3 63.0495 123.62C61.4045 124.991 58.6758 124.723 56.9543 125.75C55.0544 126.878 54.0024 129.83 52.1024 130.295C49.9985 130.818 47.8626 129.097 45.8734 128.485C42.8896 127.567 42.2265 126.585 43.3168 124.481C44.0627 123.046 45.2932 121.172 47.2187 119.476C48.666 118.194 50.8273 117.455 52.6571 116.141C54.3339 114.936 55.9406 113.515 57.7385 112.361C59.5556 111.194 61.0857 109.562 62.8327 108.516C64.8219 107.33 67.4423 107.553 69.0744 106.648C72.3834 104.793 71.2804 104.142 74.2706 103.09C77.0759 102.102 78.0195 101.713 79.7664 103.575Z" fill="#2B3451"/>
<path d="M79.2244 103.504C75.9856 104.492 77.5094 105.416 74.8316 108.119C73.346 109.624 71.7712 111.282 70.3048 113.035C68.6982 114.961 67.2063 116.58 66.3966 118.276C65.1533 120.89 64.5285 123.115 67.5825 123.529C69.7693 123.823 71.6501 121.98 73.4799 120.246C74.991 118.811 75.8262 116.695 77.0248 114.655C78.2107 112.646 80.5123 111.186 81.3348 109.267C82.8458 105.735 84.8031 105.697 83.4961 102.573C82.7119 100.705 81.2327 102.885 79.2244 103.504Z" fill="#2B3451"/>
<path d="M128.138 96.0822C117.146 98.2882 90.2728 107.444 54.059 104.957C41.7922 104.116 33.0066 101.941 27.243 99.9586C23.7045 98.6261 24.8713 89.1519 30.0547 88.967H30.061C32.4838 92.5884 45.6687 96.0822 45.6687 96.0822C51.088 91.479 55.7677 86.9077 59.7015 82.5722C62.5068 81.7944 68.621 81.1632 71.9555 80.8635C77.0752 84.4977 84.5474 88.5143 94.2831 92.2058C94.4807 93.1558 103.292 87.0607 111.956 78.4727C111.956 78.4727 117.433 79.8115 121.195 81.8008C124.95 83.7772 129.872 89.6492 128.138 96.0822Z" fill="#45557C"/>
<path d="M192.438 167.674C174.72 171.098 176.945 180.629 185.616 182.236C194.287 183.843 201.026 185.73 205.705 182.867C210.379 180.005 218.265 181.082 230.258 183.779C234.186 184.659 242.397 183.377 251.993 183.524C258.509 183.62 265.904 185.137 273.434 184.933C280.575 184.742 287.862 183.09 294.793 182.657C302.66 182.166 309.667 178.423 315.737 177.665C321.743 176.912 329.291 179.367 336.362 177.384C342.808 175.573 348.667 171.155 354.909 168.579C361.597 165.819 369.337 165.328 374.539 161.968C381.623 157.396 384.434 150.422 385.958 145.385C388.139 138.193 383.197 132.818 375.387 129.407C365.862 125.244 364.938 122.821 354.086 124.096C343.585 125.333 343.949 127.195 333.729 129.911C323.509 132.627 323.158 131.314 312.938 134.03C302.718 136.746 303.642 140.252 293.409 142.936C283.361 145.576 282.22 141.221 272.165 143.835C262.111 146.449 262.309 147.208 252.248 149.822C242.193 152.436 242.601 154.011 232.547 156.625C222.486 159.239 222.085 157.824 212.151 160.871C202.173 163.919 202.569 165.36 192.438 167.674Z" fill="#2B3451"/>
<path d="M114.042 339.46C110.829 340.238 101.406 344.879 90.293 347.774C83.7133 349.489 75.782 350.369 67.4872 352.358C60.3528 354.067 52.6638 355.673 44.7963 357.35C37.3559 358.938 29.8453 361.564 22.1818 362.929C14.4736 364.306 6.54865 364.816 -0.955505 365.785C-8.98245 366.818 -17.0859 363.687 -24.3669 364.025C-32.9231 364.421 -40.6695 366.41 -47.415 365.498C-56.7426 364.236 -65.2923 363.821 -72.8347 362.043C-81.9455 359.894 -89.1947 354.685 -96.7052 352.403C-105.331 349.782 -114.232 351 -122.291 349.164C-130.33 347.334 -138.051 345.026 -147.181 345.007C-155.744 344.994 -164.019 345.02 -171.849 344.478C-180.462 343.885 -188.438 341.13 -196.121 339.97C-204.766 338.663 -212.29 335.278 -219.711 333.358C-228.356 331.127 -237.575 332.855 -244.474 329.96C-253.024 326.371 -257.55 317.98 -263.263 313.658C-271.118 307.722 -275.077 302.73 -277.194 296.157C-279.629 288.601 -280.35 282.621 -276.104 275.901C-272.457 270.125 -268.587 262.633 -261.395 258.374C-255.3 254.766 -247.139 253.593 -239.354 251.622C-232.29 249.837 -224.69 249.423 -216.842 249.385C-210.9 249.353 -203.121 250.972 -194.399 250.532C-187.526 250.182 -180.156 246.688 -172.27 246.159C-165.052 245.674 -157.268 248.862 -149.712 248.288C-142.259 247.721 -134.857 245.674 -127.544 245.068C-119.83 244.431 -112.644 240.038 -105.612 239.419C-97.4065 238.699 -89.3987 242.932 -82.921 242.327C-70.718 241.186 -62.3468 239.286 -60.7018 239.043C-59.0314 238.795 -51.2212 240.369 -39.2732 242.805C-32.8019 244.125 -24.3924 241.39 -16.4165 243.117C-9.37137 244.641 -1.8226 245.763 5.6178 247.402C13.0263 249.034 19.4785 255.072 26.5491 256.634C34.4549 258.381 42.756 256.258 49.2847 257.679C59.6516 259.936 66.8879 265.483 70.4838 266.07C75.0424 266.816 79.6074 271.884 84.7462 280.275C88.2273 285.949 91.8359 292.484 95.0365 299.357C98.2307 306.205 103.918 312.038 106.404 318.223C111.052 329.814 114.24 328.564 114.042 339.46Z" fill="#2B3451"/>
<path d="M389.61 137.365C389.399 135.688 388.966 133.584 388.424 130.887C388.213 129.854 387.984 128.484 387.71 126.851C387.576 126.003 387.429 125.079 387.276 124.091C386.721 120.527 386.065 116.121 385.306 111.263C384.611 106.781 383.827 101.916 382.966 96.975C382.96 96.9687 382.96 96.9687 382.96 96.9687C381.583 89.1075 379.995 81.0614 378.216 74.0928C373.116 54.1561 363.667 53.8565 357.125 56.1772C352.561 57.7902 349.073 61.2203 346.752 64.1914C342.512 55.5588 333.669 58.2812 330.698 61.3479C328.014 64.1149 323.118 74.0928 323.118 74.0928C322.385 74.3415 321.76 74.6347 321.275 74.9471C317.718 77.2169 301.676 72.0845 289.186 69.1963C276.92 66.3528 236.517 56.1772 236.517 56.1772C233.189 47.7039 229.255 39.5304 220.47 43.1581C216.013 45.0007 214.049 47.2449 213.208 48.9918C213.208 48.9918 211.505 45.1537 205.308 45.651C199.117 46.1419 197.638 55.0615 202.344 60.2576C202.943 60.9207 204.416 61.8452 206.59 62.9737C206.59 62.9737 206.59 62.9737 206.59 62.98C208.005 63.7132 209.72 64.5357 211.671 65.4283C214.438 66.6843 217.683 68.0806 221.273 69.5533C223.007 70.2674 224.818 71.0006 226.692 71.7466C230.148 73.1237 233.814 74.5455 237.588 75.9736C239.507 76.7004 241.452 77.4273 243.416 78.1541C244.41 78.5239 245.398 78.8937 246.399 79.2571L246.406 79.2635C246.572 79.4675 251.315 85.4797 243.18 90.8608C239.182 93.5067 230.671 97.8103 222.204 102.114V102.12C220.348 103.064 218.493 104.014 216.682 104.945C212.596 107.049 208.757 109.07 205.735 110.797V110.804C204.052 111.767 202.63 112.64 201.553 113.386C201.253 113.596 200.979 113.794 200.737 113.985C194.221 119.028 196.261 128.082 211.174 132.334C230.607 137.875 257.334 135.72 278.979 130.772C286.496 129.051 293.069 127.457 299.018 126.271C301.868 133.202 296.244 139.322 298.948 142.249C301.727 145.264 317.259 152.488 343.386 152.252C369.507 152.016 383.795 145.494 387.27 143.639C389.59 142.402 390.049 140.75 389.61 137.365ZM207.202 55.3229C206.137 55.3229 205.27 53.8501 205.27 52.0266C205.27 50.2032 206.137 48.7304 207.202 48.7304C208.273 48.7304 209.14 50.2032 209.14 52.0266C209.14 53.8501 208.273 55.3229 207.202 55.3229ZM222.204 58.2429C220.227 58.2429 218.621 56.1134 218.621 53.4867C218.621 50.8599 220.227 48.7304 222.204 48.7304C224.187 48.7304 225.787 50.8535 225.787 53.4867C225.781 56.1134 224.18 58.2429 222.204 58.2429ZM221.585 125.87C221.547 125.678 220.616 120.571 222.204 118.85C223.798 117.122 227.77 126.214 227.878 126.475C225.672 126.341 223.568 126.137 221.585 125.87ZM246.597 125.659C246.597 125.659 245.838 119.915 248.089 118.627C250.34 117.345 253.744 124.48 253.744 124.48C251.232 124.939 248.828 125.34 246.597 125.659ZM260.222 89.9491C258.717 88.9545 258.571 83.6499 258.571 83.6499C260.215 84.2237 261.841 84.7975 263.448 85.3522C262.97 86.7421 261.471 90.7779 260.222 89.9491ZM270.672 120.865C270.64 120.661 269.9 115.484 272.482 113.992C275.109 112.462 277.423 119.226 277.423 119.226C275.249 119.768 272.986 120.323 270.672 120.865ZM285.61 99.9589C282.728 99.8377 284.277 92.2061 284.277 92.2061C285.673 92.6269 286.987 93.0094 288.185 93.3537C288.778 93.5194 289.371 93.6852 289.958 93.851C289.958 93.851 287.491 100.035 285.61 99.9589ZM293.669 114.859C292.451 115.216 290.901 115.662 289.078 116.166C289.078 116.166 290.245 108.298 291.494 107.444C292.744 106.59 294.657 108.681 295.078 114.451C294.574 114.597 294.102 114.731 293.669 114.859ZM299.77 113.112C306.751 107.693 306.413 100.679 304.686 97.8485C316.774 101.138 326.994 104.275 333.72 109.293C328.435 105.863 310.8 110.058 299.77 113.112Z" fill="#39BC42"/>
<path d="M353.586 151.825C350.411 152.067 347.007 152.227 343.379 152.259C317.258 152.495 301.72 145.271 298.94 142.255C296.237 139.329 301.867 133.215 299.011 126.278C310.187 124.046 319.145 123.268 328.001 125.819C333.127 127.298 338.916 128.892 344.979 130.039C345.03 130.052 345.075 130.052 345.132 130.071C349.474 130.958 353.503 138.481 353.586 151.825Z" fill="#CEBC11"/>
<path d="M302.102 137.435C302.312 142.057 300.489 142.351 298.34 141.197C297.378 138.073 301.362 132.723 299.182 126.718C299.137 126.571 299.08 126.424 299.016 126.278C305.303 125.022 310.888 124.225 316.148 124.225C312.686 125.493 301.605 126.711 302.102 137.435Z" fill="#226282"/>
<path d="M389.704 140.31C389.507 141.84 388.786 142.829 387.269 143.638C383.794 145.494 369.506 152.016 343.385 152.252C317.264 152.488 301.727 145.264 298.947 142.248C297.423 140.604 298.539 137.945 299.297 134.706C299.297 134.706 305.22 143.823 331.781 147.598C358.342 151.372 383.31 145.226 389.704 140.31Z" fill="#226282"/>
<path d="M346.665 64.0011L345.549 65.8373C345.549 65.8373 344.58 61.0428 338.268 60.2714C332.319 59.5382 328.526 64.4028 328.111 64.9639C328.813 63.829 329.501 62.8025 330.12 62.031C330.33 61.7696 330.528 61.5401 330.713 61.3489C333.658 58.3077 342.386 55.6044 346.665 64.0011Z" fill="#FFBC00"/>
<path d="M376.648 68.9098C374.468 63.7072 369.52 59.6905 364.962 58.2433C359.899 56.6302 354.818 57.204 351.133 59.6587C352.861 58.2369 354.856 56.9873 357.132 56.1839C363.049 54.0863 371.35 54.131 376.648 68.9098Z" fill="#FFBC00"/>
<path d="M303.888 72.8815C302.721 72.6392 237.683 58.7912 237.415 58.2429L236.555 56.1836C237.721 56.4769 277.117 66.3974 289.199 69.1963C293.872 70.2802 299.055 71.6765 303.888 72.8815Z" fill="#FFBC00"/>
<path d="M333.712 109.287C328.433 105.863 310.798 110.059 299.762 113.106C306.743 107.687 306.405 100.674 304.677 97.8428C316.766 101.139 326.992 104.276 333.712 109.287Z" fill="#295129"/>
<path d="M303.588 109.038C298.124 108.331 286.208 106.354 281.076 102.057C274.311 96.3955 258.073 89.7712 246.118 88.324L246.105 88.3303C249.944 83.759 246.539 79.4427 246.399 79.2705C250.46 80.7624 254.56 82.2352 258.557 83.6442C258.557 83.6442 258.71 88.9424 260.208 89.9434C261.458 90.7722 262.956 86.7364 263.428 85.3465C271.257 88.0562 278.526 90.4534 284.264 92.194C284.264 92.194 282.715 99.8256 285.596 99.9468C287.471 100.023 289.938 93.8389 289.938 93.8389C295.064 95.2734 300.005 96.5613 304.666 97.8364C305.998 99.9978 306.508 104.582 303.588 109.038Z" fill="#295129"/>
<path d="M308.079 110.957C302.258 112.347 296.896 113.909 293.67 114.859C288.633 116.351 277.782 119.271 266.605 121.809H266.592C250.966 124.098 231.367 122.689 224.583 120.304C210.939 115.51 230.576 102.063 251.763 96.9755C266.522 93.4306 295.098 97.4473 308.079 110.957Z" fill="#D8395B"/>
<path d="M308.081 110.957C303.038 112.162 298.346 113.495 295.088 114.445C277.313 97.0903 249.387 98.6969 240.506 100.495C244.076 99.105 247.895 97.9 251.759 96.9691C266.525 93.4306 295.101 97.4473 308.081 110.957Z" fill="#29414F"/>
<path d="M-47.4981 315.973C-56.0351 312.071 -63.7816 307.844 -70.6864 303.534C-70.6864 303.534 -73.0263 289.852 -65.3755 289.807C-57.7374 289.763 -46.7012 296.776 -47.4981 315.973ZM-23.9656 247.989C-29.047 247.007 -32.5982 243.259 -31.8969 239.618C-31.1892 235.978 -26.5031 233.816 -21.4153 234.798C-16.3339 235.78 -12.7826 239.522 -13.484 243.169C-14.1917 246.816 -18.8842 248.971 -23.9656 247.989ZM17.3679 334.112C4.46352 332.562 -7.59922 329.987 -18.7503 326.697C-18.5271 323.566 -17.5325 315.476 -13.2289 312.243C-7.83511 308.201 10.0996 311.159 14.3968 315.973C17.8206 319.811 17.6038 330.101 17.3679 334.112ZM11.0559 264.84C5.75777 264.84 1.46059 261.327 1.46059 257.004C1.46059 252.675 5.75777 249.169 11.0559 249.169C16.3605 249.169 20.6577 252.675 20.6577 257.004C20.6577 261.333 16.3605 264.84 11.0559 264.84ZM21.4164 202.257C22.7489 199.209 27.5434 198.361 32.1148 200.363C36.6925 202.365 39.3129 206.458 37.9804 209.512C36.6479 212.56 31.8534 213.408 27.282 211.406C22.7107 209.404 20.0775 205.311 21.4164 202.257ZM56.7184 272.064C56.0362 275.583 51.7135 277.706 47.0466 276.807C42.386 275.908 39.1663 272.319 39.8421 268.806C40.5243 265.286 44.847 263.163 49.5139 264.062C54.1682 264.955 57.3943 268.538 56.7184 272.064ZM89.8591 263.036C89.8591 266.364 85.919 269.061 81.0544 269.061C76.1834 269.061 72.2432 266.364 72.2432 263.036C72.2432 259.708 76.1834 257.011 81.0544 257.011C85.919 257.004 89.8591 259.708 89.8591 263.036ZM69.1382 233.587C70.3815 231.17 73.9008 230.507 76.9994 232.101C80.098 233.695 81.6027 236.947 80.3594 239.363C79.1161 241.773 75.5904 242.442 72.4982 240.842C69.3932 239.255 67.8886 235.997 69.1382 233.587ZM72.0774 334.163C71.6949 329.732 71.0892 317.267 76.2344 313.588C82.5271 309.1 101.916 304.663 107.258 310.343C110.472 313.761 111.039 321.073 111.128 324.427C99.1039 329.037 85.9891 332.531 72.0774 334.163ZM110.178 257.004C105.62 257.004 101.922 254.397 101.922 251.177C101.922 247.957 105.62 245.35 110.178 245.35C114.743 245.35 118.441 247.957 118.441 251.177C118.435 254.397 114.743 257.004 110.178 257.004ZM171.098 286.485C166.654 290.846 161.292 295.488 155.12 300.104C154.821 297.388 154.024 287.99 156.504 283.023C159.418 277.177 169.313 272.178 170.435 276.928C171.091 279.721 171.155 283.693 171.098 286.485Z" fill="#39BC42"/>
<path d="M166.373 304.676C162.828 309.655 158.563 314.322 153.679 318.677C153.672 318.683 153.666 318.683 153.666 318.683C113.034 354.865 29.6785 369.07 -33.4851 355.834C-54.0466 351.53 -70.1324 345.767 -82.9156 339.557C-82.9156 339.557 -82.9156 339.557 -82.922 339.557C-114.131 324.408 -125.69 306.614 -134.845 300.844C-147.756 292.721 -163.051 291.765 -170.702 294.156C-170.702 294.156 -170.715 294.156 -170.728 294.162C-171.308 294.232 -179.921 295.284 -195.395 293.416C-195.401 293.416 -195.401 293.416 -195.408 293.416C-198.519 292.53 -202.038 291.357 -206.081 289.852C-226.642 282.202 -229.039 268.443 -230.946 258.771C-231.449 256.189 -231.87 253.772 -232.202 251.522C-233.847 240.466 -233.592 233.504 -233.439 231.279C-235.664 229.277 -236.926 226.459 -237.627 222.768C-239.087 215.079 -234.669 202.187 -221.727 194.925C-216.122 207.957 -202.81 217.234 -191.187 224.464C-173.82 235.264 -158.652 237.648 -148.483 243.355C-145.397 245.529 -141.91 246.389 -138.645 245.446C-131.511 243.393 -128.074 233.562 -130.969 223.494C-133.864 213.427 -141.993 206.918 -149.133 208.977C-151.811 209.334 -159.047 209.028 -167.616 205.917C-157.925 198.502 -142.541 189.257 -125.658 180.114H-125.652C-120.079 177.092 -114.335 174.077 -108.584 171.144C-102.202 167.886 -95.8072 164.736 -89.6037 161.772C-72.4723 153.579 -56.7882 146.853 -46.8676 143.544C-27.8427 137.206 -19.5415 132.756 -3.69803 143.314H-3.69168C4.3544 148.676 14.3514 157.908 28.6712 172.712C38.3877 182.754 48.7035 190.832 59.2042 197.386C57.3999 199.904 57.317 203.386 59.2297 206.025C61.6206 209.34 66.2493 210.086 69.5647 207.689C70.6868 206.886 71.5029 205.821 72.0193 204.642C78.2802 207.842 84.5411 210.577 90.7191 212.943C89.8775 214.071 89.3994 215.385 89.3994 216.781C89.3994 221.027 93.8177 224.464 99.2625 224.464C103.745 224.464 107.532 222.143 108.73 218.949C116.362 221.167 123.726 222.921 130.631 224.419C130.331 225.158 130.178 225.93 130.178 226.74C130.178 231.337 135.279 235.066 141.578 235.066C146.85 235.066 151.288 232.452 152.582 228.901C153.704 229.137 154.801 229.373 155.866 229.602C186.456 236.31 199.373 258.299 166.373 304.676Z" fill="#39BC42"/>
<path d="M59.2332 206.032C44.4034 198.209 5.73502 162.837 -3.80297 153.726C-13.3473 144.615 -28.3875 137.774 -40.9922 141.555C-25.9393 136.416 -17.8103 133.91 -3.69455 143.315H-3.68821C4.35788 148.676 14.3549 157.908 28.6747 172.713C38.3912 182.754 48.707 190.832 59.2077 197.387C57.4098 199.911 57.3205 203.399 59.2332 206.032Z" fill="#FFBC00"/>
<path d="M90.7226 212.948C89.881 214.077 89.4028 215.39 89.4028 216.786C89.4028 216.939 89.4092 217.086 89.422 217.232C79.9605 214.434 71.8698 211.603 65.832 209.084C67.139 208.976 68.4333 208.523 69.5745 207.701C70.6967 206.898 71.5127 205.833 72.0292 204.653C78.2837 207.848 84.5446 210.583 90.7226 212.948Z" fill="#FFBC00"/>
<path d="M130.634 224.425C130.334 225.165 130.181 225.936 130.181 226.746C130.181 226.816 130.181 226.899 130.194 226.969C122.033 225.464 114.108 223.73 106.648 221.887C107.598 221.052 108.319 220.051 108.733 218.948C116.365 221.173 123.729 222.927 130.634 224.425Z" fill="#FFBC00"/>
<path d="M162.685 231.465C159.083 231.153 155.468 230.77 151.859 230.324C152.159 229.871 152.395 229.4 152.573 228.915C153.696 229.151 154.792 229.387 155.857 229.616C158.248 230.139 160.537 230.751 162.685 231.465Z" fill="#FFBC00"/>
<path d="M337.569 70.9423C337.608 71.3121 337.161 71.5097 336.906 71.242C336.167 70.4641 335.363 69.9732 334.618 69.8457C333.935 69.7373 333.228 69.9668 332.533 70.4833C332.271 70.6745 331.902 70.4769 331.921 70.1517C332.016 68.5833 332.565 65.4911 335.472 66.1478C336.9 66.4793 337.397 69.2783 337.569 70.9423Z" fill="#0A0A0A"/>
<path d="M364.928 71.0013C364.96 71.4412 364.399 71.6644 364.112 71.3264C363.066 70.0704 362.397 68.9164 360.847 68.9164C359.234 68.9164 358.029 70.0768 356.914 71.116C356.595 71.4157 356.078 71.1415 356.142 70.7144C356.442 68.6933 357.417 64.8233 360.484 64.5555C364.042 64.2431 364.781 68.7443 364.928 71.0013Z" fill="#0A0A0A"/>
<path d="M235.604 56.4313C236.573 58.8732 237.727 61.3661 239.544 63.3043C240.328 64.1395 241.335 64.9556 242.477 65.2234C242.7 65.2744 242.948 65.3318 243.178 65.3126C243.694 65.268 244.134 64.9046 244.134 64.3563C244.134 63.8717 243.694 63.3553 243.178 63.3999C243.146 63.3999 243.12 63.3999 243.089 63.3999C242.795 63.3808 243.35 63.4637 243.069 63.3999C242.929 63.3681 242.795 63.3362 242.661 63.2852C242.623 63.2724 242.591 63.2533 242.553 63.2469C242.381 63.1895 242.751 63.3489 242.636 63.2788C242.54 63.2214 242.432 63.1832 242.336 63.1258C242.107 62.9983 241.896 62.8516 241.686 62.705C241.59 62.6349 241.839 62.8325 241.75 62.7496C241.731 62.7305 241.705 62.7114 241.68 62.6922C241.616 62.6412 241.558 62.5902 241.495 62.5392C241.361 62.4245 241.233 62.3033 241.112 62.1822C240.819 61.8889 240.551 61.5765 240.29 61.2577C240.175 61.1175 240.258 61.2131 240.277 61.245C240.239 61.194 240.207 61.1493 240.169 61.0983C240.092 60.9963 240.022 60.8943 239.952 60.7923C239.799 60.5691 239.646 60.346 239.505 60.1165C238.677 58.7967 238.007 57.3749 237.44 55.9277C237.248 55.4495 236.802 55.1116 236.26 55.2582C235.814 55.3857 235.412 55.9532 235.604 56.4313Z" fill="#0A0A0A"/>
<path d="M213.541 51.6889C213.541 51.6761 213.535 51.6698 213.535 51.657C213.547 51.7399 213.56 51.8291 213.567 51.912C213.522 51.5741 213.547 51.2235 213.592 50.8855C213.579 50.9684 213.567 51.0577 213.56 51.1406C213.637 50.5986 213.79 50.0695 214.006 49.5658C213.975 49.6423 213.943 49.7188 213.911 49.7953C213.955 49.6933 214 49.5849 214.051 49.4829C214.166 49.247 214.217 49.0047 214.147 48.7433C214.083 48.5202 213.917 48.2779 213.707 48.1695C213.28 47.9464 212.629 48.0293 212.4 48.5138C211.864 49.6359 211.482 50.9429 211.698 52.1926C211.737 52.4157 211.947 52.6516 212.138 52.7664C212.342 52.8875 212.648 52.9385 212.878 52.862C213.108 52.7855 213.331 52.6452 213.452 52.4221C213.573 52.1862 213.586 51.9503 213.541 51.6889Z" fill="#0A0A0A"/>
<path d="M346.08 63.5167C344.754 65.2126 343.479 67.0297 342.554 68.9806C342.338 69.4333 342.414 70.0326 342.899 70.2876C343.326 70.5108 343.976 70.4279 344.206 69.9433C344.454 69.4141 344.748 68.9041 345.041 68.4004C345.36 67.8521 345.698 67.3166 346.055 66.7874C346.482 66.1434 347.03 65.3784 347.432 64.8683C347.738 64.473 347.846 63.8928 347.432 63.5167C347.087 63.2043 346.412 63.0959 346.08 63.5167Z" fill="#0A0A0A"/>
<path d="M339.336 113.506C337.882 111.561 336.142 109.91 334.197 108.463C333.795 108.163 333.113 108.386 332.89 108.807C332.622 109.311 332.801 109.795 333.234 110.114C333.349 110.203 333.464 110.286 333.579 110.376C333.47 110.293 333.572 110.369 333.623 110.414C333.681 110.459 333.738 110.503 333.789 110.548C334.012 110.726 334.229 110.905 334.446 111.09C334.86 111.44 335.262 111.81 335.651 112.193C336.033 112.569 336.403 112.951 336.754 113.353C336.932 113.557 337.111 113.761 337.283 113.971C337.359 114.067 337.436 114.163 337.512 114.258C337.563 114.322 337.614 114.392 337.538 114.29C337.589 114.354 337.633 114.418 337.684 114.482C337.984 114.883 338.526 115.125 338.991 114.826C339.387 114.564 339.654 113.94 339.336 113.506Z" fill="#0A0A0A"/>
<path d="M374.96 128.808C364.976 131.811 354.264 130.918 344.178 128.91C339.078 127.89 334.047 126.557 329.049 125.123C324.681 123.873 320.244 123.229 315.698 123.274C310.005 123.325 304.343 124.249 298.764 125.359C297.559 125.601 298.069 127.443 299.274 127.201C308.659 125.339 318.395 124.077 327.754 126.742C337.72 129.586 347.857 132.193 358.268 132.601C364.051 132.831 369.904 132.327 375.463 130.657C376.643 130.3 376.139 128.451 374.96 128.808Z" fill="#0A0A0A"/>
<path d="M344.742 130.962C347.177 131.409 348.72 133.57 349.753 135.655C351.34 138.881 351.959 142.572 352.188 146.124C352.265 147.348 354.178 147.354 354.101 146.124C353.846 142.152 353.132 138.084 351.315 134.501C350.078 132.065 348.082 129.63 345.252 129.113C344.047 128.897 343.53 130.739 344.742 130.962Z" fill="#0A0A0A"/>
<path d="M225.785 53.4857C225.785 56.1125 224.185 58.242 222.202 58.242C220.226 58.242 218.619 56.1125 218.619 53.4857C218.619 50.859 220.226 48.7295 222.202 48.7295C224.185 48.7359 225.785 50.859 225.785 53.4857Z" fill="#0A0A0A"/>
<path d="M209.14 52.0247C209.14 53.8418 208.272 55.3209 207.201 55.3209C206.137 55.3209 205.27 53.8482 205.27 52.0247C205.27 50.2013 206.137 48.7285 207.201 48.7285C208.272 48.7349 209.14 50.2077 209.14 52.0247Z" fill="#0A0A0A"/>
<path d="M299.562 133.856C301.347 134.621 303.292 135.048 305.185 135.412C310.688 136.464 316.336 136.687 321.922 136.464C326.722 136.273 331.504 135.731 336.248 134.959C337.459 134.762 336.943 132.919 335.738 133.117C328.297 134.328 320.716 134.946 313.18 134.481C309.425 134.251 305.632 133.767 302.01 132.702C301.59 132.581 301.169 132.447 300.754 132.294C300.627 132.25 300.021 132.001 300.525 132.211C299.409 131.72 298.434 133.372 299.562 133.856Z" fill="#0A0A0A"/>
<path d="M349.689 141.189C349.223 141.463 348.719 141.674 348.229 141.89C348.484 141.782 348.101 141.941 348.012 141.98C347.852 142.043 347.699 142.107 347.54 142.164C347.202 142.292 346.864 142.413 346.526 142.534C345.659 142.834 344.779 143.095 343.893 143.331C337.938 144.925 331.696 145.34 325.557 145.155C320.093 144.989 314.654 144.313 309.286 143.293C308.081 143.063 307.571 144.906 308.776 145.136C317.46 146.787 326.398 147.628 335.229 146.774C339.743 146.334 344.327 145.518 348.547 143.809C349.255 143.523 349.988 143.229 350.651 142.84C351.716 142.222 350.753 140.571 349.689 141.189Z" fill="#0A0A0A"/>
<path d="M-122.481 228.178C-120.39 228.235 -118.299 227.611 -116.367 226.871C-113.676 225.845 -111.107 224.525 -108.608 223.103C-102.347 219.545 -96.4365 215.363 -90.6538 211.072C-85.3301 207.119 -80.0383 203.134 -74.6317 199.29C-66.7323 193.66 -58.6798 188.234 -50.4361 183.121C-41.3125 177.46 -31.9403 172.142 -22.1791 167.641C-13.6357 163.701 -4.60143 160.175 4.7708 158.868C5.7399 158.734 6.71538 158.632 7.69086 158.556C8.9086 158.46 8.92136 156.547 7.69086 156.643C-1.5411 157.344 -10.4862 160.5 -18.9403 164.115C-28.8034 168.342 -38.2522 173.513 -47.4331 179.047C-56.002 184.211 -64.3541 189.739 -72.5405 195.484C-78.1192 199.398 -83.6087 203.428 -89.0598 207.515C-94.0456 211.257 -99.0888 214.923 -104.336 218.283C-107.077 220.036 -109.87 221.713 -112.771 223.18C-115.015 224.314 -117.349 225.373 -119.803 225.953C-120.683 226.163 -121.563 226.291 -122.468 226.265C-123.712 226.233 -123.712 228.146 -122.481 228.178Z" fill="#0A0A0A"/>
<path d="M-125.9 246.531C-119.881 248.151 -113.952 250.191 -108.086 252.301C-94.1233 257.325 -80.4667 263.242 -67.3647 270.204C-60.0645 274.087 -53.0513 278.409 -45.5663 281.941C-38.6296 285.212 -31.508 288.1 -24.278 290.657C-6.11369 297.071 12.8348 301.406 32.0191 303.198C54.2766 305.276 76.9612 303.765 98.4918 297.581C123.095 290.51 145.506 277.306 164.002 259.652C166.539 257.229 169 254.73 171.391 252.167C172.233 251.268 170.881 249.91 170.039 250.816C152.149 269.974 130.134 284.976 105.263 293.456C83.9043 300.737 61.1687 303.172 38.6945 301.808C19.1148 300.616 -0.279968 296.625 -18.9033 290.485C-32.2157 286.098 -45.2794 280.654 -57.3995 273.577C-70.8522 265.722 -85.0253 259.123 -99.5363 253.474C-107.627 250.325 -115.845 247.424 -124.197 245.026C-124.593 244.912 -124.988 244.803 -125.383 244.695C-126.582 244.363 -127.092 246.212 -125.9 246.531Z" fill="#0A0A0A"/>
<path d="M184.197 265.757C183.043 268.492 181.258 271.004 179.453 273.344C176.788 276.806 173.792 280.013 170.68 283.08C169.801 283.947 171.152 285.299 172.032 284.432C175.258 281.25 178.344 277.909 181.105 274.313C183.024 271.814 184.815 269.181 186.039 266.267C186.243 265.789 185.823 265.222 185.37 265.088C184.822 264.928 184.394 265.279 184.197 265.757Z" fill="#0A0A0A"/>
<path d="M104.562 69.0057C100.864 76.5417 97.1599 84.0778 93.5003 91.6329C94.0805 91.8816 94.6671 92.1238 95.2473 92.3725C98.4606 84.7026 102.005 77.1474 106.213 69.9748C106.838 68.9101 105.187 67.9473 104.562 69.0057C100.265 76.3249 96.6754 84.0395 93.4047 91.8624C92.9903 92.857 94.6798 93.5711 95.1516 92.602C98.8112 85.0468 102.515 77.5108 106.213 69.9748C106.755 68.8718 105.104 67.9027 104.562 69.0057Z" fill="#0A0A0A"/>
<path d="M104.562 69.0057C100.864 76.5417 97.1599 84.0778 93.5003 91.6329C94.0805 91.8816 94.6671 92.1238 95.2473 92.3725C98.4606 84.7026 102.005 77.1474 106.213 69.9748C106.838 68.9101 105.187 67.9473 104.562 69.0057C100.265 76.3249 96.6754 84.0395 93.4047 91.8624C92.9903 92.857 94.6798 93.5711 95.1516 92.602C98.8112 85.0468 102.515 77.5108 106.213 69.9748C106.755 68.8718 105.104 67.9027 104.562 69.0057Z" fill="#0A0A0A"/>
<path d="M95.1072 91.7208C92.9586 88.4182 90.9949 84.9945 89.1906 81.4942C88.6423 81.813 88.0876 82.1382 87.5393 82.457C89.1842 84.6884 90.6506 87.0474 91.9385 89.5021C92.3338 90.2544 92.7099 91.0131 93.0606 91.7846C93.1562 91.995 93.2455 92.2053 93.3411 92.4157C93.4686 92.709 93.2646 92.2181 93.3602 92.4604C93.5515 92.9386 93.9978 93.2765 94.5397 93.1298C94.9924 93.0023 95.4005 92.4349 95.2092 91.9503C93.6982 88.2333 91.5687 84.7139 89.1969 81.4942C88.4765 80.5188 86.9718 81.3412 87.5456 82.457C89.35 85.9572 91.32 89.3809 93.4622 92.6835C94.1253 93.7164 95.783 92.7537 95.1072 91.7208Z" fill="#0A0A0A"/>
<path d="M95.1072 91.7208C92.9586 88.4182 90.9949 84.9945 89.1906 81.4942C88.6423 81.813 88.0876 82.1382 87.5393 82.457C89.1842 84.6884 90.6506 87.0474 91.9385 89.5021C92.3338 90.2544 92.7099 91.0131 93.0606 91.7846C93.1562 91.995 93.2455 92.2053 93.3411 92.4157C93.4686 92.709 93.2646 92.2181 93.3602 92.4604C93.5515 92.9386 93.9978 93.2765 94.5397 93.1298C94.9924 93.0023 95.4005 92.4349 95.2092 91.9503C93.6982 88.2333 91.5687 84.7139 89.1969 81.4942C88.4765 80.5188 86.9718 81.3412 87.5456 82.457C89.35 85.9572 91.32 89.3809 93.4622 92.6835C94.1253 93.7164 95.783 92.7537 95.1072 91.7208Z" fill="#0A0A0A"/>
<path d="M366.82 108.357C366.794 111.998 365.009 115.058 362.841 115.198C360.673 115.338 358.939 112.495 358.971 108.854C358.997 105.214 360.782 102.154 362.95 102.013C365.117 101.879 366.851 104.717 366.82 108.357Z" fill="#295129"/>
<path d="M358.01 99.9906C357.633 101.725 356.492 102.942 355.459 102.713C354.426 102.49 353.897 100.902 354.273 99.1809C354.65 97.4467 355.791 96.2289 356.824 96.4584C357.857 96.6752 358.392 98.2628 358.01 99.9906Z" fill="#295129"/>
<path d="M368.811 94.3249C368.314 96.0145 367.089 97.1429 366.088 96.8433C365.087 96.55 364.679 94.9433 365.177 93.2538C365.674 91.5642 366.892 90.4294 367.893 90.7354C368.9 91.0287 369.315 92.6354 368.811 94.3249Z" fill="#295129"/>
<path d="M372.693 106.29C372.502 107.335 371.826 108.094 371.189 107.973C370.551 107.858 370.181 106.915 370.373 105.869C370.564 104.817 371.24 104.065 371.877 104.18C372.521 104.301 372.885 105.244 372.693 106.29Z" fill="#295129"/>
<path d="M352.133 91.4735C351.451 92.3534 350.412 92.6913 349.812 92.2259C349.207 91.7604 349.27 90.6638 349.953 89.7903C350.628 88.9105 351.668 88.5726 352.273 89.0444C352.866 89.5034 352.809 90.5937 352.133 91.4735Z" fill="#295129"/>
<path d="M243.418 78.1673C242.602 79.5572 240.721 82.3561 239.204 81.6931C237.202 80.8132 237.591 75.9805 237.591 75.9805C239.51 76.7137 241.461 77.4405 243.418 78.1673Z" fill="white"/>
<path d="M20.3955 330.521C7.7271 329.003 -4.11888 326.472 -15.0723 323.24C-14.8555 320.16 -13.88 312.216 -9.64657 309.047C-4.3484 305.075 13.2612 307.983 17.4819 312.707C20.8418 316.475 20.6251 326.581 20.3955 330.521Z" fill="#1A5652"/>
<path d="M23.6302 254.803C23.6302 259.049 19.4095 262.498 14.2006 262.498C8.99801 262.498 4.77734 259.049 4.77734 254.803C4.77734 250.55 8.99801 247.107 14.2006 247.107C19.4095 247.107 23.6302 250.55 23.6302 254.803Z" fill="#1A5652"/>
<path d="M40.6418 208.16C39.3284 211.15 34.6295 211.985 30.141 210.021C25.6462 208.057 23.064 204.034 24.3774 201.038C25.6908 198.048 30.396 197.212 34.8845 199.176C39.3794 201.146 41.9551 205.163 40.6418 208.16Z" fill="#1A5652"/>
<path d="M31.447 231.456C30.5799 234.733 26.5568 236.506 22.4637 235.428C18.3705 234.351 15.7437 230.812 16.6108 227.535C17.4779 224.258 21.501 222.486 25.5941 223.563C29.6937 224.641 32.3141 228.173 31.447 231.456Z" fill="#1A5652"/>
<path d="M59.0311 269.589C58.3616 273.045 54.1155 275.129 49.5378 274.25C44.9664 273.363 41.7977 269.844 42.4607 266.388C43.1302 262.933 47.3764 260.848 51.9541 261.728C56.5318 262.614 59.7005 266.127 59.0311 269.589Z" fill="#1A5652"/>
<path d="M72.0205 204.646C71.5104 205.826 70.688 206.89 69.5659 207.694C66.2505 210.091 61.6218 209.345 59.2309 206.03C57.3182 203.39 57.4011 199.909 59.2054 197.391C59.7346 197.722 60.2702 198.054 60.7994 198.373C61.2648 198.659 61.7302 198.94 62.1956 199.214L62.3996 199.335C62.9352 199.654 63.4708 199.966 63.9999 200.272C64.3761 200.496 64.7586 200.719 65.1412 200.929C65.2432 200.993 65.3452 201.05 65.4472 201.101C65.8042 201.305 66.1676 201.509 66.5247 201.707C66.8817 201.911 67.2515 202.109 67.6086 202.306C67.972 202.51 68.3354 202.708 68.6924 202.899C69.0048 203.065 69.33 203.243 69.6488 203.409C70.4457 203.836 71.2299 204.244 72.0205 204.646Z" fill="#1A5652"/>
<path d="M73.864 240.17C72.9777 243.294 68.8208 245.06 64.5938 244.104C60.3603 243.154 57.6379 239.845 58.5369 236.721C59.4231 233.59 63.5736 231.824 67.8071 232.78C72.0405 233.73 74.7502 237.033 73.864 240.17Z" fill="#1A5652"/>
<path d="M91.5921 260.718C91.5921 263.989 87.7221 266.635 82.9467 266.635C78.165 266.635 74.2949 263.983 74.2949 260.718C74.2949 257.448 78.165 254.802 82.9467 254.802C87.7221 254.802 91.5921 257.448 91.5921 260.718Z" fill="#1A5652"/>
<path d="M108.731 218.951C107.533 222.139 103.746 224.466 99.2636 224.466C93.8187 224.466 89.4004 221.03 89.4004 216.783C89.4004 215.387 89.8786 214.08 90.7202 212.945C91.3131 213.168 91.8933 213.392 92.4862 213.608C92.8369 213.736 93.1812 213.87 93.5318 213.997C94.1184 214.214 94.705 214.424 95.2852 214.628C95.7761 214.801 96.2606 214.979 96.7452 215.145C96.8153 215.17 96.8854 215.196 96.962 215.215C97.472 215.394 97.9884 215.572 98.4985 215.738C99.3401 216.031 100.182 216.305 101.01 216.573C101.661 216.79 102.311 216.994 102.961 217.204C103.44 217.357 103.911 217.504 104.39 217.651C105.097 217.867 105.805 218.09 106.519 218.295C107.24 218.511 107.966 218.728 108.687 218.938C108.7 218.945 108.719 218.945 108.731 218.951Z" fill="#1A5652"/>
<path d="M112.465 321.008C100.657 325.535 87.7784 328.972 74.1218 330.572C73.7456 326.224 73.1526 313.982 78.2085 310.367C84.3929 305.955 103.431 301.601 108.671 307.18C111.827 310.54 112.382 317.712 112.465 321.008Z" fill="#1A5652"/>
<path d="M119.645 249.078C119.645 252.241 116.017 254.797 111.535 254.797C107.059 254.797 103.432 252.241 103.432 249.078C103.432 245.916 107.059 243.359 111.535 243.359C116.017 243.359 119.645 245.922 119.645 249.078Z" fill="#1A5652"/>
<path d="M152.576 228.905C151.282 232.456 146.844 235.07 141.572 235.07C135.279 235.07 130.172 231.34 130.172 226.744C130.172 225.934 130.331 225.156 130.625 224.423C136.643 225.73 142.318 226.839 147.526 227.885C147.96 227.968 148.394 228.051 148.821 228.146C149.369 228.261 149.917 228.363 150.453 228.478C151.167 228.618 151.875 228.765 152.576 228.905Z" fill="#1A5652"/>
<path d="M171.361 283.753C166.994 288.031 161.728 292.59 155.671 297.123C155.377 294.458 154.593 285.226 157.029 280.349C159.891 274.61 169.608 269.701 170.711 274.362C171.355 277.103 171.419 281.005 171.361 283.753Z" fill="#1A5652"/>
<path d="M211.41 111.686C209.727 112.655 208.306 113.528 207.228 114.274C207.228 114.274 206.355 110.844 207.228 106.464C208.102 102.084 211.717 104.66 211.41 111.686Z" fill="white"/>
<path d="M211.683 65.4346C211.683 65.4346 210.943 71.6891 209.145 70.4331C207.373 69.209 206.627 63.2095 206.602 62.9863C208.011 63.7195 209.726 64.542 211.683 65.4346Z" fill="white"/>
<path d="M226.75 103.678C224.894 104.628 223.039 105.572 221.228 106.503C221.228 106.503 221.094 99.9996 223.167 98.1252C225.239 96.2507 226.756 99.9741 226.75 103.678Z" fill="white"/>
<path d="M227.882 126.469C225.676 126.342 223.572 126.138 221.589 125.863C221.551 125.672 220.62 120.565 222.207 118.844C223.801 117.122 227.773 126.208 227.882 126.469Z" fill="white"/>
<path d="M226.701 71.7528C226.701 71.7528 225.572 78.0647 223.953 77.3698C222.327 76.6748 221.199 72.0588 221.282 69.5596C223.016 70.28 224.826 71.0132 226.701 71.7528Z" fill="white"/>
<path d="M253.745 124.482C251.233 124.947 248.829 125.342 246.598 125.661C246.598 125.661 245.839 119.917 248.09 118.629C250.34 117.347 253.745 124.482 253.745 124.482Z" fill="white"/>
<path d="M263.441 85.3537C262.97 86.7436 261.465 90.7794 260.222 89.9505C258.717 88.9559 258.57 83.6514 258.57 83.6514C260.209 84.2252 261.835 84.799 263.441 85.3537Z" fill="white"/>
<path d="M277.427 119.227C275.252 119.769 272.989 120.324 270.675 120.866C270.643 120.662 269.903 115.485 272.485 113.993C275.106 112.463 277.427 119.227 277.427 119.227Z" fill="white"/>
<path d="M289.961 93.8519C289.961 93.8519 287.494 100.036 285.62 99.9598C282.738 99.8387 284.287 92.207 284.287 92.207C285.683 92.6278 286.997 93.0104 288.195 93.3546C288.782 93.5204 289.375 93.6862 289.961 93.8519Z" fill="white"/>
<path d="M299.018 113.692C298.514 113.845 298.042 113.979 297.602 114.107C296.384 114.464 294.835 114.91 293.012 115.414C293.012 115.414 294.178 107.546 295.428 106.692C296.678 105.831 298.597 107.922 299.018 113.692Z" fill="white"/>
<path d="M126.98 58.2421C124.072 65.1597 118.047 72.4279 111.958 78.4657C103.288 87.0537 94.4828 93.1488 94.2852 92.1988C94.2852 92.1988 94.2915 92.1861 94.3043 92.1542C94.3106 92.1415 94.317 92.1287 94.3234 92.1096C94.808 91.1086 99.4303 81.6152 105.385 69.4824C121.018 42.864 130.907 48.9017 126.98 58.2421Z" fill="#39BC42"/>
<path d="M132.769 14.7094C129.778 20.2563 123.422 32.9311 116.721 46.4602C112.864 54.2577 108.898 62.3292 105.385 69.4891C101.942 75.342 98.2253 82.7824 94.3234 92.1163C94.3107 92.1291 94.3106 92.1482 94.3043 92.161C94.2915 92.1928 94.2852 92.2056 94.2852 92.2056C95.3308 79.4734 96.4784 63.5534 101.005 47.5377C104.002 36.9222 108.49 26.2557 115.408 16.4436C132.769 -8.16007 140.579 0.236677 132.769 14.7094Z" fill="#39BC42"/>
<path d="M95.2431 92.3716C98.4565 84.7017 102.001 77.1465 106.209 69.9739C105.661 69.6551 105.106 69.33 104.558 69.0112C100.86 76.5472 97.1558 84.0832 93.4962 91.6384C92.9606 92.7414 94.6119 93.7105 95.1475 92.6011C98.8071 85.046 102.511 77.5099 106.209 69.9739C106.745 68.8773 105.189 67.9337 104.558 69.0112C100.261 76.3304 96.6713 84.045 93.4006 91.8679C93.1965 92.3461 93.6173 92.9135 94.07 93.0474C94.6119 93.1941 95.0455 92.8434 95.2431 92.3716Z" fill="#0A0A0A"/>
<path d="M94.2842 92.2062C94.2842 92.2062 92.2886 87.2778 88.3675 81.9797C82.5083 70.58 78.6829 58.7531 76.7702 49.0749C73.576 32.9062 75.7246 22.6988 82.7123 30.3304C86.2189 34.1686 88.6672 40.7483 90.3695 48.2333C94.7305 67.3093 94.2842 92.2062 94.2842 92.2062Z" fill="#39BC42"/>
<path d="M94.284 92.2063C84.5484 88.5084 77.0761 84.4917 71.9564 80.864C69.1703 78.8875 67.079 77.0258 65.7019 75.4C62.0168 71.0582 63.3429 68.3294 69.929 69.3559C70.3051 69.4133 70.7004 69.4834 71.1084 69.5663C78.7082 71.122 84.4846 76.7325 88.3674 81.9797C90.1525 85.4481 92.1226 88.8846 94.284 92.2063Z" fill="#39BC42"/>
<path d="M95.1072 91.7208C92.9586 88.4182 90.9949 84.9945 89.1906 81.4942C88.6423 81.813 88.0876 82.1382 87.5393 82.457C89.1842 84.6884 90.6506 87.0474 91.9385 89.5021C92.3338 90.2544 92.7099 91.0131 93.0606 91.7846C93.1562 91.995 93.2455 92.2053 93.3411 92.4157C93.4686 92.709 93.2646 92.2181 93.3602 92.4604C93.5515 92.9386 93.9978 93.2765 94.5397 93.1298C94.9924 93.0023 95.4005 92.4349 95.2092 91.9503C93.6982 88.2333 91.5687 84.7139 89.1969 81.4942C88.4765 80.5188 86.9718 81.3412 87.5456 82.457C89.35 85.9572 91.32 89.3809 93.4622 92.6835C94.1253 93.7164 95.783 92.7537 95.1072 91.7208Z" fill="#0A0A0A"/>
<path d="M290.45 143.406C289.066 144.528 288.078 146.639 289.251 148.245C289.895 149.119 290.832 149.629 291.814 150.03C292.279 150.222 292.885 149.826 292.993 149.361C293.121 148.806 292.821 148.392 292.324 148.181C292.471 148.245 292.337 148.188 292.305 148.175C292.254 148.15 292.203 148.13 292.152 148.105C292.056 148.06 291.961 148.009 291.865 147.965C291.693 147.875 291.527 147.78 291.368 147.671C291.329 147.646 291.298 147.62 291.259 147.595C291.227 147.576 291.151 147.544 291.253 147.595C291.368 147.646 291.266 147.608 291.227 147.576C291.196 147.55 291.17 147.525 291.138 147.499C291.03 147.404 290.941 147.289 290.832 147.187C290.749 147.104 290.947 147.359 290.89 147.263C290.87 147.238 290.851 147.212 290.832 147.187C290.8 147.142 290.775 147.098 290.743 147.047C290.717 146.996 290.698 146.932 290.66 146.887C290.666 146.894 290.749 147.129 290.705 146.996C290.692 146.964 290.679 146.932 290.673 146.894C290.66 146.849 290.647 146.804 290.634 146.753C290.628 146.728 290.628 146.702 290.615 146.677C290.583 146.543 290.634 146.811 290.634 146.811C290.647 146.709 290.622 146.6 290.628 146.498C290.628 146.473 290.634 146.447 290.634 146.422C290.634 146.288 290.615 146.562 290.615 146.562C290.628 146.517 290.634 146.46 290.641 146.409C290.66 146.307 290.692 146.211 290.724 146.116C290.756 146.026 290.845 145.893 290.698 146.167C290.717 146.128 290.736 146.084 290.756 146.046C290.8 145.956 290.845 145.867 290.896 145.784C290.94 145.708 290.992 145.631 291.043 145.555C291.068 145.516 291.1 145.478 291.125 145.44C291.247 145.268 290.985 145.612 291.087 145.485C291.189 145.363 291.291 145.242 291.4 145.128C291.527 144.994 291.655 144.866 291.795 144.751C292.184 144.433 292.146 143.725 291.795 143.4C291.387 143.024 290.87 143.068 290.45 143.406Z" fill="#67A7F4"/>
<path d="M277.163 140.273C275.269 140.86 274.109 142.798 274.198 144.73C274.256 145.909 274.644 147.019 275.148 148.083C275.371 148.549 276.041 148.67 276.455 148.428C276.933 148.147 277.023 147.586 276.799 147.121C276.608 146.719 276.481 146.413 276.34 145.935C276.283 145.744 276.232 145.546 276.194 145.348C276.175 145.259 276.168 145.163 276.143 145.074C276.111 144.966 276.149 145.125 276.149 145.138C276.143 145.074 276.136 145.017 276.13 144.953C276.117 144.787 276.111 144.628 276.111 144.462C276.111 144.398 276.111 144.328 276.117 144.264C276.117 144.22 276.124 143.952 276.124 144.111C276.13 144.264 276.136 144.048 276.143 144.003C276.155 143.939 276.168 143.869 276.187 143.805C276.219 143.671 276.27 143.544 276.309 143.416C276.36 143.263 276.206 143.627 276.302 143.429C276.328 143.385 276.347 143.34 276.366 143.295C276.423 143.187 276.481 143.085 276.551 142.989C276.583 142.945 276.615 142.906 276.64 142.862C276.653 142.836 276.487 143.04 276.615 142.9C276.678 142.83 276.742 142.753 276.812 142.683C276.876 142.619 276.946 142.556 277.016 142.498C277.22 142.32 276.831 142.619 277.067 142.46C277.188 142.377 277.309 142.301 277.437 142.231C277.494 142.199 277.552 142.173 277.616 142.141C277.641 142.129 277.667 142.122 277.692 142.109C277.813 142.046 277.431 142.205 277.545 142.173C277.59 142.16 277.628 142.141 277.666 142.129C278.157 141.976 278.476 141.459 278.336 140.949C278.202 140.452 277.654 140.114 277.163 140.273Z" fill="#67A7F4"/>
<path d="M322.436 166.395C323.316 167.472 324.521 168.346 325.668 169.098C328.633 171.049 332.089 172.248 335.583 172.796C339.752 173.453 343.979 173.23 348.155 172.783C352.402 172.331 356.616 171.629 360.837 170.973C364.528 170.399 368.366 169.653 372.115 169.901C373.346 169.984 373.339 168.072 372.115 167.989C368.934 167.778 365.688 168.327 362.552 168.792C358.478 169.391 354.416 170.105 350.329 170.622C342.698 171.585 334.492 172.069 327.587 168.046C326.204 167.236 324.814 166.306 323.788 165.05C323.01 164.087 321.664 165.445 322.436 166.395Z" fill="#67A7F4"/>
<path d="M304.639 175.388C306.169 177.447 309.178 178.167 311.569 178.422C313.202 178.595 314.84 178.531 316.466 178.346C316.976 178.288 317.422 177.951 317.422 177.39C317.422 176.918 316.982 176.376 316.466 176.433C314.776 176.624 313.049 176.695 311.359 176.484C310.772 176.414 310.192 176.293 309.625 176.14C309.351 176.063 309.076 175.981 308.802 175.891C308.681 175.847 308.554 175.802 308.433 175.757C308.375 175.732 308.318 175.713 308.26 175.687C308.337 175.719 308.343 175.719 308.279 175.694C307.922 175.534 307.572 175.356 307.234 175.152C307.1 175.069 306.966 174.98 306.839 174.89C306.781 174.852 306.571 174.68 306.813 174.877C306.768 174.839 306.724 174.807 306.679 174.769C306.539 174.648 306.411 174.527 306.278 174.399C306.188 174.31 306.01 174.055 306.284 174.431C305.978 174.017 305.455 173.806 304.977 174.087C304.575 174.316 304.327 174.973 304.639 175.388Z" fill="#67A7F4"/>
<path d="M289.126 157.497C289.578 158.115 290.21 158.594 290.854 159.002C292.53 160.073 294.52 160.672 296.458 161.042C298.319 161.392 300.213 161.545 302.1 161.571C303.331 161.59 303.331 159.677 302.1 159.658C299.014 159.607 295.603 159.25 292.887 157.943C292.499 157.752 292.116 157.548 291.753 157.312C291.619 157.229 291.498 157.134 291.37 157.051C291.147 156.898 291.453 157.121 291.332 157.025C291.281 156.98 291.223 156.942 291.172 156.898C291.032 156.776 290.898 156.649 290.764 156.515C290.656 156.407 290.541 156.228 290.771 156.541C290.465 156.126 289.942 155.916 289.464 156.196C289.056 156.432 288.82 157.082 289.126 157.497Z" fill="#67A7F4"/>
<path d="M18.1204 96.9043C18.7962 97.357 19.5358 97.7332 20.2626 98.0966C22.4304 99.1868 24.6937 100.086 26.9889 100.876C27.4799 101.042 28.0346 100.685 28.1685 100.207C28.3151 99.6841 27.99 99.1996 27.499 99.0274C25.3313 98.2815 23.2018 97.4335 21.1552 96.4007C20.4539 96.05 19.7462 95.6866 19.0959 95.2467C18.6687 94.9598 18.0375 95.1638 17.7889 95.591C17.502 96.0691 17.6933 96.6174 18.1204 96.9043Z" fill="#67A7F4"/>
<path d="M52.6335 114.315C54.9798 114.8 57.3834 115.099 59.7615 115.361C65.5123 116.005 71.3142 116.234 77.0969 116.037C81.2666 115.896 85.4235 115.52 89.5486 114.902C90.7599 114.723 90.2435 112.881 89.0385 113.059C77.9704 114.71 66.4623 114.615 55.4069 112.862C54.6482 112.74 53.8959 112.619 53.1436 112.466C51.9449 112.224 51.4285 114.067 52.6335 114.315Z" fill="#67A7F4"/>
<path d="M102.67 119.579C103.709 119.585 104.774 119.439 105.788 119.241C107.732 118.865 109.632 118.132 111.156 116.837C111.552 116.506 111.5 115.83 111.156 115.486C110.767 115.097 110.2 115.148 109.805 115.486C108.555 116.551 106.885 117.099 105.189 117.418C105.004 117.456 104.812 117.488 104.621 117.513C104.538 117.526 104.455 117.539 104.372 117.552C104.608 117.52 104.347 117.552 104.315 117.558C104.028 117.59 103.741 117.622 103.448 117.641C103.187 117.66 102.925 117.673 102.664 117.673C101.44 117.66 101.433 119.573 102.67 119.579Z" fill="#67A7F4"/>
<path d="M119.698 106.421C121.241 105.962 122.752 105.312 124.193 104.592C126.82 103.278 129.358 101.544 131.034 99.0958C131.729 98.0757 130.078 97.1194 129.383 98.1331C127.872 100.333 125.468 101.831 123.116 102.998C121.821 103.635 120.616 104.158 119.188 104.579C118.015 104.93 118.513 106.772 119.698 106.421Z" fill="#67A7F4"/>
<path d="M7.37348 96.0779C7.25871 96.9642 7.39896 97.9269 7.59023 98.7876C8.03015 100.777 9.13315 102.613 10.6697 103.946C11.9448 105.055 13.4367 105.826 15.0243 106.381C15.5088 106.553 16.0699 106.183 16.2038 105.712C16.3504 105.182 16.0252 104.704 15.5343 104.532C14.3676 104.118 13.1562 103.518 12.2317 102.766C11.3838 102.071 10.8163 101.421 10.3063 100.541C10.1979 100.356 10.0958 100.165 10.0066 99.9735C9.96196 99.8842 9.9237 99.8013 9.88545 99.7121C9.82807 99.5782 9.94283 99.8523 9.88545 99.7184C9.85995 99.6547 9.83445 99.5973 9.81533 99.5336C9.68144 99.1765 9.5667 98.8131 9.47744 98.4433C9.43918 98.2839 9.40728 98.1182 9.3754 97.9588C9.36265 97.8759 9.3499 97.793 9.33077 97.7101C9.28614 97.4678 9.33718 97.8185 9.32443 97.6719C9.3053 97.4105 9.27341 97.1554 9.26703 96.894C9.26065 96.6199 9.26064 96.3457 9.29252 96.0716C9.35627 95.5615 8.80797 95.1152 8.33617 95.1152C7.75598 95.1216 7.43723 95.5615 7.37348 96.0779Z" fill="#67A7F4"/>
<path d="M28.8444 113.878C29.144 114.439 29.6031 114.949 30.0557 115.389C31.1651 116.46 32.5359 117.225 33.9959 117.697C35.1754 118.073 36.425 118.238 37.6619 118.27C38.8924 118.302 38.8924 116.39 37.6619 116.358C36.6801 116.332 35.8002 116.224 34.8566 115.956C34.4996 115.854 33.9959 115.682 33.7536 115.573C33.5496 115.484 33.1224 115.267 32.8419 115.108C32.5614 114.942 32.2936 114.764 32.0258 114.572C31.8282 114.432 32.0896 114.636 31.9684 114.528C31.9174 114.483 31.86 114.445 31.809 114.4C31.7006 114.311 31.5986 114.215 31.4966 114.126C31.3245 113.967 31.1651 113.801 31.0121 113.629C30.9483 113.559 30.891 113.489 30.8272 113.412C30.6487 113.195 30.9228 113.552 30.7889 113.367C30.6869 113.221 30.5786 113.074 30.4893 112.915C29.9155 111.831 28.2642 112.794 28.8444 113.878Z" fill="#67A7F4"/>
<path d="M277.417 269.534C281.981 269.955 286.502 270.688 290.952 271.791C294.197 272.601 297.391 273.614 300.624 274.462C303.875 275.317 307.184 275.903 310.538 276.094C314.631 276.324 318.731 275.992 322.792 275.482C331.897 274.335 340.854 272.295 349.889 270.739C357.871 269.362 365.936 268.935 374.014 268.533C381.684 268.144 389.36 267.908 397.024 267.443C397.611 267.404 398.191 267.366 398.777 267.328C399.995 267.239 400.008 265.326 398.777 265.415C391.617 265.938 384.426 266.123 377.253 266.461C369.13 266.85 360.931 267.111 352.879 268.329C343.902 269.687 335.052 271.759 326.076 273.117C318.399 274.277 310.672 274.857 303.047 273.098C299.884 272.371 296.792 271.376 293.662 270.528C289.607 269.432 285.494 268.603 281.325 268.061C280.024 267.889 278.717 267.749 277.41 267.628C276.192 267.506 276.199 269.419 277.417 269.534Z" fill="#67A7F4"/>
<path d="M273.976 349.896C276.373 350.011 278.815 350.61 281.225 351.146C284.706 351.924 288.187 352.721 291.7 353.371C301.021 355.093 310.54 355.794 319.976 354.634C326.422 353.843 332.721 352.249 338.759 349.865C339.887 349.418 339.396 347.569 338.249 348.022C328.092 352.039 317.247 353.715 306.345 353.218C298.267 352.848 290.38 351.248 282.513 349.482C279.714 348.857 276.851 348.124 273.976 347.99C272.745 347.92 272.745 349.839 273.976 349.896Z" fill="#67A7F4"/>
<path d="M147.09 55.1304C155.251 55.1878 163.494 54.5694 171.553 53.3389C174.964 52.8161 178.356 52.153 181.684 51.2222C182.87 50.8906 182.366 49.048 181.174 49.3796C170.998 52.2167 160.192 53.001 149.665 53.1922C148.805 53.205 147.944 53.2241 147.083 53.2177C145.859 53.2114 145.859 55.1241 147.09 55.1304Z" fill="#67A7F4"/>
<path d="M175.91 59.1978C178.027 59.2042 180.143 59.0958 182.247 58.93C186.003 58.6304 189.866 58.1841 193.437 56.9281C194.591 56.52 194.093 54.6711 192.927 55.0855C189.446 56.3096 185.703 56.7559 182.043 57.0365C180.003 57.1959 177.95 57.2979 175.904 57.2915C174.679 57.2787 174.68 59.1914 175.91 59.1978Z" fill="#67A7F4"/>
<path d="M318.006 37.7368C321.411 37.9153 324.822 37.9854 328.226 38.0237C334.997 38.0874 341.8 37.9663 348.545 37.2905C351.982 36.9462 355.444 36.4808 358.766 35.518C359.945 35.1738 359.441 33.3312 358.256 33.6755C352.129 35.4479 345.542 35.7603 339.205 35.9835C333.339 36.1939 327.461 36.162 321.595 35.9707C320.397 35.9325 319.198 35.8878 318.006 35.8241C316.782 35.7603 316.782 37.673 318.006 37.7368Z" fill="#67A7F4"/>
<path d="M228.144 358.013C230.159 357.732 232.155 357.267 234.112 356.744C238.288 355.634 242.419 354.136 246.181 352C248.457 350.706 250.612 349.15 252.436 347.257C253.29 346.371 251.938 345.013 251.084 345.905C247.985 349.125 243.918 351.305 239.78 352.906C236.503 354.174 233.098 355.137 229.655 355.813C228.986 355.947 228.31 356.074 227.634 356.17C226.423 356.342 226.939 358.185 228.144 358.013Z" fill="#67A7F4"/>
<path d="M154.115 342.043C156.43 341.877 158.75 341.405 160.995 340.831C165.643 339.639 170.227 337.746 174.071 334.832C176.539 332.964 178.668 330.707 180.262 328.042C180.893 326.983 179.242 326.021 178.611 327.079C173.976 334.819 164.756 338.53 156.2 339.881C156.034 339.907 155.869 339.932 155.697 339.958C155.556 339.977 155.295 340.015 155.429 339.996C155.193 340.028 154.963 340.054 154.727 340.079C154.523 340.098 154.319 340.124 154.115 340.136C152.898 340.219 152.885 342.132 154.115 342.043Z" fill="#67A7F4"/>
<path d="M132.118 184.779C133.189 184.575 133.801 184.518 134.911 184.41C137.403 184.167 139.922 184.104 142.421 184.206C149.568 184.499 156.785 186.252 162.772 190.288C167.701 193.61 173.553 195.21 179.368 196.134C185.119 197.053 190.959 197.352 196.78 197.295C199.936 197.263 203.105 197.161 206.248 196.842C207.459 196.721 207.472 194.802 206.248 194.929C203.64 195.197 201.013 195.299 198.399 195.357C192.751 195.484 187.057 195.293 181.453 194.528C175.683 193.737 169.645 192.405 164.659 189.249C163.142 188.286 161.676 187.298 160.056 186.494C158.322 185.634 156.518 184.913 154.675 184.333C151.347 183.281 147.879 182.682 144.404 182.408C140.19 182.076 135.778 182.127 131.608 182.937C130.403 183.166 130.913 185.009 132.118 184.779Z" fill="#67A7F4"/>
<path d="M20.7796 375.866C22.6285 376.28 24.5349 376.523 26.4157 376.752C31.3951 377.364 36.4255 377.613 41.4431 377.606C49.062 377.6 56.6809 376.975 64.217 375.834C73.8825 374.374 83.4014 372.021 92.6524 368.865C103.848 365.046 114.648 360.067 124.862 354.106C126.265 353.283 127.661 352.448 129.045 351.594C130.09 350.95 129.128 349.292 128.082 349.942C117.855 356.261 107.036 361.616 95.7382 365.754C86.4043 369.171 76.7706 371.773 66.9713 373.469C59.3205 374.788 51.574 375.541 43.8085 375.681C38.4848 375.777 33.142 375.585 27.8438 375.018C27.3784 374.967 26.9194 374.916 26.4539 374.859C26.2627 374.833 26.065 374.814 25.8738 374.788C25.7654 374.776 25.6634 374.763 25.555 374.75C25.3191 374.718 25.555 374.75 25.4275 374.731C24.758 374.642 24.0886 374.54 23.4191 374.431C22.7305 374.317 22.0484 374.176 21.3662 374.055C21.3407 374.049 21.3088 374.042 21.2833 374.036C20.091 373.756 19.581 375.598 20.7796 375.866Z" fill="#67A7F4"/>
<path d="M118.049 389.555C121.99 389.785 125.981 389.625 129.914 389.345C138.171 388.758 146.498 387.387 154.276 384.486C158.924 382.752 163.348 380.457 167.212 377.327C168.168 376.549 166.81 375.204 165.86 375.975C159.198 381.375 150.699 384.155 142.392 385.8C135.716 387.12 128.888 387.713 122.085 387.725C120.74 387.725 119.388 387.719 118.049 387.642C116.819 387.572 116.825 389.485 118.049 389.555Z" fill="#67A7F4"/>
<path d="M155.318 319.318C159.334 318.885 162.949 316.947 165.876 314.205C167.062 313.096 168.139 311.846 169.044 310.501C169.65 309.602 170.262 308.582 170.492 307.511C170.747 306.312 168.904 305.796 168.649 307.001C168.464 307.868 168.018 308.595 167.47 309.417C166.666 310.628 165.704 311.725 164.652 312.726C162.101 315.149 158.862 317.017 155.318 317.399C154.106 317.54 154.093 319.452 155.318 319.318Z" fill="#67A7F4"/>
<path d="M214.043 48.5094C213.354 46.992 211.709 45.8954 210.217 45.3152C207.361 44.1931 203.574 44.2951 201.215 46.4373C197.166 50.1161 198.078 57.9135 202.056 61.3117C204.211 63.1479 207.029 64.321 209.561 65.5133C214.074 67.63 218.69 69.5491 223.313 71.4235C235.108 76.2053 247.056 80.6172 259.061 84.8443C269.919 88.6633 280.828 92.3484 291.928 95.396C300.344 97.7104 308.855 99.7697 317.143 102.518C323.392 104.583 329.997 107.063 334.963 111.539C335.952 112.432 336.882 113.407 337.686 114.478C338.419 115.454 340.077 114.498 339.337 113.516C335.62 108.562 330.073 105.521 324.463 103.187C317.156 100.146 309.435 98.1439 301.81 96.091C295.281 94.3377 288.746 92.6099 282.294 90.6015C277.053 88.9694 271.844 87.2352 266.648 85.4564C254.764 81.3887 242.95 77.0915 231.238 72.5265C226.144 70.5437 221.069 68.5099 216.051 66.3421C212.551 64.8311 209.025 63.2946 205.697 61.4265C205.174 61.1332 204.658 60.8336 204.16 60.502C203.975 60.3809 203.797 60.2534 203.618 60.1259C203.357 59.941 203.695 60.196 203.523 60.0557C203.44 59.9856 203.357 59.9218 203.274 59.8453C201.412 58.1494 200.494 55.3441 200.533 52.8831C200.571 50.4285 201.68 47.6551 204.211 46.8517C206.647 46.0803 209.943 46.6541 211.728 48.5604C212.021 48.8728 212.168 49.0194 212.385 49.4912C212.895 50.5942 214.546 49.6252 214.043 48.5094Z" fill="#0A0A0A"/>
<path d="M203.814 114.183C202.89 115.12 202.214 116.376 202.31 117.728C202.456 119.883 204.305 121.407 206.04 122.408C210.247 124.843 215.367 125.889 220.117 126.616C226.525 127.591 233.047 127.801 239.505 127.361C244.644 127.011 249.738 126.207 254.794 125.257C265.002 123.338 275.12 120.89 285.155 118.219C292.392 116.3 299.532 114.049 306.801 112.251C311.404 111.116 316.058 110.09 320.763 109.459C324.263 108.987 328.235 108.47 331.697 109.446C332.309 109.618 332.698 109.771 333.247 110.115C334.292 110.778 335.249 109.121 334.209 108.464C331.538 106.774 327.783 106.947 324.761 107.144C320.272 107.438 315.816 108.266 311.429 109.216C303.995 110.829 296.733 113.054 289.408 115.088C280.099 117.67 270.708 120.004 261.259 122.012C250.37 124.333 239.435 126.137 228.259 125.544C222.897 125.257 217.49 124.524 212.339 122.95C210.152 122.28 207.869 121.483 206.008 120.131C205.325 119.634 204.618 118.99 204.331 118.174C204.133 117.619 204.171 117.173 204.414 116.606C204.56 116.255 204.854 115.873 205.172 115.554C206.033 114.661 204.682 113.31 203.814 114.183Z" fill="#0A0A0A"/>
<path d="M235.545 53.7671C235.162 53.0913 230.98 45.8549 225.783 44.4841C220.479 43.0879 215.34 46.3331 215.072 46.5052C216.239 45.3704 217.96 44.2036 220.479 43.1644C228.423 39.8809 232.401 46.2502 235.545 53.7671Z" fill="#FFBC00"/>
<path d="M168.137 302.157C167.564 302.992 166.971 303.827 166.371 304.675C162.827 309.655 158.561 314.322 153.677 318.676C153.671 318.683 153.665 318.683 153.665 318.683C113.033 354.864 29.6772 369.069 -33.4865 355.834C-54.048 351.53 -70.1338 345.766 -82.917 339.556C-82.917 339.556 -82.917 339.556 -82.9233 339.556C-114.132 324.408 -125.691 306.613 -134.847 300.843C-147.757 292.721 -163.053 291.764 -170.703 294.155C-170.703 294.155 -170.716 294.155 -170.729 294.162C-171.309 294.232 -179.923 295.284 -195.396 293.416C-195.403 293.416 -195.403 293.416 -195.409 293.416C-198.52 292.53 -202.04 291.356 -206.082 289.852C-226.643 282.201 -229.041 268.442 -230.947 258.77C-231.451 256.188 -231.872 253.772 -232.203 251.521C-232.694 248.244 -233.013 245.324 -233.217 242.78C-232.203 251.521 -182.97 246.159 -129.937 288.577C-32.5365 366.468 65.0749 361.514 119.804 336.158C156.228 319.275 162.718 307.085 168.137 302.157Z" fill="#226282"/>
<path d="M332.028 70.4789C332.2 70.5554 332.366 70.3642 332.264 70.2048C331.645 69.2038 330.172 67.2528 328.069 67.3293C325.238 67.4313 325.627 69.9115 329.025 69.8669C330.396 69.8477 331.435 70.2048 332.028 70.4789Z" fill="#CFEFFF"/>
<path d="M20.3955 330.521C7.7271 329.003 -4.11888 326.472 -15.0723 323.24C-15.034 322.672 -14.9639 321.933 -14.8555 321.091C-14.2689 320.065 -12.8982 318.802 -9.81234 317.559C-3.3538 314.958 17.6668 320.492 20.2489 321.187C20.2553 321.218 20.2616 321.25 20.2616 321.276C20.6251 324.853 20.5167 328.499 20.3955 330.521Z" fill="#2B3451"/>
<path d="M382.97 96.981C383.365 99.2444 383.741 101.489 384.105 103.695C380.643 83.2096 374.943 64.1974 368.701 59.9767L371.443 59.5049C374.038 62.3931 376.403 67.0027 378.22 74.1051C380.005 81.0674 381.586 89.1135 382.97 96.981C382.964 96.9746 382.964 96.9746 382.97 96.981Z" fill="#FFBC00"/>
<path d="M36.5586 102.535C36.5586 102.535 38.5223 97.0071 45.6694 96.0762L40.3138 93.5068C40.3138 93.5068 32.899 94.2209 32.4782 101.547C32.0637 108.872 36.5586 102.535 36.5586 102.535Z" fill="#2B3451"/>
<path d="M45.6674 96.081C45.6674 96.081 32.4825 92.5872 30.0597 88.9658H30.0534C29.588 88.2581 29.5178 87.5504 30.0406 86.8618C31.8386 84.4646 35.5811 85.3891 39.0622 87.9648H39.0686C41.7463 89.9477 44.2839 92.906 45.6674 96.081Z" fill="#39BC42"/>
<path d="M69.9215 69.3498C63.3354 68.3233 62.0093 71.0521 65.6944 75.3939C63.9475 77.6828 61.9456 80.0928 59.6949 82.5729C55.7675 86.9148 51.0814 91.4797 45.6621 96.083C45.6621 96.083 49.717 64.9634 66.2109 56.1841C76.2716 50.8285 77.2854 57.6122 69.9215 69.3498Z" fill="#39BC42"/>
<path d="M45.6706 96.0859C44.2871 92.9172 41.7495 89.9525 39.0717 87.9697H39.0654C24.3121 67.9756 28.2012 57.4558 36.4131 65.8462C45.6706 75.3076 45.6706 96.0859 45.6706 96.0859Z" fill="#39BC42"/>
<path d="M37.7909 93.5059C37.7909 93.5059 29.4579 92.9002 28.1445 100.768L32.48 101.546L39.5187 94.1498L37.7909 93.5059Z" fill="#2B3451"/>
<path d="M82.5256 104.678C82.5256 104.678 84.5785 95.8859 94.2759 92.2008L88.7291 89.9629C88.7291 89.9629 75.0342 91.6014 67.581 104.308C60.1279 117.015 70.8008 112.354 71.4957 111.251C72.1906 110.148 82.5256 104.678 82.5256 104.678Z" fill="#2B3451"/>
<path d="M118.967 89.9523C116.71 91.4761 113.835 92.2667 111.259 93.0509C108.384 93.9243 105.381 94.7978 102.378 95.0719C100.491 95.2441 98.5844 95.2887 96.6972 95.4481C93.7644 95.7031 90.8316 95.9964 87.8988 96.2897C84.9086 96.5894 81.9185 96.8954 78.9283 97.1887C76.9582 97.3799 74.9817 97.6286 72.9989 97.6924C70.251 97.7816 67.484 97.5712 64.7488 97.3991C61.6439 97.2078 58.5453 96.9655 55.4403 96.787C48.2741 96.3662 40.8847 97.4437 33.9225 95.1548C32.7493 94.7723 32.2457 96.6148 33.4124 96.9974C37.1613 98.2279 41.2226 98.5021 45.1436 98.6041C47.9489 98.6806 50.7542 98.4765 53.5595 98.5913C59.508 98.84 65.4438 99.5285 71.405 99.6051C73.3623 99.6306 75.3005 99.4393 77.2451 99.2544C80.1588 98.9802 83.0661 98.6806 85.9734 98.3873C91.0867 97.8772 96.2382 97.1887 101.377 97.0293C104.622 96.9336 107.874 96.0283 110.972 95.123C112.758 94.6002 114.524 94.0263 116.258 93.3505C117.514 92.8596 118.814 92.3495 119.943 91.5908C120.95 90.9214 119.994 89.2637 118.967 89.9523Z" fill="#0A0A0A"/>
<path d="M104.942 83.0516C105.688 81.8785 106.58 80.7819 107.754 80.0104C108.806 79.3155 109.979 78.8756 111.164 78.4612C115.066 77.084 118.726 75.4391 122.163 73.0992C123.419 72.2449 124.655 71.1164 126.224 70.9251C127.059 70.8231 127.971 71.0144 128.411 71.7922C129.01 72.8633 130.668 71.9006 130.062 70.8295C128.933 68.8084 126.345 68.6745 124.407 69.4651C122.883 70.0835 121.621 71.1993 120.25 72.0791C119.109 72.8187 117.929 73.5073 116.718 74.1321C114.958 75.0374 113.128 75.7515 111.266 76.4018C109.87 76.8927 108.436 77.3709 107.161 78.1296C105.541 79.0987 104.304 80.5078 103.297 82.0889C102.627 83.1282 104.285 84.0909 104.942 83.0516Z" fill="#39BC42"/>
<path d="M49.6798 90.2937C48.5449 88.6679 47.2953 86.9592 46.7789 85.021C46.3135 83.2741 46.696 81.5335 47.3463 79.8822C47.7289 78.9068 48.207 77.995 48.4238 76.9558C48.6278 75.9931 48.6915 74.9921 48.6278 74.0103C48.5194 72.3016 48.0986 70.6184 47.4738 69.0245C47.1104 68.1 46.7024 67.1628 46.1859 66.3085C45.5484 65.2565 43.8907 66.2192 44.5346 67.2712C45.7588 69.2923 46.594 71.7597 46.7215 74.1186C46.7725 75.0559 46.7151 75.9867 46.4729 76.892C46.1923 77.9632 45.6376 78.9323 45.2742 79.9779C44.6877 81.6738 44.4581 83.4781 44.8598 85.2442C45.3635 87.4693 46.7406 89.4266 48.0285 91.2564C48.7298 92.2574 50.3939 91.3074 49.6798 90.2937Z" fill="#39BC42"/>
<path d="M359.735 252.848C369.018 255.673 390.44 257.388 395.904 253.779C401.368 250.17 406.016 242.207 388.553 240.683C371.09 239.16 349.578 242.035 352.766 247.135C355.954 252.236 359.735 252.848 359.735 252.848Z" fill="#45557C"/>
<path d="M112.466 321.01C100.659 325.537 87.7797 328.973 74.123 330.574C74.1167 330.484 74.1039 330.401 74.0975 330.325C74.0274 329.4 73.9445 328.183 73.9062 326.786C98.8733 324.536 103.426 316.643 103.426 316.643C103.426 316.643 104.312 304.994 97.0435 304.657C97.2667 304.637 97.4962 304.625 97.713 304.612C102.418 304.331 106.601 304.988 108.666 307.181C111.829 310.541 112.383 317.714 112.466 321.01Z" fill="#2B3451"/>
<path d="M20.4007 331.48C34.0956 333.119 47.9372 333.476 61.7022 332.628C65.8528 332.373 69.997 332.003 74.1284 331.531C75.3398 331.391 75.3526 329.478 74.1284 329.619C60 331.232 45.7249 331.608 31.5326 330.62C27.8156 330.365 24.105 330.008 20.4007 329.568C19.183 329.421 19.1957 331.334 20.4007 331.48Z" fill="#0A0A0A"/>
<path d="M112.728 321.929C125.058 317.192 136.859 311.09 147.87 303.784C150.688 301.916 153.449 299.971 156.152 297.95C157.128 297.223 156.171 295.559 155.189 296.299C145.141 303.803 134.316 310.274 122.935 315.547C119.416 317.179 115.839 318.69 112.218 320.08C111.083 320.526 111.58 322.375 112.728 321.929Z" fill="#0A0A0A"/>
<path d="M171.358 283.756C166.991 288.034 161.724 292.592 155.668 297.126C155.54 295.952 155.317 293.523 155.311 290.75C159.117 288.066 165.193 283.565 165.193 282.513C165.193 281.461 166.028 272.866 163.924 273.746C167.067 272.107 170.108 271.872 170.695 274.358C171.352 277.106 171.415 281.008 171.358 283.756Z" fill="#2B3451"/>
<path d="M108.731 218.955C108.317 220.058 107.597 221.053 106.647 221.894C99.9585 219.242 89.4004 216.787 89.4004 216.787C89.4004 215.391 89.8786 214.084 90.7202 212.949C91.3131 213.172 91.8933 213.396 92.4862 213.612C92.8369 213.74 93.1812 213.874 93.5318 214.001C94.1184 214.218 94.705 214.428 95.2852 214.632C95.7761 214.805 96.2606 214.983 96.7452 215.149C96.8153 215.174 96.8854 215.2 96.962 215.219C97.472 215.397 97.9884 215.576 98.4985 215.742C99.3401 216.035 100.182 216.309 101.01 216.577C101.661 216.794 102.311 216.998 102.961 217.208C103.44 217.361 103.911 217.508 104.39 217.654C105.097 217.871 105.805 218.094 106.519 218.298C107.24 218.515 107.966 218.732 108.687 218.942C108.7 218.949 108.719 218.949 108.731 218.955Z" fill="#2B3451"/>
<path d="M72.02 204.648C71.51 205.827 70.6875 206.892 69.5654 207.695C66.4604 205.107 57.8469 202.231 57.8469 202.231C57.7258 200.529 58.1912 198.808 59.2113 197.386C59.7405 197.717 60.2761 198.049 60.8052 198.368C61.2707 198.655 61.7361 198.935 62.2015 199.209L62.4055 199.33C62.9411 199.649 63.4767 199.962 64.0058 200.268C64.382 200.491 64.7645 200.714 65.1471 200.924C65.2491 200.988 65.3511 201.045 65.4531 201.096C65.8101 201.3 66.1735 201.504 66.5306 201.702C66.8876 201.906 67.2574 202.104 67.6144 202.301C67.9779 202.505 68.3413 202.703 68.6983 202.894C69.0107 203.06 69.3359 203.239 69.6547 203.404C70.4452 203.838 71.2294 204.246 72.02 204.648Z" fill="#2B3451"/>
<path d="M152.577 228.906C152.08 230.258 151.136 231.469 149.861 232.457C142.995 229.747 130.18 226.745 130.18 226.745C130.18 225.935 130.339 225.157 130.632 224.424C136.651 225.731 142.325 226.84 147.534 227.886C147.968 227.969 148.401 228.052 148.828 228.147C149.377 228.262 149.925 228.364 150.461 228.479C151.168 228.619 151.876 228.766 152.577 228.906Z" fill="#2B3451"/>
<path d="M119.646 249.08C119.646 250.591 118.811 251.974 117.453 252.988C117.606 243.354 104.549 246.173 104.549 246.173C105.958 244.483 108.559 243.354 111.537 243.354C116.019 243.361 119.646 245.924 119.646 249.08Z" fill="#2B3451"/>
<path d="M73.8622 240.173C73.4542 241.633 72.3129 242.8 70.7955 243.52L70.8019 243.514C71.8922 241.308 71.1207 237.674 66.3198 235.742C61.5126 233.804 58.5352 236.724 58.5352 236.724C59.4214 233.594 63.5719 231.827 67.8054 232.777C72.0388 233.734 74.7484 237.036 73.8622 240.173Z" fill="#2B3451"/>
<path d="M91.5882 260.721C91.5882 262.226 90.7594 263.616 89.4013 264.655C89.0443 258.605 84.1032 257.706 81.1512 257.718C79.0409 257.731 74.5269 259.357 74.6927 262.5C74.4313 261.939 74.291 261.34 74.291 260.721C74.291 257.451 78.161 254.805 82.9428 254.805C87.7182 254.805 91.5882 257.451 91.5882 260.721Z" fill="#2B3451"/>
<path d="M59.0318 269.589C58.7449 271.062 57.8077 272.292 56.4752 273.14C56.5326 272.975 57.6483 269.927 54.3457 266.95C50.7498 263.704 45.5218 263.296 43.0098 264.909C44.4379 262.365 48.0784 260.982 51.9612 261.728C56.5326 262.614 59.7013 266.127 59.0318 269.589Z" fill="#2B3451"/>
<path d="M23.6287 254.805C23.6287 257.183 22.309 259.312 20.2241 260.715C20.3198 260.454 22.6469 254.021 16.4434 251.942C10.7818 250.049 6.46546 253.887 5.84702 258.369C5.15845 257.304 4.76953 256.093 4.76953 254.805C4.76953 250.552 8.99024 247.109 14.1928 247.109C19.4081 247.109 23.6287 250.552 23.6287 254.805Z" fill="#2B3451"/>
<path d="M31.4456 231.458C31.0885 232.81 30.1959 233.9 28.9845 234.639C29.3416 232.459 29.1886 229.488 26.3705 227.218C23.5461 224.955 17.9738 225.197 16.6094 227.53C17.4765 224.253 21.4995 222.481 25.5927 223.558C29.6923 224.642 32.3126 228.174 31.4456 231.458Z" fill="#2B3451"/>
<path d="M40.6399 208.16C40.2637 209.021 39.607 209.703 38.7527 210.188C39.9768 205.719 36.1068 202.524 31.7331 201.676C28.2584 201.007 24.0441 202.359 24.4202 204.654L24.4138 204.648C23.9293 203.411 23.8847 202.155 24.3692 201.039C25.6826 198.049 30.3879 197.213 34.8763 199.177C39.3775 201.147 41.9533 205.164 40.6399 208.16Z" fill="#2B3451"/>
<path d="M267.043 64.7913C267.821 64.8996 268.592 65.1419 269.326 65.4097C269.485 65.4671 269.644 65.5308 269.804 65.601C269.625 65.5308 269.829 65.6137 269.893 65.6456C269.989 65.6902 270.091 65.7348 270.186 65.7795C270.556 65.958 270.92 66.1493 271.27 66.366C271.449 66.4744 271.627 66.5892 271.799 66.704C271.901 66.7741 272.003 66.8442 272.099 66.9143C272.137 66.9398 272.176 66.9717 272.214 66.9972C272.29 67.0546 272.156 66.9462 272.278 67.0482C272.641 67.3479 272.992 67.6603 273.31 68.0046C274.044 68.7952 274.637 69.7962 274.987 70.8481C275.153 71.3391 275.644 71.6578 276.167 71.5176C276.645 71.3837 277.002 70.8354 276.836 70.3381C275.574 66.5573 272.214 64.0835 268.439 63.1272C268.146 63.0507 267.846 62.9806 267.547 62.9423C267.037 62.8722 266.52 63.0698 266.367 63.6118C266.253 64.0644 266.533 64.7211 267.043 64.7913Z" fill="#0A0A0A"/>
<path d="M288.945 70.1201C289.059 70.152 289.168 70.1902 289.282 70.2285C289.404 70.2731 289.55 70.305 289.659 70.3751C289.678 70.3878 289.397 70.2603 289.518 70.3177C289.531 70.3241 289.55 70.3305 289.563 70.3368C289.601 70.356 289.633 70.3687 289.671 70.3879C289.761 70.4261 289.85 70.4707 289.939 70.5154C290.334 70.713 290.711 70.9425 291.061 71.2039C291.087 71.2231 291.112 71.2422 291.138 71.2613C291.15 71.2677 290.966 71.1211 291.042 71.1848C291.087 71.2231 291.131 71.2549 291.176 71.2932C291.284 71.3825 291.386 71.4717 291.488 71.5674C291.686 71.7523 291.871 71.9499 292.049 72.1603C292.075 72.1922 292.094 72.2177 292.12 72.2495C292.202 72.3516 292.088 72.224 292.075 72.1922C292.094 72.2559 292.183 72.3452 292.228 72.4026C292.324 72.5428 292.413 72.6831 292.496 72.8297C292.579 72.97 292.649 73.1166 292.719 73.2633C292.719 73.2633 292.776 73.3653 292.77 73.378C292.783 73.327 292.693 73.1868 292.757 73.3589C292.795 73.4482 292.827 73.5438 292.859 73.6331C293.019 74.1049 293.522 74.4683 294.039 74.3025C294.51 74.1495 294.88 73.6331 294.708 73.123C293.949 70.8724 292.126 69.2594 289.939 68.4369C289.786 68.3795 289.627 68.3221 289.467 68.2839C288.983 68.1627 288.409 68.4433 288.288 68.9533C288.16 69.4379 288.422 69.9862 288.945 70.1201Z" fill="#0A0A0A"/>
<path d="M343.872 76.5519C342.253 75.5381 340.55 74.6965 338.772 74.008C339.007 74.314 339.237 74.62 339.473 74.9324C339.492 74.2821 338.848 73.8804 338.261 74.008C338.842 73.8804 337.764 73.6445 337.611 73.5999C337.229 73.4724 336.846 73.3576 336.464 73.2492C335.813 73.0644 335.156 72.905 334.487 72.7775C333.103 72.4969 331.688 72.3248 330.273 72.261C327.793 72.159 325.23 72.3885 322.871 73.1855C321.71 73.5744 322.208 75.4234 323.381 75.0281C325.74 74.2375 328.252 74.0526 330.719 74.1992C332.103 74.2821 333.467 74.4861 334.819 74.8049C335.488 74.9643 336.157 75.1428 336.814 75.3532C337.401 75.5381 338.147 75.9908 338.772 75.8569C338.37 75.5509 337.962 75.2448 337.56 74.9324C337.547 75.3851 337.873 75.7039 338.261 75.8569C339.887 76.4881 341.43 77.285 342.903 78.2095C343.955 78.8598 344.918 77.2022 343.872 76.5519Z" fill="#0A0A0A"/>
<path d="M352.425 77.0003C355.861 74.4947 360.771 74.0675 364.615 75.7571C365.093 75.9675 365.635 75.891 365.922 75.4128C366.164 75.0111 366.05 74.3098 365.578 74.1058C362.447 72.735 359.043 72.4545 355.747 73.3853C354.268 73.8061 352.712 74.4309 351.456 75.3427C350.48 76.0631 351.43 77.7272 352.425 77.0003Z" fill="#0A0A0A"/>
<path d="M366.025 248.963C367.88 249.448 369.806 249.709 371.699 249.945C376.5 250.538 381.365 250.646 386.191 250.359C389.934 250.136 393.657 249.658 397.342 248.963C398.547 248.734 398.037 246.891 396.832 247.12C387.517 248.874 377.648 249.275 368.295 247.497C367.702 247.382 367.115 247.267 366.529 247.12C365.343 246.808 364.833 248.651 366.025 248.963Z" fill="#0A0A0A"/>
<path d="M334.841 249.002C334.395 249.123 333.968 249.391 333.592 249.659C333.075 250.029 332.571 250.437 332.157 250.928C331.704 251.457 331.29 252.075 331.156 252.77C330.99 253.612 331.207 254.396 331.749 255.059C332.501 255.971 333.738 256.423 334.835 256.742C335.313 256.882 335.9 256.576 336.014 256.073C336.129 255.563 335.861 255.046 335.345 254.893C335.083 254.817 334.822 254.734 334.561 254.638C334.503 254.619 334.452 254.6 334.395 254.574C334.35 254.555 334.178 254.479 334.35 254.555C334.242 254.504 334.14 254.46 334.031 254.402C333.859 254.313 333.687 254.217 333.528 254.103C333.515 254.096 333.426 254.032 333.426 254.032C333.432 254.026 333.611 254.185 333.477 254.071C333.407 254.007 333.337 253.95 333.273 253.886C333.222 253.835 333.183 253.784 333.132 253.733C333.024 253.618 333.196 253.803 333.19 253.809C333.19 253.809 333.145 253.739 333.139 253.733C333.107 253.682 333.075 253.631 333.05 253.573C332.935 253.376 333.101 253.777 333.05 253.561C333.037 253.51 333.024 253.452 333.005 253.401C332.948 253.178 333.005 253.612 333.011 253.433C333.011 253.382 333.005 253.325 333.011 253.274C333.018 253.063 333.037 253.191 333.005 253.286C333.043 253.178 333.056 253.057 333.094 252.949C333.145 252.808 333.209 252.821 333.075 252.98C333.12 252.929 333.139 252.847 333.171 252.783C333.228 252.681 333.292 252.579 333.356 252.477C333.388 252.426 333.426 252.375 333.464 252.33C333.547 252.209 333.407 252.413 333.4 252.413C333.432 252.394 333.464 252.337 333.49 252.305C333.662 252.094 333.853 251.903 334.057 251.718C334.153 251.629 334.248 251.546 334.35 251.463C334.395 251.425 334.446 251.393 334.49 251.355C334.49 251.355 334.286 251.508 334.401 251.425C334.433 251.399 334.471 251.374 334.503 251.348C334.695 251.208 334.899 251.074 335.103 250.959C335.185 250.908 335.281 250.87 335.364 250.825C335.472 250.768 335.077 250.921 335.256 250.87C335.287 250.864 335.326 250.845 335.358 250.838C335.842 250.704 336.186 250.156 336.027 249.659C335.855 249.181 335.358 248.862 334.841 249.002Z" fill="#67A7F4"/>
<path d="M375.661 70.5036C373.347 71.2113 371.121 70.0191 366.301 71.1476C365.849 71.2496 365.371 71.3771 364.873 71.5237C364.433 71.6512 364.102 71.1284 364.408 70.7905C364.708 70.459 365.065 70.0892 365.492 69.7003C366.875 68.4315 368.916 67.0161 371.504 66.5316C378.549 65.1863 378.383 69.662 375.661 70.5036Z" fill="#CFEFFF"/>
</svg>
