<svg width="375" height="627" viewBox="0 0 375 627" fill="none" xmlns="http://www.w3.org/2000/svg">
<path d="M608 286.378L-356 241.652V0.00195312H608V286.378Z" fill="#CFEFFF"/>
<path d="M608 626.608H-356V233.491L608 231.941V626.608Z" fill="#226EDD"/>
<path d="M49.2939 73.1699C41.6431 83.3709 17.6387 96.7853 10.1154 136.946C9.03795 142.684 8.30474 148.964 7.99233 155.862C7.96045 156.608 7.92861 157.367 7.90948 158.138C7.5397 158.1 7.16988 158.068 6.80009 158.03C-1.80068 157.176 -10.5799 156.481 -19.5059 155.996C-19.5059 155.996 -19.015 152.075 -17.5804 145.738C-16.3181 140.102 -14.3161 132.559 -11.2749 124.169V124.162C-6.78643 111.768 -0.0218697 97.5376 9.98792 84.8947C34.4003 54.0747 58.2836 61.1836 49.2939 73.1699Z" fill="#22A05B"/>
<path d="M256.5 199.935C256.099 199.896 255.697 199.865 255.295 199.826C255.295 199.826 255.295 199.826 255.289 199.826V199.82C255.295 199.814 255.295 199.814 255.295 199.807C257.68 193.266 260.728 188.522 263.992 184.78L263.998 184.773C269.073 179.756 278.924 178.64 280.326 183.664C281.735 188.688 262.882 187.062 256.5 199.935Z" fill="#22A05B"/>
<path d="M27.9619 263.337C20.3877 264.325 13.2469 261.348 8.19101 261.921C3.51126 262.457 -4.17776 266.525 -14.7167 267.468C-21.5005 268.074 -29.6294 264.975 -38.2939 265.594C-45.5239 266.104 -53.2321 267.902 -61.4949 268.342C-68.9353 268.737 -76.7519 268.31 -84.8362 268.59C-92.3978 268.852 -100.17 269.489 -108.146 269.61C-115.796 269.719 -123.562 267.895 -131.461 267.832C-139.176 267.774 -147.075 272.671 -154.905 272.409C-162.677 272.148 -170.43 270.184 -178.195 269.687C-186.005 269.19 -193.707 267.602 -201.396 266.837C-208.001 266.18 -216.334 266.359 -225.298 265.154C-232.815 264.146 -240.39 259.805 -248.506 258.542C-256.469 257.299 -264.687 257.388 -272.313 256.017C-280.85 254.481 -288.692 252.256 -295.596 250.7C-307.965 247.914 -318.09 247.602 -319.48 245.466C-320.768 243.483 -295.603 245.517 -285.402 244.395C-286.116 236.221 -284.35 228.086 -279.135 222.016C-274.703 216.865 -268.94 213.205 -260.977 209.539C-254.639 206.619 -248.735 200.065 -240.549 198.069C-233.549 196.36 -225.279 198.235 -217.163 197.196C-209.869 196.258 -202.212 196.552 -194.185 196.144C-186.745 195.767 -179.1 190.316 -171.156 190.386C-163.633 190.45 -155.867 192.554 -148 193.02C-140.209 193.472 -135.344 193.721 -130.091 193.778C-125.226 193.829 -119.992 197.259 -112.022 197.355C-112.679 196.947 -88.6298 201.168 -88.6234 201.168C-89.2992 194.722 -79.4042 195.634 -67.7176 195.946C-61.1634 196.125 -53.1747 193.434 -44.7652 194.862C-37.5161 196.093 -30.1968 199.249 -22.5907 200.97C-14.9335 202.704 -6.88104 202.666 0.183167 204.477C8.61816 206.644 15.523 211.586 21.6182 213.23C24.9144 214.117 22.8296 223.865 22.7339 235.883C22.6255 248.513 25.4691 263.464 27.9619 263.337Z" fill="#2B3451"/>
<path d="M8 155.86C8.30603 148.961 9.04562 142.681 10.1231 136.943C22.1412 119.117 40.2608 103.439 43.8248 112.665C46.8979 120.647 27.2035 121.622 8 155.86Z" fill="#22A05B"/>
<path d="M255.972 200.504C259.103 197.431 263.68 194.134 268.335 195.269C270.757 195.862 274.289 197.176 276.508 195.225C277.433 194.408 276.075 193.063 275.157 193.873C275.144 193.886 275.405 193.745 275.195 193.835C275.125 193.867 274.78 194.051 274.94 193.981C274.417 194.204 273.843 194.287 273.282 194.3C271.089 194.351 269.119 193.261 266.951 193.152C262.201 192.917 257.853 195.977 254.62 199.146C253.734 200.019 255.092 201.371 255.972 200.504Z" fill="#22A05B"/>
<path d="M239.839 183.555C236.645 178.059 231.558 172.952 225.348 171.122C224.162 170.771 223.658 172.62 224.838 172.965C230.569 174.654 235.243 179.462 238.188 184.524C238.807 185.582 240.458 184.626 239.839 183.555Z" fill="#22A05B"/>
<path d="M199.838 65.0002C197.064 80.1297 178.779 95.9031 170.688 136.497C168.106 149.427 166.563 164.888 166.882 183.645V183.664C166.907 185.073 166.939 186.495 166.984 187.942C163.159 187.254 159.524 186.571 156.088 185.908C153.907 185.481 151.599 185.009 149.17 184.493C145.778 176.67 142.776 168.012 140.525 158.952C140.525 158.946 140.519 158.939 140.519 158.939C138.733 151.798 137.414 144.403 136.725 136.975C136.725 136.975 136.725 136.969 136.719 136.956C134.653 114.66 138.262 92.0203 152.141 74.704C176.528 44.273 203.644 44.273 199.838 65.0002Z" fill="#22A05B"/>
<path d="M149.17 184.495C147.697 184.182 146.179 183.851 144.624 183.507C139 164.666 111.241 147.439 105.649 137.34C99.8028 126.776 110.278 129.211 121.174 135.396H121.18C128.831 142.741 136.348 150.481 140.518 158.935C140.518 158.941 140.524 158.948 140.524 158.948C142.781 168.014 145.778 176.672 149.17 184.495Z" fill="#22A05B"/>
<path d="M140.518 158.941C136.348 150.487 128.831 142.74 121.181 135.402H121.174C114.193 128.695 107.11 122.319 102.36 116.026C92.4072 102.835 99.6883 90.4598 111.592 97.1606C130.884 108.038 136.546 136.078 136.718 136.951C136.724 136.964 136.724 136.97 136.724 136.97C137.413 144.404 138.733 151.8 140.518 158.941Z" fill="#22A05B"/>
<path d="M190.355 136.5C190.273 136.627 190.196 136.748 190.113 136.876C188.328 139.165 186.562 141.862 184.898 144.979C176.565 158.215 167.645 174.04 166.887 183.654C166.561 164.897 168.111 149.436 170.693 136.506C179.383 113.777 192.268 105.648 199.842 107.682C207.417 109.709 199.715 122.244 190.355 136.5Z" fill="#22A05B"/>
<path d="M168.219 163.895C168.761 154.784 169.826 145.705 171.611 136.754C171.853 135.549 170.004 135.039 169.768 136.244C167.951 145.361 166.861 154.612 166.313 163.895C166.236 165.125 168.149 165.119 168.219 163.895Z" fill="#0A0A0A"/>
<path d="M212.167 134.176C209.062 148.273 182.227 156.752 169.584 188.408C168.704 188.255 167.837 188.102 166.983 187.942C166.938 186.495 166.906 185.073 166.881 183.664V183.645C167.64 174.03 176.559 158.206 184.892 144.97C186.69 142.12 188.456 139.391 190.107 136.867C201.66 122.056 214.475 123.714 212.167 134.176Z" fill="#22A05B"/>
<path d="M167.945 187.946C167.887 186.212 167.709 184.42 167.938 182.693C168.117 181.347 168.429 180.021 168.793 178.721C169.672 175.577 170.897 172.543 172.242 169.578C175.462 162.501 179.376 155.736 183.437 149.118C185.867 145.159 188.385 141.244 190.929 137.362C191.605 136.329 189.947 135.372 189.278 136.399C184.744 143.317 180.307 150.317 176.265 157.534C172.739 163.833 169.315 170.375 167.211 177.305C166.752 178.816 166.363 180.359 166.128 181.921C165.821 183.923 165.962 185.931 166.026 187.953C166.07 189.177 167.983 189.183 167.945 187.946Z" fill="#0A0A0A"/>
<path d="M249.703 198.872C244.934 193.434 240.465 186.848 236.933 180.415C236.933 180.415 236.926 180.415 236.926 180.408C230.85 169.353 227.541 158.75 230.206 155.212C234.421 149.608 238.871 155.894 248.351 175.11C247.516 185.904 248.415 193.612 249.703 198.872Z" fill="#22A05B"/>
<path d="M338.012 74.698C333.549 101.348 296.213 132.672 273.242 162.408L273.235 162.414C263.238 175.351 255.957 188 255.294 199.814C255.294 199.82 255.294 199.82 255.288 199.827V199.833C253.458 199.667 251.628 199.502 249.805 199.323C249.766 199.176 249.735 199.03 249.696 198.883V198.877C248.408 193.61 247.509 185.909 248.351 175.115C249.18 164.525 251.679 150.957 257.137 133.807C277.819 68.8707 341.901 51.4715 338.012 74.698Z" fill="#22A05B"/>
<path d="M249.808 199.318C249.343 199.274 248.871 199.229 248.393 199.178C238.715 192.535 225.683 188.652 222.706 183.666C218.727 177.01 229.961 175.333 236.923 180.408C236.923 180.415 236.93 180.415 236.93 180.415C240.455 186.848 244.925 193.434 249.7 198.872V198.878C249.738 199.031 249.77 199.178 249.808 199.318Z" fill="#22A05B"/>
<path d="M250.376 198.195C247.877 195.332 245.569 192.304 243.427 189.167C242.375 187.624 241.355 186.049 240.379 184.449C239.869 183.62 239.372 182.779 238.887 181.937C238.492 181.255 238.154 180.292 237.606 179.731C236.745 178.851 235.394 180.203 236.254 181.083C236.465 181.3 236.65 181.867 236.809 182.148C237.045 182.568 237.287 182.989 237.529 183.404C237.995 184.207 238.473 184.997 238.958 185.788C239.965 187.427 241.017 189.033 242.107 190.614C244.249 193.713 246.545 196.71 249.025 199.54C249.834 200.478 251.18 199.12 250.376 198.195Z" fill="#0A0A0A"/>
<path d="M285.256 163.754C281.259 172.47 271.982 175.626 264 184.781L263.993 184.787C260.723 188.53 257.681 193.273 255.297 199.815C255.96 188.001 263.235 175.358 273.238 162.415L273.244 162.409C281.654 155.759 288.17 157.404 285.256 163.754Z" fill="#22A05B"/>
<path d="M272.565 161.735C272.106 162.194 271.743 162.8 271.348 163.316C270.812 164.024 270.277 164.738 269.754 165.452C268.816 166.733 267.892 168.021 266.993 169.328C265.246 171.866 263.582 174.461 262.052 177.132C259.336 181.876 256.977 186.906 255.581 192.204C255.224 193.556 254.93 194.926 254.72 196.31C254.612 197.011 254.522 197.719 254.452 198.42C254.42 198.72 254.363 199.045 254.376 199.345C254.395 199.785 254.465 199.479 254.471 199.332C254.459 199.511 254.344 199.613 254.344 199.823C254.344 201.053 256.256 201.053 256.256 199.823C256.212 199.976 256.174 200.135 256.129 200.288C256.161 200.212 256.193 200.135 256.225 200.059C256.244 199.893 256.263 199.74 256.276 199.574C256.295 199.307 256.314 199.039 256.339 198.765C256.39 198.191 256.454 197.617 256.537 197.05C256.709 195.87 256.945 194.697 257.226 193.537C257.831 191.05 258.654 188.627 259.636 186.268C261.81 181.034 264.73 176.106 267.892 171.413C268.829 170.023 269.792 168.646 270.78 167.288C271.297 166.574 271.826 165.86 272.355 165.152C272.859 164.476 273.337 163.673 273.936 163.074C274.791 162.213 273.439 160.861 272.565 161.735Z" fill="#0A0A0A"/>
<path d="M370.371 189.685C362.147 195.735 358.468 200.383 357.658 201.48C356.345 201.569 355.019 201.658 353.68 201.729C353.903 200.657 354.158 199.561 354.451 198.451V198.445C355.197 195.57 356.179 192.586 357.346 189.672C361.968 178.164 369.587 167.829 378.124 170.628C389.67 174.409 379.82 182.735 370.371 189.685Z" fill="#22A05B"/>
<path d="M368.515 150.531C366.519 159.221 357.969 176.562 357.344 189.677C356.178 192.584 355.196 195.575 354.45 198.45C352.633 192.782 351.236 187.739 350.255 183.199C347.118 168.644 348.259 159.214 353.672 150.537C361.737 137.62 370.51 141.841 368.515 150.531Z" fill="#22A05B"/>
<path d="M354.456 198.444C354.163 199.56 353.908 200.657 353.685 201.728C353.672 201.734 353.653 201.734 353.64 201.734C344.408 185.495 325.976 176.824 330.318 172.871C334.577 168.995 343.637 174.038 350.267 183.194C351.243 187.739 352.639 192.776 354.456 198.444Z" fill="#22A05B"/>
<path d="M149.999 184.01C145.032 172.527 141.36 160.433 139.186 148.115C138.536 144.424 138.032 140.707 137.681 136.97C137.567 135.753 135.654 135.746 135.769 136.97C136.986 150.015 140.028 162.881 144.465 175.205C145.651 178.501 146.952 181.759 148.341 184.979C148.832 186.101 150.484 185.132 149.999 184.01Z" fill="#0A0A0A"/>
<path d="M121.177 136.353C120.954 136.257 120.731 136.168 120.508 136.073C124.269 139.688 127.98 143.36 131.391 147.319C133.017 149.206 134.572 151.164 135.994 153.21C136.664 154.179 137.308 155.161 137.913 156.169C138.232 156.704 138.545 157.24 138.844 157.788C139.093 158.234 139.45 158.732 139.603 159.21C139.979 160.377 141.828 159.879 141.445 158.7C141.082 157.571 140.298 156.443 139.699 155.435C139.055 154.345 138.36 153.287 137.639 152.248C136.122 150.067 134.47 147.982 132.736 145.968C130.932 143.876 129.045 141.862 127.107 139.892C126.144 138.91 125.168 137.941 124.187 136.978C123.696 136.493 123.198 136.015 122.707 135.537C122.293 135.135 121.808 134.44 121.177 134.44C119.947 134.44 119.94 136.353 121.177 136.353Z" fill="#0A0A0A"/>
<path d="M349.344 183.451C350.415 189.763 351.869 196.241 354.432 202.126C354.923 203.254 356.574 202.279 356.083 201.163C354.457 197.44 353.437 193.436 352.525 189.483C352.028 187.315 351.563 185.135 351.193 182.948C350.982 181.73 349.14 182.246 349.344 183.451Z" fill="#0A0A0A"/>
<path d="M356.431 189.423C355.328 192.286 354.25 195.212 353.536 198.202C353.249 199.401 355.092 199.911 355.379 198.713C356.093 195.722 357.17 192.802 358.273 189.933C358.458 189.449 358.069 188.881 357.604 188.754C357.068 188.607 356.616 188.939 356.431 189.423Z" fill="#0A0A0A"/>
<path d="M471.268 192.885C470.49 192.872 469.712 192.853 468.934 192.84C468.947 192.904 468.966 192.961 468.985 193.019C468.896 192.961 468.8 192.897 468.711 192.84C433.785 192.298 395.384 196.13 361.224 200.465C356.232 201.097 351.035 201.594 345.654 201.97C344.341 202.059 343.015 202.148 341.676 202.219C341.657 202.225 341.644 202.225 341.625 202.225C315.497 203.736 285.621 202.518 256.503 199.936C256.102 199.904 255.7 199.866 255.298 199.828C255.298 199.828 255.298 199.828 255.292 199.828C253.462 199.662 251.632 199.496 249.809 199.318C249.344 199.273 248.865 199.235 248.394 199.177C219.448 196.366 191.676 192.317 169.59 188.409C168.711 188.25 167.843 188.103 166.989 187.944C163.164 187.261 159.523 186.573 156.087 185.91C153.906 185.483 151.598 185.011 149.169 184.494C147.703 184.182 146.185 183.85 144.623 183.506C113.108 176.563 64.3729 163.856 7.91638 158.137C7.54657 158.099 7.17679 158.067 6.80701 158.029C-1.79376 157.168 -10.5731 156.48 -19.499 155.995C-19.7859 155.982 -20.0855 155.963 -20.3788 155.95C-53.4876 154.204 -88.5729 155.345 -123.9 161.657C-128.867 162.543 -133.713 163.455 -138.431 164.392C-138.762 164.456 -139.094 164.519 -139.425 164.589C-149.664 166.63 -159.317 168.772 -168.403 170.972C-170.118 171.386 -171.807 171.807 -173.484 172.228C-210.354 181.479 -236.782 193.261 -255.921 199.994C-308.03 218.33 -356 221.639 -356 221.639V244.802C-338.645 249.08 -195.537 263.183 -91.8946 264.369C-92.5513 263.954 -108.401 253.887 -101.107 254.588C-93.8328 255.29 -91.9711 263.935 -91.8818 264.369C-91.8755 264.369 -91.8755 264.369 -91.8691 264.369C-91.8053 264.075 -90.798 259.842 -89.0702 255.379C-87.3424 250.916 -84.8941 246.217 -81.9294 244.999C-75.9873 242.551 -91.4037 263.731 -91.8627 264.369C-91.4929 264.005 -84.4287 257.062 -80.565 256.718C-76.6185 256.361 -82.618 262.787 -91.8053 264.369C-81.5214 264.483 -70.9569 264.445 -60.1375 264.222C-18.7084 263.38 21.7579 261.563 59.9163 259.281L73.5092 258.388L84.1629 257.693L99.8726 256.66L100.618 256.616L100.772 256.603C164.732 252.07 220.028 246.619 259.321 242.946C250.721 236.87 235.362 236.252 236.898 231.604C238.664 226.236 255.439 233.134 262.72 240.084C269.765 231.872 279.175 228.059 281.369 230.833C283.511 233.542 267.903 240.83 264.237 242.494C265.876 242.334 267.476 242.194 269.051 242.047C307.273 238.534 371.189 235.353 441.672 237.553C436.609 235.143 428.474 230.845 432.829 229.94C437.457 228.971 442.195 234.741 444.235 237.629C444.522 237.635 444.809 237.648 445.102 237.661C444.088 227.116 449.769 221.849 451.529 226.236C452.415 228.454 450.987 231.547 449.278 234.154C451.675 231.757 454.914 229.494 458.389 229.94C464.388 230.705 460.741 234.932 450.789 237.859C464.382 238.369 478.185 239.083 492.065 240.039C490.159 238.196 488.762 236.195 489.228 234.537C490.235 230.979 494.94 233.593 497.918 240.453C499.703 240.587 501.488 240.721 503.273 240.862C505.141 239.038 507.577 237.489 510.204 237.922C512.646 238.33 511.122 239.765 508.552 241.282C542.197 244.068 575.981 248.334 608 254.582V210.01C588.695 201.396 499.576 193.497 471.268 192.885ZM-176.092 258.49C-191.349 255.634 -209.028 245.707 -198.017 247.129C-187.867 248.442 -177.781 257.005 -176.276 258.318C-177.902 256.724 -189.531 245.184 -185.241 242.87C-180.657 240.396 -176.155 258.222 -176.098 258.484C-176.092 258.49 -176.092 258.49 -176.092 258.49C-173.879 248.194 -169.27 241.805 -157.902 241.097C-146.54 240.383 -167.293 250.323 -176.092 258.49ZM87.2743 222.633C90.6852 222.633 90.6087 225.477 91.5906 227.779C92.5724 230.087 88.8299 230.801 86.7068 230.444C84.571 230.087 82.7985 226.892 82.7985 225.12C82.7985 225.12 83.8633 222.633 87.2743 222.633ZM36.6451 232.222C32.0291 231.865 21.0247 235.417 10.0714 236.182C-0.888428 236.96 -3.92322 225.158 -6.07819 219.433C-7.9845 214.396 15.7011 207.37 23.6005 205.241C31.4936 203.111 39.1317 210.207 46.9992 211.03C54.8668 211.846 66.1134 214.116 66.3238 217.099C66.5342 220.083 64.6917 226.892 59.368 228.665C54.0379 230.444 41.2611 232.573 36.6451 232.222Z" fill="#22A05B"/>
<path d="M208.68 195.066C216.529 187.007 216.261 173.899 211.224 179.605C207.348 183.992 208.68 195.066 208.68 195.066Z" fill="#22A05B"/>
<path d="M208.68 195.066C208.68 195.066 204.823 162.99 192.849 162.895C184.688 162.825 189.827 174.448 197.146 181.142C204.421 187.792 208.68 195.066 208.68 195.066Z" fill="#22A05B"/>
<path d="M75.4184 143.722C71.593 150.55 70.1521 158.845 69.8461 167.254C67.4424 166.802 65.0069 166.355 62.5523 165.909C62.3929 160.828 62.5077 155.198 63.1644 149.485V149.479C64.0123 142.102 65.7593 134.579 68.9662 127.891C80.5189 103.861 96.0437 109.708 96.3816 114.617C96.9809 123.345 82.3232 131.385 75.4184 143.722Z" fill="#22A05B"/>
<path d="M63.1689 149.488C62.5123 155.207 62.3975 160.83 62.5569 165.912C61.9958 165.81 61.4284 165.714 60.8546 165.612C58.1449 155.602 53.2101 143.444 45.7761 147.174C35.0841 152.542 23.8247 146.479 30.5319 137.451C38.2911 127.02 57.3161 131.77 63.1689 149.488Z" fill="#22A05B"/>
<path d="M82.3549 156.027C76.9738 160.7 74.1877 165.144 72.8552 167.828C71.9945 167.662 71.1274 167.496 70.2539 167.331C71.1465 158.978 79.709 143.154 86.888 146.176C90.7963 147.827 86.4736 152.456 82.3549 156.027Z" fill="#22A05B"/>
<path d="M-0.346958 143.442C0.411746 140.344 1.24058 137.162 2.71973 134.319C3.56132 132.699 4.68343 131.214 6.18171 130.251C9.74571 127.962 14.3808 127.816 17.8237 125.17C20.2273 123.321 21.7638 120.675 22.9625 117.933C24.346 114.771 25.4171 111.481 26.8771 108.357C28.5667 104.755 30.7981 101.363 33.3994 98.3536C35.14 96.3389 37.0973 94.49 39.4244 93.1766C41.6878 91.9014 44.2444 91.4297 46.3739 89.8931C48.4268 88.4076 50.3013 86.5905 51.9079 84.6204C52.6794 83.6768 51.3341 82.3125 50.5563 83.2688C49.2047 84.9265 47.6554 86.4821 45.9786 87.8146C44.8692 88.6945 43.6961 89.4022 42.3508 89.8485C41.369 90.1736 40.3999 90.5498 39.4691 91.0025C37.1802 92.1118 35.1591 93.7185 33.393 95.5356C30.7025 98.3026 28.3499 101.554 26.4882 104.927C24.7476 108.077 23.5171 111.456 22.2101 114.796C21.1199 117.57 19.9276 120.477 17.8173 122.645C14.5912 125.947 9.67559 126.1 5.79281 128.268C0.685902 131.125 -0.888886 137.691 -2.17677 142.939C-2.4828 144.131 -0.640238 144.641 -0.346958 143.442Z" fill="#22A05B"/>
<path d="M171.876 135C172.418 130.939 173.827 127.101 175.848 123.55C177.709 120.279 179.966 117.257 181.968 114.075C183.027 112.392 184.015 110.665 184.869 108.867C185.864 106.782 186.54 104.569 187.502 102.472C188.733 99.7876 190.499 96.7783 193.387 95.6307C195.453 94.8082 197.519 95.1908 199.591 95.7965C200.777 96.1471 201.28 94.2982 200.101 93.9539C198.067 93.3546 195.931 92.9912 193.833 93.4885C190.818 94.2089 188.605 96.5998 187.069 99.1692C185.845 101.222 185.08 103.447 184.2 105.653C183.403 107.674 182.402 109.613 181.305 111.481C179.291 114.904 176.9 118.079 174.847 121.471C172.322 125.66 170.62 130.136 169.963 134.994C169.893 135.51 170.454 135.944 170.919 135.95C171.493 135.963 171.806 135.51 171.876 135Z" fill="#22A05B"/>
<path d="M73.5078 258.389C73.5142 258.408 73.5142 258.421 73.5206 258.44C77.0909 258.211 80.6358 257.981 84.1488 257.739C84.1552 257.726 84.1552 257.707 84.1616 257.694L73.5078 258.389ZM99.8712 256.662V256.668C100.12 256.649 100.368 256.63 100.617 256.617L99.8712 256.662ZM444.233 237.63C443.379 237.605 442.525 237.573 441.677 237.554C443.653 238.491 445.164 239.148 445.273 239.192C445.228 239.122 444.858 238.51 444.233 237.63ZM445.1 237.662C445.139 238.159 445.203 238.669 445.279 239.192C447.281 238.797 449.124 238.344 450.788 237.86C448.888 237.79 446.988 237.719 445.1 237.662ZM497.916 240.455C495.966 240.314 494.015 240.174 492.064 240.04C495.149 243.03 499.581 245.606 499.581 245.606C499.147 243.693 498.573 241.972 497.916 240.455ZM503.272 240.863C501.085 242.979 499.663 245.466 499.587 245.6C499.791 245.517 505.108 243.324 508.551 241.283C506.791 241.143 505.032 241.003 503.272 240.863Z" fill="#22A05B"/>
<path d="M86.7052 230.445C84.5757 230.094 82.7969 226.894 82.7969 225.121C82.7969 225.121 83.8616 222.635 87.279 222.635C90.69 222.635 90.6071 225.478 91.5889 227.786C92.5708 230.088 88.8283 230.802 86.7052 230.445Z" fill="#39BC42"/>
<path d="M59.3669 228.667C54.0432 230.446 41.26 232.575 36.6504 232.224C32.0344 231.874 21.03 235.419 10.0767 236.19C-0.8831 236.961 -3.91793 225.16 -6.0729 219.441C-7.97922 214.398 15.7064 207.372 23.6058 205.243C31.5053 203.113 39.1369 210.209 47.0045 211.032C54.872 211.848 66.1187 214.117 66.3291 217.101C66.5331 220.085 64.6906 226.894 59.3669 228.667Z" fill="#39BC42"/>
<path d="M264.236 242.494C263.031 242.603 261.807 242.718 260.57 242.832C261.253 241.87 261.967 240.952 262.719 240.084C269.758 231.873 279.168 228.066 281.361 230.833C283.51 233.543 267.902 240.83 264.236 242.494Z" fill="#39BC42"/>
<path d="M262.716 240.083C261.97 240.95 261.25 241.868 260.567 242.831C260.159 242.876 259.738 242.908 259.318 242.946H259.311C250.704 236.87 235.352 236.251 236.882 231.604C238.661 226.235 255.435 233.134 262.716 240.083Z" fill="#39BC42"/>
<path d="M149.854 215.476C150.912 214.124 152.614 213.486 154.215 213.034C155.917 212.556 157.677 212.281 159.436 212.128C160.055 212.071 160.667 212.033 161.285 212.007C161.445 212.001 161.61 212.014 161.77 211.995C162.242 211.931 161.54 212.058 161.489 211.861C161.508 211.956 161.897 212.154 161.974 212.211C162.369 212.505 162.529 212.632 162.988 213.008C164.033 213.869 165.041 214.8 165.92 215.833C166.348 216.336 166.743 216.872 167.062 217.446C167.298 217.879 167.527 218.472 167.559 218.829C167.604 219.346 167.54 219.639 167.221 220.041C166.826 220.538 166.112 220.889 165.493 221.118C164.205 221.584 162.828 221.839 161.496 222.132C159.953 222.476 158.404 222.782 156.848 223.044C153.953 223.534 150.97 223.923 148.024 223.764C146.698 223.694 144.281 223.471 143.886 222.125C143.535 220.946 141.687 221.45 142.044 222.636C142.579 224.433 144.422 225.179 146.124 225.466C148.732 225.906 151.429 225.696 154.036 225.377C157.447 224.956 160.82 224.287 164.161 223.477C165.991 223.037 168.241 222.425 169.14 220.57C170.568 217.631 167.476 214.462 165.506 212.658C164.633 211.854 163.702 211.07 162.726 210.394C162.114 209.973 161.457 210.088 160.743 210.126C158.62 210.248 156.478 210.509 154.412 211.019C152.308 211.535 149.905 212.358 148.521 214.13C147.75 215.08 149.095 216.445 149.854 215.476Z" fill="#39BC42"/>
<path d="M359.624 191.348C359.745 189.505 360.001 187.669 360.319 185.852C360.906 182.498 361.716 179.036 363.399 176.046C364.004 174.975 362.353 174.006 361.747 175.083C359.981 178.22 359.095 181.822 358.477 185.342C358.126 187.325 357.845 189.333 357.712 191.348C357.629 192.578 359.541 192.578 359.624 191.348Z" fill="#22A05B"/>
<path d="M209.605 194.812C208.642 191.541 207.928 188.124 207.66 184.719C207.507 182.755 207.348 180.345 208.266 178.547C208.757 177.578 209.599 177.336 210.478 176.558C211.498 175.653 212.206 174.416 212.417 173.071C212.71 171.203 212.219 169.131 211.231 167.518C210.587 166.472 208.935 167.428 209.579 168.48C210.294 169.641 210.765 171.209 210.555 172.65C210.364 173.982 209.522 175.015 208.406 175.723C207.584 176.239 206.959 176.845 206.532 177.731C205.588 179.708 205.576 182.073 205.709 184.215C205.856 186.606 206.258 188.991 206.761 191.337C207.048 192.67 207.367 194.002 207.75 195.315C208.107 196.501 209.956 195.998 209.605 194.812Z" fill="#22A05B"/>
<path d="M295.803 188.76C296.683 190.928 298.015 193.146 299.858 194.613C300.502 195.123 301.171 195.493 301.936 195.78C302.465 195.977 302.867 196.264 303.218 196.723C303.996 197.756 304.321 199.12 304.531 200.37C304.665 201.154 304.748 201.958 304.748 202.761C304.754 203.666 306.093 204.119 306.533 203.245C307.458 201.403 308.777 199.707 310.244 198.266C310.926 197.597 311.665 196.94 312.526 196.513C313.081 196.239 313.629 196.086 314.018 196.449C314.917 197.291 316.269 195.939 315.37 195.097C313.534 193.376 311.111 194.932 309.581 196.27C307.7 197.915 306.004 200.045 304.882 202.283C305.475 202.442 306.068 202.602 306.667 202.767C306.654 200.702 306.291 198.496 305.379 196.634C304.748 195.34 303.792 194.441 302.446 193.95C300.999 193.421 299.928 192.158 299.093 190.909C298.685 190.296 298.315 189.653 297.99 188.996C297.888 188.785 297.786 188.581 297.69 188.371C297.658 188.295 297.626 188.224 297.594 188.148C297.601 188.161 297.69 188.384 297.645 188.269C297.193 187.128 295.337 187.619 295.803 188.76Z" fill="#22A05B"/>
</svg>
