<svg width="1512" height="982" viewBox="0 0 1512 982" fill="none" xmlns="http://www.w3.org/2000/svg">
<path d="M1512 449.17L0 379.02V0H1512V449.17Z" fill="#CFEFFF"/>
<path d="M1512 982.81H0V366.22L1512 363.79V982.81Z" fill="#226EDD"/>
<path d="M540.7 194.75C535.92 207.91 532.79 219.75 530.81 228.58C529.06 209.46 521.08 192.39 512.36 177.59C496.32 150.37 477.75 130.83 490.8 120.39C510.94 104.28 541.15 151.27 540.7 194.75Z" fill="#22A05B"/>
<path d="M530.811 228.58C528.571 238.52 527.791 244.67 527.791 244.67C527.331 244.65 526.871 244.62 526.411 244.6C512.581 198.75 498.041 189.53 486.391 180.82C467.371 166.62 486.391 145.14 512.351 177.59C521.081 192.39 529.061 209.46 530.811 228.58Z" fill="#22A05B"/>
<path d="M635.689 114.76C623.689 130.76 586.039 151.8 574.239 214.79C572.549 223.79 571.399 233.64 570.909 244.46C570.859 245.63 570.809 246.82 570.779 248.03C570.199 247.97 569.619 247.92 569.039 247.86C555.549 246.52 541.779 245.43 527.779 244.67C527.779 244.67 528.549 238.52 530.799 228.58C532.779 219.74 535.919 207.91 540.689 194.75V194.74C547.729 175.3 558.339 152.98 574.039 133.15C612.329 84.8099 649.789 95.9599 635.689 114.76Z" fill="#22A05B"/>
<path d="M960.689 313.59C960.059 313.53 959.429 313.48 958.799 313.42C958.799 313.42 958.799 313.42 958.789 313.42V313.41C958.799 313.4 958.799 313.4 958.799 313.39C962.539 303.13 967.319 295.69 972.439 289.82L972.449 289.81C980.409 281.94 995.859 280.19 998.059 288.07C1000.27 295.95 970.699 293.4 960.689 313.59Z" fill="#22A05B"/>
<path d="M602.23 413.03C590.35 414.58 579.15 409.91 571.22 410.81C563.88 411.65 551.82 418.03 535.29 419.51C524.65 420.46 511.9 415.6 498.31 416.57C486.97 417.37 474.88 420.19 461.92 420.88C450.25 421.5 437.99 420.83 425.31 421.27C413.45 421.68 401.26 422.68 388.75 422.87C376.75 423.04 364.57 420.18 352.18 420.08C340.08 419.99 327.69 427.67 315.41 427.26C303.22 426.85 291.06 423.77 278.88 422.99C266.63 422.21 254.55 419.72 242.49 418.52C232.13 417.49 219.06 417.77 205 415.88C193.21 414.3 181.33 407.49 168.6 405.51C156.11 403.56 143.22 403.7 131.26 401.55C117.87 399.14 105.57 395.65 94.7398 393.21C75.3398 388.84 59.4598 388.35 57.2798 385C55.2598 381.89 94.7298 385.08 110.73 383.32C109.61 370.5 112.38 357.74 120.56 348.22C127.51 340.14 136.55 334.4 149.04 328.65C158.98 324.07 168.24 313.79 181.08 310.66C192.06 307.98 205.03 310.92 217.76 309.29C229.2 307.82 241.21 308.28 253.8 307.64C265.47 307.05 277.46 298.5 289.92 298.61C301.72 298.71 313.9 302.01 326.24 302.74C338.46 303.45 346.09 303.84 354.33 303.93C361.96 304.01 370.17 309.39 382.67 309.54C381.64 308.9 419.36 315.52 419.37 315.52C418.31 305.41 433.83 306.84 452.16 307.33C462.44 307.61 474.97 303.39 488.16 305.63C499.53 307.56 511.01 312.51 522.94 315.21C534.95 317.93 547.58 317.87 558.66 320.71C571.89 324.11 582.72 331.86 592.28 334.44C597.45 335.83 594.18 351.12 594.03 369.97C593.86 389.78 598.32 413.23 602.23 413.03Z" fill="#2B3451"/>
<path d="M570.92 244.46C571.4 233.64 572.56 223.79 574.25 214.79C593.1 186.83 621.52 162.24 627.11 176.71C631.93 189.23 601.04 190.76 570.92 244.46Z" fill="#22A05B"/>
<path d="M529.289 244.67C529.329 244.35 529.239 245.01 529.279 244.77C529.319 244.5 529.359 244.23 529.399 243.95C529.539 243.01 529.689 242.08 529.839 241.14C530.419 237.69 531.099 234.26 531.839 230.85C533.449 223.45 535.359 216.12 537.569 208.88C538.289 206.52 539.039 204.18 539.819 201.84C540.229 200.62 540.639 199.4 541.069 198.18C541.419 197.19 542.199 195.8 542.199 194.74C542.199 192.81 539.199 192.81 539.199 194.74C539.199 194.93 538.769 195.7 538.669 195.99C538.479 196.53 538.289 197.07 538.099 197.61C537.699 198.75 537.309 199.89 536.929 201.04C536.239 203.09 535.579 205.15 534.939 207.22C533.759 211.05 532.659 214.91 531.639 218.78C529.819 225.72 528.239 232.73 527.029 239.81C526.749 241.42 526.489 243.04 526.289 244.66C526.049 246.58 529.049 246.56 529.289 244.67Z" fill="#0A0A0A"/>
<path d="M511.059 178.35C520.149 193.81 527.609 210.55 529.309 228.58C529.489 230.49 532.489 230.5 532.309 228.58C530.929 213.99 526.009 200.12 519.349 187.14C517.559 183.65 515.64 180.22 513.65 176.84C512.67 175.17 510.079 176.68 511.059 178.35Z" fill="#0A0A0A"/>
<path d="M282.261 252.5C280.661 250.06 278.711 247.88 277.091 245.46C275.191 242.64 273.781 239.55 273.341 236.15C272.401 228.99 275.791 221.55 273.381 214.49C272.311 211.36 270.111 208.97 267.571 206.94C266.071 205.75 263.941 207.86 265.451 209.06C267.491 210.68 269.501 212.56 270.421 215.07C271.431 217.82 271.291 220.86 271.081 223.73C270.761 228 269.841 232.21 270.401 236.49C270.851 239.95 272.121 243.2 273.981 246.14C275.721 248.88 277.911 251.29 279.691 254C280.731 255.62 283.321 254.12 282.261 252.5Z" fill="#22A05B"/>
<path d="M959.86 314.48C964.77 309.66 971.95 304.49 979.25 306.27C983.05 307.2 988.59 309.26 992.07 306.2C993.52 304.92 991.39 302.81 989.95 304.08C989.93 304.1 990.34 303.88 990.01 304.02C989.9 304.07 989.36 304.36 989.61 304.25C988.79 304.6 987.89 304.73 987.01 304.75C983.57 304.83 980.48 303.12 977.08 302.95C969.63 302.58 962.81 307.38 957.74 312.35C956.35 313.72 958.48 315.84 959.86 314.48Z" fill="#22A05B"/>
<path d="M934.55 287.9C929.54 279.28 921.56 271.27 911.82 268.4C909.96 267.85 909.17 270.75 911.02 271.29C920.01 273.94 927.34 281.48 931.96 289.42C932.93 291.08 935.52 289.58 934.55 287.9Z" fill="#22A05B"/>
<path d="M1403.11 288.49C1403.65 285.64 1405.26 283.14 1406.85 280.76C1408.84 277.78 1411 274.91 1412.87 271.84C1414.97 268.39 1416.37 264.85 1417.57 261.01C1418.26 258.8 1419.33 255.73 1421.61 254.74C1423.54 253.9 1426.01 254.53 1428.12 254.66C1430.05 254.78 1430.04 251.78 1428.12 251.66C1425.95 251.53 1423.75 251.09 1421.6 251.6C1418.96 252.23 1417.16 254.37 1416.03 256.73C1415.1 258.67 1414.59 260.73 1413.92 262.77C1413.3 264.67 1412.45 266.49 1411.49 268.24C1409.62 271.66 1407.31 274.8 1405.1 278.01C1403.07 280.95 1400.9 284.12 1400.22 287.69C1399.86 289.58 1402.75 290.38 1403.11 288.49Z" fill="#22A05B"/>
<path d="M1397.54 300.75C1397.53 293.71 1397.1 286.31 1394.52 279.68C1393.21 276.33 1391.14 273.57 1389.43 270.45C1388.73 269.17 1388.29 267.77 1388.21 266.34C1388.11 264.42 1385.11 264.41 1385.21 266.34C1385.38 269.59 1386.87 272.12 1388.59 274.78C1391.01 278.54 1392.58 282.51 1393.44 286.92C1394.32 291.47 1394.53 296.13 1394.54 300.75C1394.55 302.68 1397.55 302.68 1397.54 300.75Z" fill="#22A05B"/>
<path d="M291.83 272.4C291.31 272.51 290.79 272.6 290.27 272.71C274.21 275.91 259.07 279.27 244.82 282.73C243.6 275.11 241.19 267.97 238 261.28C220.32 224.12 178.69 200.35 183.55 180.62C191.95 146.45 246.19 200.78 277.24 247.53C282.37 255.23 286.86 262.73 290.41 269.59C290.9 270.54 291.38 271.48 291.83 272.4Z" fill="#22A05B"/>
<path d="M316.51 237.83C296.73 249.42 297.29 265.3 298.29 271.14C296.12 271.55 293.96 271.97 291.83 272.4C291.37 271.48 290.9 270.54 290.41 269.59C291.55 250.14 297.79 233.12 302.24 219.99C312.08 208.8 326.04 203.77 333.18 212.25C339.38 219.6 327.99 231.11 316.51 237.83Z" fill="#22A05B"/>
<path d="M244.83 282.72C242.14 283.37 239.48 284.02 236.86 284.68C221.68 251.78 160.72 243.72 173.7 234.95C186.68 226.18 225.73 239.29 238.01 261.26C241.2 267.96 243.61 275.1 244.83 282.72Z" fill="#22A05B"/>
<path d="M290.421 269.58C286.871 262.72 282.381 255.22 277.251 247.52C273.611 211.35 288.901 182.8 303.741 194.04C314.751 202.38 292.661 231.27 290.421 269.58Z" fill="#22A05B"/>
<path d="M104.13 330.03C102.47 330.59 100.85 331.14 99.2795 331.67C83.5095 333.13 71.2295 335.42 71.4695 323.87C71.5895 317.82 77.9995 316.44 84.0695 316.5C73.2995 315.92 65.9395 313.58 61.5195 310.72L63.0295 297.32C75.4995 294.77 84.5095 303.1 84.9495 303.51C84.9595 303.52 84.9595 303.52 84.9595 303.53C84.9495 303.55 95.5195 309.16 104.13 330.03Z" fill="#22A05B"/>
<path d="M109.81 327.72C107.88 328.34 106 328.96 104.18 329.56C95.57 308.69 85 303.08 85 303.08C84.99 303.07 84.99 303.07 84.99 303.06C73.93 287.32 73.85 252.14 90.4 255.08C106.96 258.02 101.11 315.34 101.11 315.34C105.96 296.96 115.34 282.48 124.63 285.55C133.92 288.62 128.03 308.74 109.81 327.72Z" fill="#22A05B"/>
<path d="M236.71 262.03C239.89 268.73 242.19 275.8 243.38 283.12C243.69 285.02 246.58 284.21 246.27 282.32C245.03 274.74 242.59 267.44 239.3 260.51C238.47 258.77 235.89 260.29 236.71 262.03Z" fill="#0A0A0A"/>
<path d="M84.1908 304.84C85.7708 305.68 86.6208 306.5 87.9708 307.74C91.5008 311 94.4108 314.88 96.9108 318.97C99.1408 322.62 101.041 326.47 102.681 330.42C103.411 332.18 106.311 331.41 105.571 329.62C101.521 319.86 95.9108 309.61 87.1908 303.22C86.7108 302.87 86.2308 302.52 85.7008 302.24C84.0108 301.34 82.4908 303.93 84.1908 304.84Z" fill="#0A0A0A"/>
<path d="M275.951 248.28C281.271 256.29 286.261 264.54 290.541 273.16C291.401 274.89 293.991 273.37 293.131 271.65C288.851 263.03 283.861 254.79 278.541 246.77C277.481 245.16 274.881 246.66 275.951 248.28Z" fill="#0A0A0A"/>
<path d="M871.81 101.95C867.46 125.68 838.78 150.42 826.09 214.09C822.04 234.37 819.62 258.62 820.12 288.04V288.07C820.16 290.28 820.21 292.51 820.28 294.78C814.28 293.7 808.58 292.63 803.19 291.59C799.77 290.92 796.15 290.18 792.34 289.37C787.02 277.1 782.31 263.52 778.78 249.31C778.78 249.3 778.77 249.29 778.77 249.29C775.97 238.09 773.9 226.49 772.82 214.84C772.82 214.84 772.82 214.83 772.81 214.81C769.57 179.84 775.23 144.33 797 117.17C835.25 69.4396 877.78 69.4396 871.81 101.95Z" fill="#22A05B"/>
<path d="M792.341 289.37C790.031 288.88 787.651 288.36 785.211 287.82C776.391 258.27 732.851 231.25 724.081 215.41C714.911 198.84 731.341 202.66 748.431 212.36H748.441C760.441 223.88 772.231 236.02 778.771 249.28C778.771 249.29 778.781 249.3 778.781 249.3C782.321 263.52 787.021 277.1 792.341 289.37Z" fill="#22A05B"/>
<path d="M778.77 249.29C772.23 236.03 760.44 223.88 748.44 212.37H748.43C737.48 201.85 726.37 191.85 718.92 181.98C703.31 161.29 714.73 141.88 733.4 152.39C763.66 169.45 772.54 213.43 772.81 214.8C772.82 214.82 772.82 214.83 772.82 214.83C773.9 226.49 775.97 238.09 778.77 249.29Z" fill="#22A05B"/>
<path d="M1242.69 313.49C1236.15 300.23 1231.89 291.44 1219.89 279.92H1219.88C1208.93 269.4 1197.82 259.4 1190.38 249.53C1174.77 228.84 1186.19 209.43 1204.86 219.94C1235.12 237 1244 280.98 1244.27 282.35C1244.28 282.37 1244.28 282.38 1244.28 282.38C1245.35 294.05 1239.89 302.29 1242.69 313.49Z" fill="#22A05B"/>
<path d="M856.94 214.09C856.81 214.29 856.69 214.48 856.56 214.68C853.76 218.27 850.99 222.5 848.38 227.39C835.31 248.15 821.32 272.97 820.13 288.05C819.62 258.63 822.05 234.38 826.1 214.1C839.73 178.45 859.94 165.7 871.82 168.89C883.7 172.07 871.62 191.73 856.94 214.09Z" fill="#22A05B"/>
<path d="M822.22 257.06C823.07 242.77 824.74 228.53 827.54 214.49C827.92 212.6 825.02 211.8 824.65 213.69C821.8 227.99 820.09 242.5 819.23 257.06C819.11 258.99 822.11 258.98 822.22 257.06Z" fill="#0A0A0A"/>
<path d="M891.149 210.45C886.279 232.56 844.189 245.86 824.359 295.51C822.979 295.27 821.619 295.03 820.279 294.78C820.209 292.51 820.159 290.28 820.119 288.07V288.04C821.309 272.96 835.299 248.14 848.369 227.38C851.189 222.91 853.959 218.63 856.549 214.67C874.669 191.44 894.769 194.04 891.149 210.45Z" fill="#22A05B"/>
<path d="M821.791 294.78C821.701 292.06 821.421 289.25 821.781 286.54C822.061 284.43 822.551 282.35 823.121 280.31C824.501 275.38 826.421 270.62 828.531 265.97C833.581 254.87 839.721 244.26 846.091 233.88C849.901 227.67 853.851 221.53 857.841 215.44C858.901 213.82 856.301 212.32 855.251 213.93C848.141 224.78 841.181 235.76 834.841 247.08C829.311 256.96 823.941 267.22 820.641 278.09C819.921 280.46 819.311 282.88 818.941 285.33C818.461 288.47 818.681 291.62 818.781 294.79C818.851 296.71 821.851 296.72 821.791 294.78Z" fill="#0A0A0A"/>
<path d="M950.021 311.92C942.541 303.39 935.531 293.06 929.991 282.97C929.991 282.97 929.981 282.97 929.981 282.96C920.451 265.62 915.261 248.99 919.441 243.44C926.051 234.65 933.031 244.51 947.901 274.65C946.591 291.58 948.001 303.67 950.021 311.92Z" fill="#22A05B"/>
<path d="M1088.53 117.16C1081.53 158.96 1022.97 208.09 986.941 254.73L986.931 254.74C971.251 275.03 959.831 294.87 958.791 313.4C958.791 313.41 958.791 313.41 958.781 313.42V313.43C955.911 313.17 953.041 312.91 950.181 312.63C950.121 312.4 950.071 312.17 950.011 311.94V311.93C947.991 303.67 946.581 291.59 947.901 274.66C949.201 258.05 953.121 236.77 961.681 209.87C994.121 108.02 1094.63 80.7296 1088.53 117.16Z" fill="#22A05B"/>
<path d="M950.19 312.62C949.46 312.55 948.72 312.48 947.97 312.4C932.79 301.98 912.35 295.89 907.68 288.07C901.44 277.63 919.06 275 929.98 282.96C929.98 282.97 929.99 282.97 929.99 282.97C935.52 293.06 942.53 303.39 950.02 311.92V311.93C950.08 312.17 950.13 312.4 950.19 312.62Z" fill="#22A05B"/>
<path d="M951.081 310.86C947.161 306.37 943.541 301.62 940.181 296.7C938.531 294.28 936.931 291.81 935.401 289.3C934.601 288 933.821 286.68 933.061 285.36C932.441 284.29 931.911 282.78 931.051 281.9C929.701 280.52 927.581 282.64 928.931 284.02C929.261 284.36 929.551 285.25 929.801 285.69C930.171 286.35 930.551 287.01 930.931 287.66C931.661 288.92 932.411 290.16 933.171 291.4C934.751 293.97 936.401 296.49 938.111 298.97C941.471 303.83 945.071 308.53 948.961 312.97C950.231 314.44 952.341 312.31 951.081 310.86Z" fill="#0A0A0A"/>
<path d="M1005.79 256.84C999.521 270.51 984.971 275.46 972.451 289.82L972.441 289.83C967.311 295.7 962.541 303.14 958.801 313.4C959.841 294.87 971.251 275.04 986.941 254.74L986.951 254.73C1000.14 244.3 1010.36 246.88 1005.79 256.84Z" fill="#22A05B"/>
<path d="M985.881 253.67C985.161 254.39 984.591 255.34 983.971 256.15C983.131 257.26 982.291 258.38 981.471 259.5C980.001 261.51 978.551 263.53 977.141 265.58C974.401 269.56 971.791 273.63 969.391 277.82C965.131 285.26 961.431 293.15 959.241 301.46C958.681 303.58 958.221 305.73 957.891 307.9C957.721 309 957.581 310.11 957.471 311.21C957.421 311.68 957.331 312.19 957.351 312.66C957.381 313.35 957.491 312.87 957.501 312.64C957.481 312.92 957.301 313.08 957.301 313.41C957.301 315.34 960.301 315.34 960.301 313.41C960.231 313.65 960.171 313.9 960.101 314.14C960.151 314.02 960.201 313.9 960.251 313.78C960.281 313.52 960.311 313.28 960.331 313.02C960.361 312.6 960.391 312.18 960.431 311.75C960.511 310.85 960.611 309.95 960.741 309.06C961.011 307.21 961.381 305.37 961.821 303.55C962.771 299.65 964.061 295.85 965.601 292.15C969.011 283.94 973.591 276.21 978.551 268.85C980.021 266.67 981.531 264.51 983.081 262.38C983.891 261.26 984.721 260.14 985.551 259.03C986.341 257.97 987.091 256.71 988.031 255.77C989.371 254.42 987.251 252.3 985.881 253.67Z" fill="#0A0A0A"/>
<path d="M1139.29 297.51C1126.39 307 1120.62 314.29 1119.35 316.01C1117.29 316.15 1115.21 316.29 1113.11 316.4C1113.46 314.72 1113.86 313 1114.32 311.26V311.25C1115.49 306.74 1117.03 302.06 1118.86 297.49C1126.11 279.44 1138.06 263.23 1151.45 267.62C1169.56 273.55 1154.11 286.61 1139.29 297.51Z" fill="#22A05B"/>
<path d="M1136.38 236.1C1133.25 249.73 1119.84 276.93 1118.86 297.5C1117.03 302.06 1115.49 306.75 1114.32 311.26C1111.47 302.37 1109.28 294.46 1107.74 287.34C1102.82 264.51 1104.61 249.72 1113.1 236.11C1125.75 215.85 1139.51 222.47 1136.38 236.1Z" fill="#22A05B"/>
<path d="M1114.33 311.25C1113.87 313 1113.47 314.72 1113.12 316.4C1113.1 316.41 1113.07 316.41 1113.05 316.41C1098.57 290.94 1069.66 277.34 1076.47 271.14C1083.15 265.06 1097.36 272.97 1107.76 287.33C1109.29 294.46 1111.48 302.36 1114.33 311.25Z" fill="#22A05B"/>
<path d="M1404.19 315.21C1402.98 315.19 1401.75 315.16 1400.53 315.14C1399.66 312.35 1398.73 309.26 1397.72 306.02C1398.07 297.29 1401.06 288.77 1405.63 281.04C1420.15 256.47 1450.56 239.8 1462.9 249.55C1479.07 262.31 1407.17 293.77 1404.19 315.21Z" fill="#22A05B"/>
<path d="M1405.62 281.03C1401.06 288.76 1398.06 297.28 1397.71 306.01C1397.18 304.29 1396.62 302.53 1396.04 300.74C1392.28 274.23 1397.38 255.13 1405.61 256.11C1413.83 257.1 1410.61 262.95 1405.62 281.03Z" fill="#22A05B"/>
<path d="M1400.53 315.14H1400.19C1379.38 301.27 1349.44 264.14 1367.08 261.99C1380.99 260.29 1389.86 281.76 1396.05 300.75C1396.63 302.53 1397.19 304.3 1397.72 306.02C1398.73 309.26 1399.65 312.35 1400.53 315.14Z" fill="#22A05B"/>
<path d="M82.92 318.02C86.86 317.91 90.63 318.4 94.43 319.25C95.22 319.43 96.05 319.01 96.28 318.2C96.49 317.45 96.03 316.53 95.23 316.35C91.23 315.45 87.02 314.89 82.92 315.01C80.99 315.08 80.98 318.08 82.92 318.02Z" fill="#0A0A0A"/>
<path d="M101.91 321.54C101.87 320.83 101.89 320.11 101.92 319.4C101.94 319.09 101.96 318.79 101.98 318.48C102 318.3 102.01 318.13 102.03 317.95C102.04 317.85 102.11 317.54 102.02 317.99C102.04 317.9 102.05 317.81 102.06 317.72C102.16 317.05 102.31 316.38 102.54 315.73C102.8 314.99 102.24 314.06 101.49 313.88C100.65 313.69 99.9305 314.13 99.6405 314.93C99.1505 316.32 98.9805 317.84 98.9105 319.31C98.8705 320.05 98.8605 320.79 98.8905 321.53C98.9305 322.31 99.5505 323.07 100.39 323.03C101.19 323 101.96 322.38 101.91 321.54Z" fill="#0A0A0A"/>
<path d="M793.64 288.61C785.85 270.6 780.09 251.63 776.68 232.31C775.66 226.52 774.87 220.69 774.32 214.83C774.14 212.92 771.14 212.91 771.32 214.83C773.23 235.29 778 255.47 784.96 274.8C786.82 279.97 788.86 285.08 791.04 290.13C791.81 291.89 794.4 290.37 793.64 288.61Z" fill="#0A0A0A"/>
<path d="M748.44 213.86C748.09 213.71 747.74 213.57 747.39 213.42C753.29 219.09 759.11 224.85 764.46 231.06C767.01 234.02 769.45 237.09 771.68 240.3C772.73 241.82 773.74 243.36 774.69 244.94C775.19 245.78 775.68 246.62 776.15 247.48C776.54 248.18 777.1 248.96 777.34 249.71C777.93 251.54 780.83 250.76 780.23 248.91C779.66 247.14 778.43 245.37 777.49 243.79C776.48 242.08 775.39 240.42 774.26 238.79C771.88 235.37 769.29 232.1 766.57 228.94C763.74 225.66 760.78 222.5 757.74 219.41C756.23 217.87 754.7 216.35 753.16 214.84C752.39 214.08 751.61 213.33 750.84 212.58C750.19 211.95 749.43 210.86 748.44 210.86C746.51 210.86 746.5 213.86 748.44 213.86Z" fill="#0A0A0A"/>
<path d="M1106.3 287.73C1107.98 297.63 1110.26 307.79 1114.28 317.02C1115.05 318.79 1117.64 317.26 1116.87 315.51C1114.32 309.67 1112.72 303.39 1111.29 297.19C1110.51 293.79 1109.78 290.37 1109.2 286.94C1108.87 285.03 1105.98 285.84 1106.3 287.73Z" fill="#0A0A0A"/>
<path d="M1117.42 297.1C1115.69 301.59 1114 306.18 1112.88 310.87C1112.43 312.75 1115.32 313.55 1115.77 311.67C1116.89 306.98 1118.58 302.4 1120.31 297.9C1120.6 297.14 1119.99 296.25 1119.26 296.05C1118.42 295.82 1117.71 296.34 1117.42 297.1Z" fill="#0A0A0A"/>
<path d="M1404.33 280.28C1402.77 282.83 1401.52 285.59 1400.37 288.35C1398.04 293.96 1396.44 299.93 1396.22 306.02C1396.15 307.95 1399.15 307.95 1399.22 306.02C1399.53 297.65 1402.55 288.93 1406.92 281.8C1407.93 280.14 1405.33 278.63 1404.33 280.28Z" fill="#0A0A0A"/>
<path d="M1422.8 378.04C1420.8 377.48 1400.06 362.01 1381.5 360.48C1362.94 358.95 1305.87 354.14 1303.82 354.14C1301.77 354.14 1214.31 373.05 1214.31 373.05C1235.79 377.5 1304.42 389.87 1353.91 393.41C1376.47 395.03 1512 399.3 1512 399.3C1512 399.3 1424.8 378.6 1422.8 378.04Z" fill="#226282"/>
<path d="M1297.54 302.53C1296.32 302.51 1295.1 302.48 1293.88 302.46C1293.9 302.56 1293.93 302.65 1293.96 302.74C1293.82 302.65 1293.67 302.55 1293.53 302.46C1238.75 301.61 1178.52 307.62 1124.94 314.42C1117.11 315.41 1108.96 316.19 1100.52 316.78C1098.46 316.92 1096.38 317.06 1094.28 317.17C1094.25 317.18 1094.23 317.18 1094.2 317.18C1053.22 319.55 1006.36 317.64 960.69 313.59C960.06 313.54 959.43 313.48 958.8 313.42C958.8 313.42 958.8 313.42 958.79 313.42C955.92 313.16 953.05 312.9 950.19 312.62C949.46 312.55 948.71 312.49 947.97 312.4C902.57 307.99 859.01 301.64 824.37 295.51C822.99 295.26 821.63 295.03 820.29 294.78C814.29 293.71 808.58 292.63 803.19 291.59C799.77 290.92 796.15 290.18 792.34 289.37C790.04 288.88 787.66 288.36 785.21 287.82C735.78 276.93 659.34 257 570.79 248.03C570.21 247.97 569.63 247.92 569.05 247.86C555.56 246.51 541.79 245.43 527.79 244.67C527.34 244.65 526.87 244.62 526.41 244.6C474.48 241.86 419.45 243.65 364.04 253.55C356.25 254.94 348.65 256.37 341.25 257.84C340.73 257.94 340.21 258.04 339.69 258.15C323.63 261.35 308.49 264.71 294.24 268.16C291.55 268.81 288.9 269.47 286.27 270.13C228.44 284.64 186.99 303.12 156.97 313.68C75.24 342.44 0 347.63 0 347.63V383.96C27.22 390.67 251.68 412.79 414.24 414.65C413.21 414 388.35 398.21 399.79 399.31C411.2 400.41 414.12 413.97 414.26 414.65C414.27 414.65 414.27 414.65 414.28 414.65C414.38 414.19 415.96 407.55 418.67 400.55C421.38 393.55 425.22 386.18 429.87 384.27C439.19 380.43 415.01 413.65 414.29 414.65C414.87 414.08 425.95 403.19 432.01 402.65C438.2 402.09 428.79 412.17 414.38 414.65C430.51 414.83 447.08 414.77 464.05 414.42C529.03 413.1 592.5 410.25 652.35 406.67L673.67 405.27L690.38 404.18L715.02 402.56L716.19 402.49L716.43 402.47C816.75 395.36 903.48 386.81 965.11 381.05C951.62 371.52 927.53 370.55 929.94 363.26C932.71 354.84 959.02 365.66 970.44 376.56C981.49 363.68 996.25 357.7 999.69 362.05C1003.05 366.3 978.57 377.73 972.82 380.34C975.39 380.09 977.9 379.87 980.37 379.64C1040.32 374.13 1140.57 369.14 1251.12 372.59C1243.18 368.81 1230.42 362.07 1237.25 360.65C1244.51 359.13 1251.94 368.18 1255.14 372.71C1255.59 372.72 1256.04 372.74 1256.5 372.76C1254.91 356.22 1263.82 347.96 1266.58 354.84C1267.97 358.32 1265.73 363.17 1263.05 367.26C1266.81 363.5 1271.89 359.95 1277.34 360.65C1286.75 361.85 1281.03 368.48 1265.42 373.07C1286.74 373.87 1308.39 374.99 1330.16 376.49C1327.17 373.6 1324.98 370.46 1325.71 367.86C1327.29 362.28 1334.67 366.38 1339.34 377.14C1342.14 377.35 1344.94 377.56 1347.74 377.78C1350.67 374.92 1354.49 372.49 1358.61 373.17C1362.44 373.81 1360.05 376.06 1356.02 378.44C1408.79 382.81 1461.78 389.5 1512 399.3V329.39C1481.72 315.88 1341.94 303.49 1297.54 302.53ZM282.18 405.43C258.25 400.95 230.52 385.38 247.79 387.61C263.71 389.67 279.53 403.1 281.89 405.16C279.34 402.66 261.1 384.56 267.83 380.93C275.02 377.05 282.08 405.01 282.17 405.42C282.18 405.43 282.18 405.43 282.18 405.43C285.65 389.28 292.88 379.26 310.71 378.15C328.53 377.03 295.98 392.62 282.18 405.43ZM695.26 349.19C700.61 349.19 700.49 353.65 702.03 357.26C703.57 360.88 697.7 362 694.37 361.44C691.02 360.88 688.24 355.87 688.24 353.09C688.24 353.09 689.91 349.19 695.26 349.19ZM615.85 364.23C608.61 363.67 591.35 369.24 574.17 370.44C556.98 371.66 552.22 353.15 548.84 344.17C545.85 336.27 583 325.25 595.39 321.91C607.77 318.57 619.75 329.7 632.09 330.99C644.43 332.27 662.07 335.83 662.4 340.51C662.73 345.19 659.84 355.87 651.49 358.65C643.13 361.44 623.09 364.78 615.85 364.23Z" fill="#22A05B"/>
<path d="M885.681 305.95C897.991 293.31 897.571 272.75 889.671 281.7C883.591 288.58 885.681 305.95 885.681 305.95Z" fill="#22A05B"/>
<path d="M885.68 305.95C885.68 305.95 879.63 255.64 860.85 255.49C848.05 255.38 856.11 273.61 867.59 284.11C879 294.54 885.68 305.95 885.68 305.95Z" fill="#22A05B"/>
<path d="M1317.89 162.28C1313.62 207.6 1272.41 240.35 1269.5 311.92C1269.45 313.09 1256.49 311.02 1242.69 313.49C1242.69 313.49 1242.03 307.32 1241.93 297.14C1241.83 288.09 1242.17 275.85 1243.8 261.95V261.94C1246.19 241.4 1251.43 201.79 1262.16 178.88C1288.31 123.04 1320.09 138.88 1317.89 162.28Z" fill="#22A05B"/>
<path d="M236.86 284.69C234.37 285.31 231.92 285.94 229.5 286.56C227.96 284.36 223.69 281.45 212.88 278.49C190.75 272.43 168.23 293.76 161.99 282.72C155.4 271.05 188.28 255.52 216.27 262.53C224.94 268.37 232.65 275.58 236.86 284.69Z" fill="#22A05B"/>
<path d="M401.139 250.44C399.659 250.55 398.159 250.66 396.669 250.78C397.589 238.96 397.659 228.49 397.019 219.2C394.469 182.47 380.639 164.15 362.519 154.43C322.809 133.1 335.799 105.54 373.829 136.6C395.229 154.08 402.389 180.17 403.869 204.09C405.029 222.46 402.809 239.55 401.139 250.44Z" fill="#22A05B"/>
<path d="M455.651 222.63C443.551 214.24 414.421 193.58 404.451 250.2C403.351 250.27 402.251 250.35 401.141 250.44C402.811 239.55 405.031 222.46 403.881 204.09C415.941 183.52 449.941 187.23 465.501 207.62C481.391 228.43 467.851 231.09 455.651 222.63Z" fill="#22A05B"/>
<path d="M396.671 250.78C394.561 250.94 392.451 251.12 390.331 251.32C391.461 242.84 392.511 227.41 385.501 226C378.911 224.69 361.791 229.11 364.161 216.72C366.361 205.24 391.151 211.5 397.021 219.19C397.671 228.49 397.601 238.96 396.671 250.78Z" fill="#22A05B"/>
<path d="M676.669 225.42C670.669 236.13 668.409 249.14 667.929 262.33C664.159 261.62 660.339 260.92 656.489 260.22C656.239 252.25 656.419 243.42 657.449 234.46V234.45C658.779 222.88 661.519 211.08 666.549 200.59C684.669 162.9 709.019 172.07 709.549 179.77C710.489 193.46 687.499 206.07 676.669 225.42Z" fill="#22A05B"/>
<path d="M657.45 234.46C656.42 243.43 656.24 252.25 656.49 260.22C655.61 260.06 654.72 259.91 653.82 259.75C649.57 244.05 641.83 224.98 630.17 230.83C613.4 239.25 595.74 229.74 606.26 215.58C618.43 199.22 648.27 206.67 657.45 234.46Z" fill="#22A05B"/>
<path d="M687.541 244.72C679.101 252.05 674.731 259.02 672.641 263.23C671.291 262.97 669.931 262.71 668.561 262.45C669.961 249.35 683.391 224.53 694.651 229.27C700.781 231.86 694.001 239.12 687.541 244.72Z" fill="#22A05B"/>
<path d="M557.83 224.98C559.02 220.12 560.32 215.13 562.64 210.67C563.96 208.13 565.72 205.8 568.07 204.29C573.66 200.7 580.93 200.47 586.33 196.32C590.1 193.42 592.51 189.27 594.39 184.97C596.56 180.01 598.24 174.85 600.53 169.95C603.18 164.3 606.68 158.98 610.76 154.26C613.49 151.1 616.56 148.2 620.21 146.14C623.76 144.14 627.77 143.4 631.11 140.99C634.33 138.66 637.27 135.81 639.79 132.72C641 131.24 638.89 129.1 637.67 130.6C635.55 133.2 633.12 135.64 630.49 137.73C628.75 139.11 626.91 140.22 624.8 140.92C623.26 141.43 621.74 142.02 620.28 142.73C616.69 144.47 613.52 146.99 610.75 149.84C606.53 154.18 602.84 159.28 599.92 164.57C597.19 169.51 595.26 174.81 593.21 180.05C591.5 184.4 589.63 188.96 586.32 192.36C581.26 197.54 573.55 197.78 567.46 201.18C559.45 205.66 556.98 215.96 554.96 224.19C554.48 226.06 557.37 226.86 557.83 224.98Z" fill="#22A05B"/>
<path d="M408.34 219.34C404.27 214.46 400.84 208.36 400.14 201.95C399.81 198.94 400.11 195.8 401.45 193.06C402.9 190.09 405.33 188.06 407.82 185.99C411.37 183.04 415.38 180.16 417.34 175.84C419.99 170.01 418.85 163.67 419.71 157.52C420.11 154.68 420.9 151.67 422.76 149.41C424.38 147.44 426.62 146.33 429.05 145.7C430.92 145.22 430.13 142.32 428.25 142.81C422.94 144.19 419.24 147.77 417.63 153.01C415.64 159.5 417.31 166.44 415.28 172.9C413.81 177.57 409.79 180.48 406.18 183.47C403.51 185.68 400.84 187.87 399.16 190.96C397.61 193.82 396.93 197.07 397.02 200.31C397.25 208.15 401.29 215.57 406.21 221.47C407.46 222.95 409.57 220.82 408.34 219.34Z" fill="#22A05B"/>
<path d="M410.01 209.12C410.84 200.25 417.64 193.05 424.84 188.48C427.9 186.54 431.22 184.87 434.75 183.98C436.19 183.62 437.58 183.35 439.1 183.7C440.63 184.05 441.79 184.99 442.88 186.07C444.01 187.2 445.09 188.49 446.62 189.06C448.48 189.76 450.36 189.06 451.94 188.01C453.54 186.95 452.04 184.35 450.43 185.42C449.82 185.82 449.05 186.28 448.42 186.35C447.89 186.41 447.49 186.23 446.99 185.86C445.99 185.14 445.03 183.87 444.01 183C441.08 180.5 437.6 180.16 433.96 181.07C425.99 183.07 418.25 188.44 413.14 194.79C409.8 198.95 407.51 203.75 407.01 209.1C406.83 211.04 409.83 211.02 410.01 209.12Z" fill="#22A05B"/>
<path d="M827.951 211.74C828.801 205.37 831.011 199.35 834.181 193.78C837.101 188.65 840.641 183.91 843.781 178.92C845.441 176.28 846.991 173.57 848.331 170.75C849.891 167.48 850.951 164.01 852.461 160.72C854.391 156.51 857.161 151.79 861.691 149.99C864.931 148.7 868.171 149.3 871.421 150.25C873.281 150.8 874.071 147.9 872.221 147.36C869.031 146.42 865.681 145.85 862.391 146.63C857.661 147.76 854.191 151.51 851.781 155.54C849.861 158.76 848.661 162.25 847.281 165.71C846.031 168.88 844.461 171.92 842.741 174.85C839.581 180.22 835.831 185.2 832.611 190.52C828.651 197.09 825.981 204.11 824.951 211.73C824.841 212.54 825.721 213.22 826.451 213.23C827.351 213.25 827.841 212.54 827.951 211.74Z" fill="#22A05B"/>
<path d="M1390.25 288.91C1390.86 292.37 1391.8 295.81 1392.88 299.15C1394.84 305.22 1397.42 311.35 1401.65 316.19C1402.92 317.65 1405.04 315.52 1403.77 314.07C1399.76 309.48 1397.39 303.53 1395.59 297.78C1394.59 294.62 1393.72 291.38 1393.14 288.11C1392.81 286.22 1389.92 287.02 1390.25 288.91Z" fill="#0A0A0A"/>
<path d="M673.67 405.27C673.68 405.3 673.68 405.32 673.69 405.35C679.29 404.99 684.85 404.63 690.36 404.25C690.37 404.23 690.37 404.2 690.38 404.18L673.67 405.27ZM715.02 402.56V402.57C715.41 402.54 715.8 402.51 716.19 402.49L715.02 402.56ZM1255.14 372.71C1253.8 372.67 1252.46 372.62 1251.13 372.59C1254.23 374.06 1256.6 375.09 1256.77 375.16C1256.7 375.05 1256.12 374.09 1255.14 372.71ZM1256.5 372.76C1256.56 373.54 1256.66 374.34 1256.78 375.16C1259.92 374.54 1262.81 373.83 1265.42 373.07C1262.44 372.96 1259.46 372.85 1256.5 372.76ZM1339.34 377.14C1336.28 376.92 1333.22 376.7 1330.16 376.49C1335 381.18 1341.95 385.22 1341.95 385.22C1341.27 382.22 1340.37 379.52 1339.34 377.14ZM1347.74 377.78C1344.31 381.1 1342.08 385 1341.96 385.21C1342.28 385.08 1350.62 381.64 1356.02 378.44C1353.26 378.22 1350.5 378 1347.74 377.78Z" fill="#22A05B"/>
<path d="M403.9 320.23C399.5 318.35 394.79 317.13 390.12 316.12C383.84 314.75 377.4 313.83 370.97 313.66C365.05 313.51 358.83 313.95 353.35 316.35C350.88 317.43 348.79 318.99 347.03 321.01C344.76 323.62 342.31 326.27 340.54 329.27C339.7 330.69 339.08 332.29 339.46 333.95C339.77 335.3 340.62 336.48 341.17 337.73C342.17 340.03 343.24 342.87 345.24 344.84C347.68 347.24 351.08 348.04 354.42 347.95C356.36 347.9 358.17 347.9 360.08 348.31C361.99 348.72 363.86 349.34 365.66 350.1C369.08 351.55 372.44 353.48 375.29 355.87C377.03 357.32 378.19 359.02 380.47 359.64C382.82 360.28 385.38 360.23 387.79 360.08C393.74 359.7 399.71 358.5 405.42 356.82C407.42 356.23 409.51 355.61 411.34 354.6C414.67 352.77 417.42 349.91 420.44 347.63C421.76 346.63 423.17 345.59 424.77 345.09C426.61 344.51 425.82 341.62 423.97 342.2C417.95 344.09 414.07 350.44 408.46 352.65C403.6 354.57 398.33 355.69 393.18 356.49C390.5 356.91 387.77 357.2 385.05 357.18C383.33 357.16 381.15 357.08 379.91 356.17C379.9 356.16 379.95 356.22 379.78 356.04C379.59 355.84 379.41 355.63 379.22 355.43C378.72 354.91 378.19 354.43 377.65 353.96C376.42 352.91 375.11 351.94 373.75 351.06C370.58 348.99 367.12 347.28 363.51 346.14C361.74 345.58 359.92 345.19 358.07 345C356.22 344.81 354.38 345.09 352.53 344.93C349.67 344.69 347.38 343.31 345.9 340.86C344.76 338.98 344.12 336.87 343.12 334.93C342.99 334.68 342.86 334.44 342.73 334.19C342.67 334.06 342.6 333.93 342.54 333.79C342.45 333.58 342.61 334.03 342.5 333.67C342.45 333.51 342.32 332.93 342.34 333.1C342.36 333.25 342.41 332.37 342.34 332.71C342.5 331.88 342.68 331.58 343.13 330.83C343.77 329.74 344.54 328.73 345.32 327.74C347.28 325.27 349.28 322.4 351.91 320.6C356.25 317.64 361.84 316.89 366.97 316.71C373.15 316.49 379.35 317.16 385.42 318.26C390.42 319.17 395.42 320.35 400.22 322.03C400.88 322.26 402.06 322.71 402.39 322.85C404.14 323.57 405.67 320.99 403.9 320.23Z" fill="#39BC42"/>
<path d="M414.29 414.65H414.27C414.48 413.74 420.56 388.1 429.86 384.27C439.19 380.43 415.01 413.65 414.29 414.65Z" fill="#39BC42"/>
<path d="M694.37 361.44C691.03 360.89 688.24 355.87 688.24 353.09C688.24 353.09 689.91 349.19 695.27 349.19C700.62 349.19 700.49 353.65 702.03 357.27C703.57 360.88 697.7 362 694.37 361.44Z" fill="#39BC42"/>
<path d="M651.49 358.65C643.14 361.44 623.09 364.78 615.86 364.23C608.62 363.68 591.36 369.24 574.18 370.45C556.99 371.66 552.23 353.15 548.85 344.18C545.86 336.27 583.01 325.25 595.4 321.91C607.79 318.57 619.76 329.7 632.1 330.99C644.44 332.27 662.08 335.83 662.41 340.51C662.73 345.19 659.84 355.87 651.49 358.65Z" fill="#39BC42"/>
<path d="M282.169 405.42C282.159 405.41 282.149 405.4 282.129 405.39C282.099 405.36 282.049 405.31 281.979 405.25C281.949 405.23 281.909 405.19 281.879 405.16C279.329 402.67 261.089 384.56 267.819 380.93C275.019 377.05 282.079 405.01 282.169 405.42Z" fill="#39BC42"/>
<path d="M282.18 405.43C258.25 400.96 230.52 385.39 247.78 387.61C263.71 389.67 279.53 403.1 281.88 405.16C281.91 405.19 281.95 405.23 281.98 405.25C282.05 405.31 282.09 405.36 282.13 405.39C282.15 405.39 282.17 405.41 282.18 405.43Z" fill="#39BC42"/>
<path d="M282.18 405.43C285.64 389.28 292.88 379.26 310.71 378.15C328.53 377.03 295.98 392.62 282.18 405.43Z" fill="#39BC42"/>
<path d="M414.381 414.65C414.361 414.65 414.321 414.65 414.301 414.64C414.871 414.08 425.961 403.19 432.011 402.64C438.201 402.09 428.791 412.17 414.381 414.65Z" fill="#39BC42"/>
<path d="M414.261 414.65C414.261 414.66 414.251 414.66 414.241 414.66C414.241 414.66 414.241 414.65 414.231 414.65C413.201 414.01 388.341 398.22 399.791 399.32C411.201 400.41 414.121 413.97 414.261 414.65Z" fill="#39BC42"/>
<path d="M972.82 380.34C970.93 380.51 969.01 380.69 967.07 380.87C968.14 379.36 969.26 377.92 970.44 376.56C981.48 363.68 996.24 357.71 999.68 362.05C1003.05 366.3 978.57 377.73 972.82 380.34Z" fill="#39BC42"/>
<path d="M970.441 376.56C969.271 377.92 968.141 379.36 967.071 380.87C966.431 380.94 965.771 380.99 965.111 381.05H965.101C951.601 371.52 927.521 370.55 929.921 363.26C932.711 354.84 959.021 365.66 970.441 376.56Z" fill="#39BC42"/>
<path d="M1256.77 375.16C1256.18 374.91 1227.75 362.63 1237.26 360.65C1246.73 358.67 1256.48 374.68 1256.77 375.16Z" fill="#39BC42"/>
<path d="M1256.78 375.16C1256.98 374.96 1260.26 371.52 1263.06 367.25C1266.82 363.49 1271.9 359.94 1277.35 360.64C1288.33 362.05 1278.69 370.85 1256.78 375.16Z" fill="#39BC42"/>
<path d="M1263.05 367.26C1260.25 371.52 1256.97 374.96 1256.78 375.16C1256.77 375.17 1256.77 375.17 1256.77 375.17C1254.05 357.03 1263.69 347.64 1266.58 354.85C1267.97 358.32 1265.73 363.17 1263.05 367.26Z" fill="#39BC42"/>
<path d="M1341.95 385.22C1341.95 385.22 1323.79 374.67 1325.71 367.86C1327.64 361.05 1338.22 368.66 1341.95 385.22Z" fill="#39BC42"/>
<path d="M1341.96 385.21C1342.18 384.82 1349.7 371.69 1358.61 373.17C1367.56 374.66 1342.53 384.98 1341.96 385.21Z" fill="#39BC42"/>
<path d="M793.409 337.96C795.069 335.84 797.739 334.84 800.249 334.13C802.919 333.38 805.679 332.95 808.439 332.71C809.409 332.62 810.369 332.56 811.339 332.52C811.589 332.51 811.849 332.53 812.099 332.5C812.839 332.4 811.739 332.6 811.659 332.29C811.689 332.44 812.299 332.75 812.419 332.84C813.039 333.3 813.289 333.5 814.009 334.09C815.649 335.44 817.229 336.9 818.609 338.52C819.279 339.31 819.899 340.15 820.399 341.05C820.769 341.73 821.129 342.66 821.179 343.22C821.249 344.03 821.149 344.49 820.649 345.12C820.029 345.9 818.909 346.45 817.939 346.81C815.919 347.54 813.759 347.94 811.669 348.4C809.249 348.94 806.819 349.42 804.379 349.83C799.839 350.6 795.159 351.21 790.539 350.96C788.459 350.85 784.669 350.5 784.049 348.39C783.499 346.54 780.599 347.33 781.159 349.19C781.999 352.01 784.889 353.18 787.559 353.63C791.649 354.32 795.879 353.99 799.969 353.49C805.319 352.83 810.609 351.78 815.849 350.51C818.719 349.82 822.249 348.86 823.659 345.95C825.899 341.34 821.049 336.37 817.959 333.54C816.589 332.28 815.129 331.05 813.599 329.99C812.639 329.33 811.609 329.51 810.489 329.57C807.159 329.76 803.799 330.17 800.559 330.97C797.259 331.78 793.489 333.07 791.319 335.85C790.109 337.34 792.219 339.48 793.409 337.96Z" fill="#39BC42"/>
<path d="M1365.41 346.1C1371.66 343.92 1378.24 342.57 1373.49 336.91C1368.74 331.24 1363.77 336.94 1360.85 340.48C1357.93 344.02 1359.17 348.27 1365.41 346.1Z" fill="#39BC42"/>
<path d="M453.591 285.37C459.191 281.46 466.361 279.91 472.981 278.78C480.701 277.46 488.581 276.93 496.411 276.91C499.961 276.9 503.511 277 507.041 277.34C508.961 277.52 508.951 274.52 507.041 274.34C500.071 273.68 492.991 273.8 486.011 274.28C478.031 274.82 469.931 275.84 462.261 278.17C458.711 279.25 455.141 280.64 452.071 282.78C450.501 283.88 452.001 286.48 453.591 285.37Z" fill="#39BC42"/>
<path d="M166.59 347.34C172.44 349.65 179.15 349.42 185.26 348.49C191.97 347.47 198.67 345.3 204.51 341.8C206.16 340.81 204.66 338.21 203 339.21C197.48 342.53 191.19 344.53 184.84 345.54C179.13 346.45 172.86 346.6 167.39 344.45C165.59 343.74 164.81 346.64 166.59 347.34Z" fill="#39BC42"/>
<path d="M221.23 312.21C211.82 312.21 225.4 300.16 229.03 303.71C232.65 307.26 232.94 312.21 221.23 312.21Z" fill="#39BC42"/>
<path d="M1245.71 281.96C1244.39 277.82 1243.33 273.58 1242.41 269.34C1240.76 261.76 1239.41 253.77 1240.2 246C1240.55 242.6 1241.51 239.31 1240.22 235.97C1239.24 233.41 1237.28 231.64 1235.1 230.07C1232.95 228.52 1230.62 227.1 1229.05 224.91C1226.97 222.02 1226.28 218.09 1226.63 214.59C1226.95 211.41 1228.74 208.95 1230.1 206.16C1231.84 202.59 1231.93 198.93 1230.98 195.11C1230.51 193.24 1227.62 194.03 1228.09 195.91C1228.87 199.04 1228.85 202.02 1227.37 204.94C1226.1 207.45 1224.53 209.78 1223.93 212.57C1223.14 216.28 1223.58 220.46 1225.08 223.94C1226.32 226.81 1228.46 228.96 1230.94 230.79C1232.83 232.19 1235.04 233.39 1236.48 235.31C1238.38 237.85 1237.94 240.94 1237.47 243.88C1236.24 251.65 1237.44 259.76 1238.94 267.41C1239.96 272.58 1241.2 277.75 1242.81 282.77C1243.4 284.59 1246.3 283.81 1245.71 281.96Z" fill="#22A05B"/>
<path d="M1267.94 286.82C1269.66 284.38 1271.73 282.22 1274.24 280.59C1276.14 279.35 1278.21 278.42 1280.21 277.37C1282.13 276.36 1283.99 275.15 1285.45 273.52C1287.26 271.49 1288.45 269.03 1289.29 266.46C1291 261.21 1293.28 255.88 1297.89 252.49C1300.28 250.74 1303.94 249.27 1306.18 251.72C1308.37 254.11 1308.47 257.51 1308.81 260.55C1309.11 263.22 1309.77 265.71 1312.54 266.7C1314.36 267.35 1315.15 264.45 1313.34 263.81C1311.44 263.14 1311.74 259.6 1311.56 258.03C1311.21 255.02 1310.45 252 1308.37 249.68C1305.66 246.67 1301.36 247.09 1298.08 248.84C1293.36 251.35 1290.07 256.18 1288.04 260.99C1286.8 263.93 1286.21 267.12 1284.49 269.85C1283.27 271.78 1281.56 273.18 1279.59 274.3C1277.37 275.55 1275 276.54 1272.85 277.92C1269.84 279.86 1267.4 282.39 1265.35 285.31C1264.23 286.89 1266.83 288.39 1267.94 286.82Z" fill="#22A05B"/>
<path d="M1122.44 300.12C1122.63 297.23 1123.03 294.35 1123.53 291.5C1124.45 286.24 1125.72 280.81 1128.36 276.12C1129.31 274.44 1126.72 272.92 1125.77 274.61C1123 279.53 1121.61 285.18 1120.64 290.7C1120.09 293.81 1119.65 296.96 1119.44 300.12C1119.31 302.05 1122.31 302.05 1122.44 300.12Z" fill="#22A05B"/>
<path d="M887.129 305.55C885.619 300.42 884.499 295.06 884.079 289.72C883.839 286.64 883.589 282.86 885.029 280.04C885.799 278.52 887.119 278.14 888.499 276.92C890.099 275.5 891.209 273.56 891.539 271.45C891.999 268.52 891.229 265.27 889.679 262.74C888.669 261.1 886.079 262.6 887.089 264.25C888.209 266.07 888.949 268.53 888.619 270.79C888.319 272.88 886.999 274.5 885.249 275.61C883.959 276.42 882.979 277.37 882.309 278.76C880.829 281.86 880.809 285.57 881.019 288.93C881.249 292.68 881.879 296.42 882.669 300.1C883.119 302.19 883.619 304.28 884.219 306.34C884.779 308.2 887.679 307.41 887.129 305.55Z" fill="#22A05B"/>
<path d="M299.799 271.14C299.669 265.54 303.909 259.6 308.429 256.63C309.649 255.83 310.949 255.2 312.369 254.87C313.909 254.51 315.369 254.77 316.919 254.92C319.559 255.18 322.699 255.23 325.019 253.74C327.179 252.35 327.909 249.97 327.939 247.51C327.959 245.58 324.959 245.58 324.939 247.51C324.919 249.27 324.519 250.83 322.789 251.53C320.019 252.66 316.989 251.63 314.149 251.65C307.919 251.69 302.629 256.79 299.639 261.83C297.999 264.61 296.739 267.85 296.809 271.12C296.839 273.07 299.839 273.08 299.799 271.14Z" fill="#22A05B"/>
<path d="M217.019 261.24C211.339 257.76 204.659 255.24 198.059 254.3C194.889 253.85 191.489 253.7 188.419 254.75C186.869 255.28 185.729 256.12 184.399 257.04C182.859 258.11 181.079 258.78 179.229 259.05C176.979 259.38 174.479 259.23 172.309 258.51C170.469 257.9 169.689 260.8 171.509 261.4C173.279 261.99 175.259 262.2 177.109 262.19C178.879 262.18 180.699 261.93 182.379 261.37C184.229 260.75 185.669 259.74 187.239 258.64C189.629 256.98 192.739 256.83 195.549 257.02C199.029 257.26 202.469 258.17 205.759 259.31C209.149 260.48 212.459 261.95 215.519 263.83C217.159 264.84 218.659 262.25 217.019 261.24Z" fill="#22A05B"/>
<path d="M1022.33 296.06C1023.71 299.46 1025.8 302.94 1028.69 305.24C1029.7 306.04 1030.75 306.62 1031.95 307.07C1032.78 307.38 1033.41 307.83 1033.96 308.55C1035.18 310.17 1035.69 312.31 1036.02 314.27C1036.23 315.5 1036.36 316.76 1036.36 318.02C1036.37 319.44 1038.47 320.15 1039.16 318.78C1040.61 315.89 1042.68 313.23 1044.98 310.97C1046.05 309.92 1047.21 308.89 1048.56 308.22C1049.43 307.79 1050.29 307.55 1050.9 308.12C1052.31 309.44 1054.43 307.32 1053.02 306C1050.14 303.3 1046.34 305.74 1043.94 307.84C1040.99 310.42 1038.33 313.76 1036.57 317.27C1037.5 317.52 1038.43 317.77 1039.37 318.03C1039.35 314.79 1038.78 311.33 1037.35 308.41C1036.36 306.38 1034.86 304.97 1032.75 304.2C1030.48 303.37 1028.8 301.39 1027.49 299.43C1026.85 298.47 1026.27 297.46 1025.76 296.43C1025.6 296.1 1025.44 295.78 1025.29 295.45C1025.24 295.33 1025.19 295.22 1025.14 295.1C1025.15 295.12 1025.29 295.47 1025.22 295.29C1024.51 293.5 1021.6 294.27 1022.33 296.06Z" fill="#22A05B"/>
<path d="M1239.29 303.54C1236.62 300.57 1233.51 297.87 1230.22 295.63C1227.87 294.03 1225.2 292.55 1222.37 292.04C1221.01 291.79 1219.69 291.77 1218.33 292.04C1216.07 292.48 1213.87 292.71 1211.57 292.59C1208.87 292.45 1206.06 291.96 1203.53 290.97C1201.73 290.26 1200.95 293.16 1202.73 293.86C1204.68 294.63 1206.79 295.04 1208.86 295.32C1210.96 295.61 1213.08 295.71 1215.2 295.53C1216.93 295.39 1218.65 294.8 1220.38 294.81C1222.97 294.84 1225.47 296.15 1227.62 297.49C1229.93 298.93 1232.04 300.66 1234.04 302.51C1235.12 303.51 1236.19 304.54 1237.17 305.64C1238.46 307.1 1240.58 304.97 1239.29 303.54Z" fill="#22A05B"/>
<path d="M61.51 310.74C56.96 307.72 55.26 299.07 63.02 297.34C70.78 295.62 61.51 310.74 61.51 310.74Z" fill="#22A05B"/>
<path d="M1512 0V96.76C1483.65 113.89 1450.42 123.74 1414.89 123.74C1333.62 123.74 1264.38 72.19 1238.1 0H1512V0Z" fill="#FFBC00"/>
</svg>
